<ttFont>
    <TTGlyph name=".notdef" xMin="50" yMin="0" xMax="450" yMax="750">
      <contour>
        <pt x="50" y="0" on="1"/>
        <pt x="50" y="750" on="1"/>
        <pt x="450" y="750" on="1"/>
        <pt x="450" y="0" on="1"/>
      </contour>
      <contour>
        <pt x="400" y="50" on="1"/>
        <pt x="400" y="700" on="1"/>
        <pt x="100" y="700" on="1"/>
        <pt x="100" y="50" on="1"/>
      </contour>
    </TTGlyph>
    <TTGlyph name="A" xMin="20" yMin="0" xMax="616" yMax="693">
      <contour>
        <pt x="546" y="0" on="1"/>
        <pt x="541" y="48" on="0"/>
        <pt x="530" y="142" on="0"/>
        <pt x="524" y="190" on="1"/>
        <pt x="198" y="190" on="1"/>
        <pt x="172" y="144" on="0"/>
        <pt x="120" y="50" on="0"/>
        <pt x="94" y="0" on="1"/>
        <pt x="20" y="0" on="1"/>
        <pt x="123" y="186" on="0"/>
        <pt x="341" y="538" on="0"/>
        <pt x="446" y="693" on="1"/>
        <pt x="519" y="693" on="1"/>
        <pt x="544" y="547" on="0"/>
        <pt x="593" y="208" on="0"/>
        <pt x="616" y="0" on="1"/>
      </contour>
      <contour>
        <pt x="465" y="615" on="1"/>
        <pt x="404" y="522" on="0"/>
        <pt x="288" y="342" on="0"/>
        <pt x="232" y="248" on="1"/>
        <pt x="517" y="248" on="1"/>
        <pt x="506" y="338" on="0"/>
        <pt x="480" y="519" on="0"/>
      </contour>
    </TTGlyph>
    <TTGlyph name="AE" xMin="18" yMin="0" xMax="1003" yMax="693">
      <contour>
        <pt x="515" y="190" on="1"/>
        <pt x="230" y="190" on="1"/>
        <pt x="193" y="142" on="0"/>
        <pt x="124" y="47" on="0"/>
        <pt x="92" y="0" on="1"/>
        <pt x="18" y="0" on="1"/>
        <pt x="88" y="100" on="0"/>
        <pt x="225" y="279" on="0"/>
        <pt x="365" y="447" on="0"/>
        <pt x="511" y="609" on="0"/>
        <pt x="592" y="693" on="1"/>
        <pt x="1003" y="693" on="1"/>
        <pt x="990" y="634" on="1"/>
        <pt x="689" y="634" on="1"/>
        <pt x="630" y="393" on="1"/>
        <pt x="896" y="393" on="1"/>
        <pt x="883" y="335" on="1"/>
        <pt x="619" y="335" on="1"/>
        <pt x="550" y="59" on="1"/>
        <pt x="874" y="59" on="1"/>
        <pt x="862" y="0" on="1"/>
        <pt x="470" y="0" on="1"/>
      </contour>
      <contour>
        <pt x="624" y="644" on="1"/>
        <pt x="594" y="614" on="0"/>
        <pt x="514" y="530" on="0"/>
        <pt x="423" y="427" on="0"/>
        <pt x="325" y="310" on="0"/>
        <pt x="276" y="248" on="1"/>
        <pt x="529" y="248" on="1"/>
      </contour>
    </TTGlyph>
    <TTGlyph name="AEacute" xMin="18" yMin="0" xMax="1003" yMax="929">
      <component glyphName="AE" x="0" y="0" flags="0x204"/>
      <component glyphName="acute" x="496" y="156" flags="0x4"/>
    </TTGlyph>
    <TTGlyph name="Aacute" xMin="20" yMin="0" xMax="635" yMax="923">
      <component glyphName="A" x="0" y="0" flags="0x204"/>
      <component glyphName="acute" x="215" y="150" flags="0x4"/>
    </TTGlyph>
    <TTGlyph name="Abreve" xMin="20" yMin="0" xMax="634" yMax="903">
      <component glyphName="A" x="0" y="0" flags="0x204"/>
      <component glyphName="breve" x="170" y="157" flags="0x4"/>
    </TTGlyph>
    <TTGlyph name="Acircumflex" xMin="20" yMin="0" xMax="632" yMax="914">
      <component glyphName="A" x="0" y="0" flags="0x204"/>
      <component glyphName="circumflex" x="204" y="151" flags="0x4"/>
    </TTGlyph>
    <TTGlyph name="Adieresis" xMin="20" yMin="0" xMax="648" yMax="875">
      <component glyphName="A" x="0" y="0" flags="0x204"/>
      <component glyphName="dieresis" x="206" y="154" flags="0x4"/>
    </TTGlyph>
    <TTGlyph name="Agrave" xMin="20" yMin="0" xMax="616" yMax="923">
      <component glyphName="A" x="0" y="0" flags="0x204"/>
      <component glyphName="grave" x="176" y="150" flags="0x4"/>
    </TTGlyph>
    <TTGlyph name="Alpha" xMin="20" yMin="0" xMax="616" yMax="693">
      <component glyphName="A" x="0" y="0" flags="0x204"/>
    </TTGlyph>
    <TTGlyph name="Alphatonos" xMin="20" yMin="0" xMax="616" yMax="705">
      <component glyphName="A" x="0" y="0" flags="0x204"/>
      <component glyphName="tonos.cap" x="-75" y="0" flags="0x4"/>
    </TTGlyph>
    <TTGlyph name="Amacron" xMin="20" yMin="0" xMax="645" yMax="844">
      <component glyphName="A" x="0" y="0" flags="0x204"/>
      <component glyphName="macron" x="197" y="140" flags="0x4"/>
    </TTGlyph>
    <TTGlyph name="Aogonek" xMin="20" yMin="-186" xMax="616" yMax="693">
      <contour>
        <pt x="546" y="0" on="1"/>
        <pt x="541" y="48" on="0"/>
        <pt x="530" y="142" on="0"/>
        <pt x="524" y="190" on="1"/>
        <pt x="198" y="190" on="1"/>
        <pt x="172" y="144" on="0"/>
        <pt x="120" y="50" on="0"/>
        <pt x="94" y="0" on="1"/>
        <pt x="20" y="0" on="1"/>
        <pt x="123" y="186" on="0"/>
        <pt x="341" y="538" on="0"/>
        <pt x="446" y="693" on="1"/>
        <pt x="519" y="693" on="1"/>
        <pt x="544" y="547" on="0"/>
        <pt x="593" y="208" on="0"/>
        <pt x="616" y="0" on="1"/>
        <pt x="560" y="-36" on="0"/>
        <pt x="516" y="-87" on="0"/>
        <pt x="516" y="-107" on="1"/>
        <pt x="516" y="-119" on="0"/>
        <pt x="533" y="-131" on="0"/>
        <pt x="558" y="-135" on="0"/>
        <pt x="584" y="-132" on="0"/>
        <pt x="593" y="-130" on="1"/>
        <pt x="586" y="-179" on="1"/>
        <pt x="572" y="-182" on="0"/>
        <pt x="547" y="-186" on="0"/>
        <pt x="533" y="-186" on="1"/>
        <pt x="517" y="-186" on="0"/>
        <pt x="489" y="-180" on="0"/>
        <pt x="467" y="-165" on="0"/>
        <pt x="454" y="-141" on="0"/>
        <pt x="454" y="-122" on="1"/>
        <pt x="454" y="-104" on="0"/>
        <pt x="472" y="-70" on="0"/>
        <pt x="499" y="-39" on="0"/>
        <pt x="533" y="-11" on="0"/>
        <pt x="549" y="0" on="1"/>
      </contour>
      <contour>
        <pt x="465" y="615" on="1"/>
        <pt x="404" y="522" on="0"/>
        <pt x="288" y="342" on="0"/>
        <pt x="232" y="248" on="1"/>
        <pt x="517" y="248" on="1"/>
        <pt x="506" y="338" on="0"/>
        <pt x="480" y="519" on="0"/>
      </contour>
    </TTGlyph>
    <TTGlyph name="Aring" xMin="20" yMin="0" xMax="616" yMax="832">
      <contour>
        <pt x="586" y="737" on="1"/>
        <pt x="586" y="704" on="0"/>
        <pt x="553" y="658" on="0"/>
        <pt x="527" y="647" on="1"/>
        <pt x="550" y="508" on="0"/>
        <pt x="594" y="193" on="0"/>
        <pt x="616" y="0" on="1"/>
        <pt x="546" y="0" on="1"/>
        <pt x="541" y="48" on="0"/>
        <pt x="530" y="142" on="0"/>
        <pt x="524" y="190" on="1"/>
        <pt x="198" y="190" on="1"/>
        <pt x="172" y="144" on="0"/>
        <pt x="120" y="50" on="0"/>
        <pt x="94" y="0" on="1"/>
        <pt x="20" y="0" on="1"/>
        <pt x="117" y="175" on="0"/>
        <pt x="327" y="515" on="0"/>
        <pt x="427" y="664" on="1"/>
        <pt x="395" y="691" on="0"/>
        <pt x="395" y="737" on="1"/>
        <pt x="395" y="780" on="0"/>
        <pt x="452" y="832" on="0"/>
        <pt x="491" y="832" on="1"/>
        <pt x="510" y="832" on="0"/>
        <pt x="545" y="818" on="0"/>
        <pt x="571" y="793" on="0"/>
        <pt x="586" y="758" on="0"/>
      </contour>
      <contour>
        <pt x="465" y="615" on="1"/>
        <pt x="404" y="522" on="0"/>
        <pt x="288" y="342" on="0"/>
        <pt x="232" y="248" on="1"/>
        <pt x="517" y="248" on="1"/>
        <pt x="506" y="338" on="0"/>
        <pt x="480" y="519" on="0"/>
      </contour>
      <contour>
        <pt x="548" y="737" on="1"/>
        <pt x="548" y="765" on="0"/>
        <pt x="515" y="796" on="0"/>
        <pt x="491" y="796" on="1"/>
        <pt x="467" y="796" on="0"/>
        <pt x="434" y="765" on="0"/>
        <pt x="434" y="737" on="1"/>
        <pt x="434" y="708" on="0"/>
        <pt x="467" y="678" on="0"/>
        <pt x="491" y="678" on="1"/>
        <pt x="515" y="678" on="0"/>
        <pt x="548" y="708" on="0"/>
      </contour>
    </TTGlyph>
    <TTGlyph name="Aringacute" xMin="19" yMin="0" xMax="615" yMax="956">
      <contour>
        <pt x="579" y="728" on="1"/>
        <pt x="579" y="698" on="0"/>
        <pt x="549" y="655" on="0"/>
        <pt x="526" y="644" on="1"/>
        <pt x="549" y="506" on="0"/>
        <pt x="594" y="192" on="0"/>
        <pt x="615" y="0" on="1"/>
        <pt x="545" y="0" on="1"/>
        <pt x="540" y="48" on="0"/>
        <pt x="529" y="142" on="0"/>
        <pt x="523" y="190" on="1"/>
        <pt x="197" y="190" on="1"/>
        <pt x="171" y="144" on="0"/>
        <pt x="119" y="50" on="0"/>
        <pt x="93" y="0" on="1"/>
        <pt x="19" y="0" on="1"/>
        <pt x="116" y="174" on="0"/>
        <pt x="323" y="510" on="0"/>
        <pt x="423" y="658" on="1"/>
        <pt x="409" y="671" on="0"/>
        <pt x="393" y="706" on="0"/>
        <pt x="393" y="728" on="1"/>
        <pt x="393" y="770" on="0"/>
        <pt x="448" y="821" on="0"/>
        <pt x="486" y="821" on="1"/>
        <pt x="524" y="821" on="0"/>
        <pt x="579" y="770" on="0"/>
      </contour>
      <contour>
        <pt x="464" y="615" on="1"/>
        <pt x="403" y="522" on="0"/>
        <pt x="287" y="342" on="0"/>
        <pt x="231" y="248" on="1"/>
        <pt x="516" y="248" on="1"/>
        <pt x="505" y="338" on="0"/>
        <pt x="479" y="519" on="0"/>
      </contour>
      <contour>
        <pt x="542" y="728" on="1"/>
        <pt x="542" y="756" on="0"/>
        <pt x="510" y="786" on="0"/>
        <pt x="486" y="786" on="1"/>
        <pt x="463" y="786" on="0"/>
        <pt x="431" y="756" on="0"/>
        <pt x="431" y="728" on="1"/>
        <pt x="431" y="700" on="0"/>
        <pt x="463" y="671" on="0"/>
        <pt x="486" y="671" on="1"/>
        <pt x="510" y="671" on="0"/>
        <pt x="542" y="700" on="0"/>
      </contour>
      <contour>
        <pt x="422" y="881" on="1"/>
        <pt x="569" y="956" on="1"/>
        <pt x="586" y="899" on="1"/>
        <pt x="436" y="841" on="1"/>
      </contour>
    </TTGlyph>
    <TTGlyph name="At" xMin="134" yMin="-85" xMax="966" yMax="776">
      <component glyphName="at" x="16" y="68" flags="0x214"/>
    </TTGlyph>
    <TTGlyph name="Atilde" xMin="20" yMin="0" xMax="682" yMax="880">
      <component glyphName="A" x="0" y="0" flags="0x204"/>
      <component glyphName="tilde" x="181" y="152" flags="0x4"/>
    </TTGlyph>
    <TTGlyph name="B" xMin="83" yMin="-6" xMax="639" yMax="700">
      <contour>
        <pt x="243" y="680" on="1"/>
        <pt x="275" y="688" on="0"/>
        <pt x="363" y="700" on="0"/>
        <pt x="410" y="700" on="1"/>
        <pt x="453" y="700" on="0"/>
        <pt x="535" y="686" on="0"/>
        <pt x="600" y="650" on="0"/>
        <pt x="639" y="589" on="0"/>
        <pt x="639" y="543" on="1"/>
        <pt x="639" y="509" on="0"/>
        <pt x="615" y="451" on="0"/>
        <pt x="576" y="406" on="0"/>
        <pt x="524" y="373" on="0"/>
        <pt x="496" y="364" on="1"/>
        <pt x="519" y="358" on="0"/>
        <pt x="556" y="332" on="0"/>
        <pt x="581" y="297" on="0"/>
        <pt x="595" y="254" on="0"/>
        <pt x="595" y="232" on="1"/>
        <pt x="595" y="161" on="0"/>
        <pt x="537" y="69" on="0"/>
        <pt x="443" y="15" on="0"/>
        <pt x="322" y="-6" on="0"/>
        <pt x="258" y="-6" on="1"/>
        <pt x="210" y="-6" on="0"/>
        <pt x="121" y="5" on="0"/>
        <pt x="83" y="13" on="1"/>
      </contour>
      <contour>
        <pt x="161" y="59" on="1"/>
        <pt x="182" y="55" on="0"/>
        <pt x="232" y="52" on="0"/>
        <pt x="260" y="52" on="1"/>
        <pt x="309" y="52" on="0"/>
        <pt x="404" y="66" on="0"/>
        <pt x="478" y="105" on="0"/>
        <pt x="523" y="173" on="0"/>
        <pt x="523" y="228" on="1"/>
        <pt x="523" y="287" on="0"/>
        <pt x="443" y="332" on="0"/>
        <pt x="352" y="332" on="1"/>
        <pt x="225" y="332" on="1"/>
      </contour>
      <contour>
        <pt x="333" y="390" on="1"/>
        <pt x="459" y="390" on="0"/>
        <pt x="568" y="467" on="0"/>
        <pt x="568" y="531" on="1"/>
        <pt x="568" y="591" on="0"/>
        <pt x="483" y="641" on="0"/>
        <pt x="396" y="641" on="1"/>
        <pt x="369" y="641" on="0"/>
        <pt x="319" y="637" on="0"/>
        <pt x="300" y="634" on="1"/>
        <pt x="240" y="390" on="1"/>
      </contour>
    </TTGlyph>
    <TTGlyph name="Backslash" xMin="189" yMin="-138" xMax="354" yMax="830">
      <component glyphName="backslash" x="11" y="47" flags="0x214"/>
    </TTGlyph>
    <TTGlyph name="Beta" xMin="83" yMin="-6" xMax="639" yMax="700">
      <component glyphName="B" x="0" y="0" flags="0x204"/>
    </TTGlyph>
    <TTGlyph name="Braceleft" xMin="121" yMin="-138" xMax="490" yMax="830">
      <component glyphName="braceleft" x="13" y="57" flags="0x214"/>
    </TTGlyph>
    <TTGlyph name="Braceright" xMin="-5" yMin="-138" xMax="364" yMax="830">
      <component glyphName="braceright" x="13" y="57" flags="0x214"/>
    </TTGlyph>
    <TTGlyph name="Bracketleft" xMin="69" yMin="-138" xMax="498" yMax="830">
      <component glyphName="bracketleft" x="11" y="47" flags="0x214"/>
    </TTGlyph>
    <TTGlyph name="Bracketright" xMin="-41" yMin="-138" xMax="389" yMax="830">
      <component glyphName="bracketright" x="11" y="47" flags="0x214"/>
    </TTGlyph>
    <TTGlyph name="Bullet" xMin="148" yMin="227" xMax="388" yMax="467">
      <component glyphName="bullet" x="0" y="-6" flags="0x214"/>
    </TTGlyph>
    <TTGlyph name="C" xMin="138" yMin="-15" xMax="712" yMax="708">
      <contour>
        <pt x="587" y="31" on="1"/>
        <pt x="546" y="9" on="0"/>
        <pt x="442" y="-15" on="0"/>
        <pt x="391" y="-15" on="1"/>
        <pt x="335" y="-15" on="0"/>
        <pt x="242" y="16" on="0"/>
        <pt x="175" y="81" on="0"/>
        <pt x="138" y="182" on="0"/>
        <pt x="138" y="253" on="1"/>
        <pt x="138" y="360" on="0"/>
        <pt x="204" y="529" on="0"/>
        <pt x="316" y="646" on="0"/>
        <pt x="462" y="708" on="0"/>
        <pt x="542" y="708" on="1"/>
        <pt x="589" y="708" on="0"/>
        <pt x="670" y="688" on="0"/>
        <pt x="712" y="665" on="1"/>
        <pt x="681" y="603" on="1"/>
        <pt x="609" y="647" on="0"/>
        <pt x="528" y="647" on="1"/>
        <pt x="465" y="647" on="0"/>
        <pt x="350" y="592" on="0"/>
        <pt x="262" y="490" on="0"/>
        <pt x="210" y="345" on="0"/>
        <pt x="210" y="255" on="1"/>
        <pt x="210" y="153" on="0"/>
        <pt x="298" y="46" on="0"/>
        <pt x="389" y="46" on="1"/>
        <pt x="429" y="46" on="0"/>
        <pt x="491" y="56" on="0"/>
        <pt x="536" y="70" on="0"/>
        <pt x="567" y="85" on="0"/>
        <pt x="578" y="91" on="1"/>
      </contour>
    </TTGlyph>
    <TTGlyph name="Cacute" xMin="138" yMin="-15" xMax="712" yMax="923">
      <component glyphName="C" x="0" y="0" flags="0x204"/>
      <component glyphName="acute" x="276" y="150" flags="0x4"/>
    </TTGlyph>
    <TTGlyph name="Ccaron" xMin="138" yMin="-15" xMax="720" yMax="916">
      <component glyphName="C" x="0" y="0" flags="0x204"/>
      <component glyphName="caron" x="252" y="153" flags="0x4"/>
    </TTGlyph>
    <TTGlyph name="Ccedilla" xMin="138" yMin="-187" xMax="712" yMax="708">
      <contour>
        <pt x="264" y="-132" on="1"/>
        <pt x="286" y="-141" on="0"/>
        <pt x="313" y="-141" on="1"/>
        <pt x="336" y="-141" on="0"/>
        <pt x="364" y="-127" on="0"/>
        <pt x="364" y="-110" on="1"/>
        <pt x="364" y="-95" on="0"/>
        <pt x="345" y="-77" on="0"/>
        <pt x="317" y="-66" on="1"/>
        <pt x="322" y="-55" on="0"/>
        <pt x="341" y="-26" on="0"/>
        <pt x="351" y="-13" on="1"/>
        <pt x="303" y="-8" on="0"/>
        <pt x="225" y="28" on="0"/>
        <pt x="169" y="93" on="0"/>
        <pt x="138" y="188" on="0"/>
        <pt x="138" y="253" on="1"/>
        <pt x="138" y="360" on="0"/>
        <pt x="204" y="529" on="0"/>
        <pt x="316" y="646" on="0"/>
        <pt x="462" y="708" on="0"/>
        <pt x="542" y="708" on="1"/>
        <pt x="589" y="708" on="0"/>
        <pt x="670" y="688" on="0"/>
        <pt x="712" y="665" on="1"/>
        <pt x="681" y="603" on="1"/>
        <pt x="609" y="647" on="0"/>
        <pt x="528" y="647" on="1"/>
        <pt x="465" y="647" on="0"/>
        <pt x="350" y="592" on="0"/>
        <pt x="262" y="490" on="0"/>
        <pt x="210" y="345" on="0"/>
        <pt x="210" y="255" on="1"/>
        <pt x="210" y="153" on="0"/>
        <pt x="298" y="46" on="0"/>
        <pt x="389" y="46" on="1"/>
        <pt x="429" y="46" on="0"/>
        <pt x="491" y="56" on="0"/>
        <pt x="536" y="70" on="0"/>
        <pt x="567" y="85" on="0"/>
        <pt x="578" y="91" on="1"/>
        <pt x="587" y="31" on="1"/>
        <pt x="548" y="10" on="0"/>
        <pt x="447" y="-14" on="0"/>
        <pt x="398" y="-15" on="1"/>
        <pt x="390" y="-25" on="0"/>
        <pt x="383" y="-38" on="1"/>
        <pt x="406" y="-51" on="0"/>
        <pt x="427" y="-78" on="0"/>
        <pt x="427" y="-102" on="1"/>
        <pt x="427" y="-143" on="0"/>
        <pt x="364" y="-187" on="0"/>
        <pt x="316" y="-187" on="1"/>
        <pt x="299" y="-187" on="0"/>
        <pt x="266" y="-183" on="0"/>
        <pt x="246" y="-175" on="1"/>
      </contour>
    </TTGlyph>
    <TTGlyph name="Ccircumflex" xMin="138" yMin="-15" xMax="712" yMax="914">
      <component glyphName="C" x="0" y="0" flags="0x204"/>
      <component glyphName="circumflex" x="248" y="151" flags="0x4"/>
    </TTGlyph>
    <TTGlyph name="Cdotaccent" xMin="138" yMin="-15" xMax="712" yMax="880">
      <component glyphName="C" x="0" y="0" flags="0x204"/>
      <component glyphName="dotaccent" x="248" y="154" flags="0x4"/>
    </TTGlyph>
    <TTGlyph name="Chi" xMin="10" yMin="0" xMax="680" yMax="693">
      <component glyphName="X" x="0" y="0" flags="0x204"/>
    </TTGlyph>
    <TTGlyph name="D" xMin="83" yMin="-6" xMax="711" yMax="699">
      <contour>
        <pt x="162" y="60" on="1"/>
        <pt x="187" y="56" on="0"/>
        <pt x="233" y="53" on="0"/>
        <pt x="256" y="53" on="1"/>
        <pt x="350" y="53" on="0"/>
        <pt x="493" y="108" on="0"/>
        <pt x="589" y="204" on="0"/>
        <pt x="638" y="335" on="0"/>
        <pt x="638" y="412" on="1"/>
        <pt x="638" y="527" on="0"/>
        <pt x="523" y="641" on="0"/>
        <pt x="401" y="641" on="1"/>
        <pt x="376" y="641" on="0"/>
        <pt x="325" y="637" on="0"/>
        <pt x="299" y="633" on="1"/>
      </contour>
      <contour>
        <pt x="242" y="680" on="1"/>
        <pt x="291" y="691" on="0"/>
        <pt x="371" y="699" on="0"/>
        <pt x="410" y="699" on="1"/>
        <pt x="563" y="699" on="0"/>
        <pt x="711" y="551" on="0"/>
        <pt x="711" y="415" on="1"/>
        <pt x="711" y="323" on="0"/>
        <pt x="651" y="168" on="0"/>
        <pt x="534" y="56" on="0"/>
        <pt x="360" y="-6" on="0"/>
        <pt x="246" y="-6" on="1"/>
        <pt x="226" y="-6" on="0"/>
        <pt x="181" y="-3" on="0"/>
        <pt x="138" y="1" on="0"/>
        <pt x="98" y="8" on="0"/>
        <pt x="83" y="13" on="1"/>
      </contour>
    </TTGlyph>
    <TTGlyph name="Dcaron" xMin="83" yMin="-6" xMax="711" yMax="916">
      <component glyphName="D" x="0" y="0" flags="0x204"/>
      <component glyphName="caron" x="164" y="153" flags="0x4"/>
    </TTGlyph>
    <TTGlyph name="Dcroat" xMin="93" yMin="-6" xMax="724" yMax="699">
      <component glyphName="Eth" x="0" y="0" flags="0x204"/>
    </TTGlyph>
    <TTGlyph name="Delta" xMin="26" yMin="0" xMax="603" yMax="693">
      <component glyphName="uni0394" x="0" y="0" flags="0x204"/>
    </TTGlyph>
    <TTGlyph name="E" xMin="83" yMin="0" xMax="636" yMax="693">
      <contour>
        <pt x="249" y="693" on="1"/>
        <pt x="636" y="693" on="1"/>
        <pt x="623" y="634" on="1"/>
        <pt x="302" y="634" on="1"/>
        <pt x="243" y="393" on="1"/>
        <pt x="529" y="393" on="1"/>
        <pt x="516" y="335" on="1"/>
        <pt x="232" y="335" on="1"/>
        <pt x="163" y="59" on="1"/>
        <pt x="507" y="59" on="1"/>
        <pt x="495" y="0" on="1"/>
        <pt x="83" y="0" on="1"/>
      </contour>
    </TTGlyph>
    <TTGlyph name="Eacute" xMin="83" yMin="0" xMax="636" yMax="923">
      <component glyphName="E" x="0" y="0" flags="0x204"/>
      <component glyphName="acute" x="156" y="150" flags="0x4"/>
    </TTGlyph>
    <TTGlyph name="Ebreve" xMin="83" yMin="0" xMax="636" yMax="903">
      <component glyphName="E" x="0" y="0" flags="0x204"/>
      <component glyphName="breve" x="147" y="157" flags="0x4"/>
    </TTGlyph>
    <TTGlyph name="Ecaron" xMin="83" yMin="0" xMax="636" yMax="916">
      <component glyphName="E" x="0" y="0" flags="0x204"/>
      <component glyphName="caron" x="156" y="153" flags="0x4"/>
    </TTGlyph>
    <TTGlyph name="Ecircumflex" xMin="83" yMin="0" xMax="636" yMax="914">
      <component glyphName="E" x="0" y="0" flags="0x204"/>
      <component glyphName="circumflex" x="160" y="151" flags="0x4"/>
    </TTGlyph>
    <TTGlyph name="Edieresis" xMin="83" yMin="0" xMax="636" yMax="875">
      <component glyphName="E" x="0" y="0" flags="0x204"/>
      <component glyphName="dieresis" x="164" y="154" flags="0x4"/>
    </TTGlyph>
    <TTGlyph name="Edotaccent" xMin="83" yMin="0" xMax="636" yMax="880">
      <component glyphName="E" x="0" y="0" flags="0x204"/>
      <component glyphName="dotaccent" x="161" y="154" flags="0x4"/>
    </TTGlyph>
    <TTGlyph name="Egrave" xMin="83" yMin="0" xMax="636" yMax="923">
      <component glyphName="E" x="0" y="0" flags="0x204"/>
      <component glyphName="grave" x="134" y="150" flags="0x4"/>
    </TTGlyph>
    <TTGlyph name="Emacron" xMin="83" yMin="0" xMax="636" yMax="844">
      <component glyphName="E" x="0" y="0" flags="0x204"/>
      <component glyphName="macron" x="160" y="140" flags="0x4"/>
    </TTGlyph>
    <TTGlyph name="Emdash" xMin="67" yMin="317" xMax="1081" yMax="374">
      <component glyphName="emdash" x="9" y="40" flags="0x214"/>
    </TTGlyph>
    <TTGlyph name="Endash" xMin="67" yMin="317" xMax="580" yMax="374">
      <component glyphName="endash" x="9" y="40" flags="0x214"/>
    </TTGlyph>
    <TTGlyph name="Eng" xMin="83" yMin="-187" xMax="756" yMax="693">
      <contour>
        <pt x="525" y="0" on="1"/>
        <pt x="507" y="61" on="0"/>
        <pt x="453" y="224" on="0"/>
        <pt x="390" y="392" on="0"/>
        <pt x="324" y="547" on="0"/>
        <pt x="294" y="601" on="1"/>
        <pt x="150" y="0" on="1"/>
        <pt x="83" y="0" on="1"/>
        <pt x="249" y="693" on="1"/>
        <pt x="316" y="693" on="1"/>
        <pt x="353" y="629" on="0"/>
        <pt x="426" y="471" on="0"/>
        <pt x="491" y="310" on="0"/>
        <pt x="540" y="162" on="0"/>
        <pt x="553" y="109" on="1"/>
        <pt x="689" y="693" on="1"/>
        <pt x="756" y="693" on="1"/>
        <pt x="589" y="-9" on="1"/>
        <pt x="578" y="-54" on="0"/>
        <pt x="559" y="-121" on="0"/>
        <pt x="525" y="-165" on="0"/>
        <pt x="465" y="-187" on="0"/>
        <pt x="413" y="-187" on="1"/>
        <pt x="408" y="-187" on="0"/>
        <pt x="393" y="-184" on="0"/>
        <pt x="379" y="-181" on="0"/>
        <pt x="370" y="-177" on="0"/>
        <pt x="371" y="-176" on="1"/>
        <pt x="384" y="-130" on="1"/>
        <pt x="387" y="-132" on="0"/>
        <pt x="409" y="-138" on="0"/>
        <pt x="426" y="-138" on="1"/>
        <pt x="453" y="-138" on="0"/>
        <pt x="486" y="-119" on="0"/>
        <pt x="505" y="-83" on="0"/>
        <pt x="517" y="-32" on="0"/>
      </contour>
    </TTGlyph>
    <TTGlyph name="Eogonek" xMin="83" yMin="-186" xMax="636" yMax="693">
      <contour>
        <pt x="249" y="693" on="1"/>
        <pt x="636" y="693" on="1"/>
        <pt x="623" y="634" on="1"/>
        <pt x="302" y="634" on="1"/>
        <pt x="243" y="393" on="1"/>
        <pt x="529" y="393" on="1"/>
        <pt x="516" y="335" on="1"/>
        <pt x="232" y="335" on="1"/>
        <pt x="163" y="59" on="1"/>
        <pt x="507" y="59" on="1"/>
        <pt x="495" y="0" on="1"/>
        <pt x="439" y="-36" on="0"/>
        <pt x="395" y="-87" on="0"/>
        <pt x="395" y="-107" on="1"/>
        <pt x="395" y="-119" on="0"/>
        <pt x="412" y="-131" on="0"/>
        <pt x="437" y="-135" on="0"/>
        <pt x="463" y="-132" on="0"/>
        <pt x="472" y="-130" on="1"/>
        <pt x="465" y="-179" on="1"/>
        <pt x="451" y="-182" on="0"/>
        <pt x="426" y="-186" on="0"/>
        <pt x="412" y="-186" on="1"/>
        <pt x="396" y="-186" on="0"/>
        <pt x="368" y="-180" on="0"/>
        <pt x="346" y="-165" on="0"/>
        <pt x="333" y="-141" on="0"/>
        <pt x="333" y="-122" on="1"/>
        <pt x="333" y="-104" on="0"/>
        <pt x="351" y="-70" on="0"/>
        <pt x="378" y="-39" on="0"/>
        <pt x="412" y="-11" on="0"/>
        <pt x="428" y="0" on="1"/>
        <pt x="83" y="0" on="1"/>
      </contour>
    </TTGlyph>
    <TTGlyph name="Epsilon" xMin="83" yMin="0" xMax="636" yMax="693">
      <component glyphName="E" x="0" y="0" flags="0x204"/>
    </TTGlyph>
    <TTGlyph name="Epsilontonos" xMin="89" yMin="0" xMax="703" yMax="705">
      <component glyphName="E" x="67" y="0" flags="0x4"/>
      <component glyphName="tonos.cap" x="-156" y="0" flags="0x4"/>
    </TTGlyph>
    <TTGlyph name="Eta" xMin="83" yMin="0" xMax="742" yMax="693">
      <component glyphName="H" x="0" y="0" flags="0x204"/>
    </TTGlyph>
    <TTGlyph name="Etatonos" xMin="89" yMin="0" xMax="806" yMax="705">
      <component glyphName="H" x="64" y="0" flags="0x4"/>
      <component glyphName="tonos.cap" x="-156" y="0" flags="0x4"/>
    </TTGlyph>
    <TTGlyph name="Eth" xMin="93" yMin="-6" xMax="724" yMax="699">
      <contour>
        <pt x="173" y="335" on="1"/>
        <pt x="93" y="335" on="1"/>
        <pt x="106" y="390" on="1"/>
        <pt x="186" y="390" on="1"/>
        <pt x="255" y="680" on="1"/>
        <pt x="304" y="691" on="0"/>
        <pt x="384" y="699" on="0"/>
        <pt x="423" y="699" on="1"/>
        <pt x="567" y="699" on="0"/>
        <pt x="724" y="564" on="0"/>
        <pt x="724" y="426" on="1"/>
        <pt x="724" y="347" on="0"/>
        <pt x="676" y="192" on="0"/>
        <pt x="566" y="70" on="0"/>
        <pt x="389" y="-6" on="0"/>
        <pt x="259" y="-6" on="1"/>
        <pt x="239" y="-6" on="0"/>
        <pt x="194" y="-3" on="0"/>
        <pt x="151" y="1" on="0"/>
        <pt x="111" y="8" on="0"/>
        <pt x="96" y="13" on="1"/>
      </contour>
      <contour>
        <pt x="254" y="390" on="1"/>
        <pt x="385" y="390" on="1"/>
        <pt x="372" y="335" on="1"/>
        <pt x="241" y="335" on="1"/>
        <pt x="175" y="60" on="1"/>
        <pt x="200" y="56" on="0"/>
        <pt x="246" y="53" on="0"/>
        <pt x="269" y="53" on="1"/>
        <pt x="358" y="53" on="0"/>
        <pt x="500" y="106" on="0"/>
        <pt x="599" y="204" on="0"/>
        <pt x="652" y="344" on="0"/>
        <pt x="652" y="430" on="1"/>
        <pt x="652" y="488" on="0"/>
        <pt x="614" y="569" on="0"/>
        <pt x="549" y="619" on="0"/>
        <pt x="463" y="641" on="0"/>
        <pt x="414" y="641" on="1"/>
        <pt x="389" y="641" on="0"/>
        <pt x="338" y="637" on="0"/>
        <pt x="312" y="633" on="1"/>
      </contour>
    </TTGlyph>
    <TTGlyph name="Euro" xMin="99" yMin="-13" xMax="656" yMax="705">
      <contour>
        <pt x="255" y="237" on="1"/>
        <pt x="254" y="227" on="0"/>
        <pt x="254" y="209" on="0"/>
        <pt x="254" y="200" on="1"/>
        <pt x="254" y="173" on="0"/>
        <pt x="262" y="118" on="0"/>
        <pt x="290" y="74" on="0"/>
        <pt x="344" y="46" on="0"/>
        <pt x="390" y="46" on="1"/>
        <pt x="435" y="46" on="0"/>
        <pt x="500" y="61" on="0"/>
        <pt x="523" y="71" on="1"/>
        <pt x="525" y="15" on="1"/>
        <pt x="505" y="7" on="0"/>
        <pt x="423" y="-13" on="0"/>
        <pt x="374" y="-13" on="1"/>
        <pt x="317" y="-13" on="0"/>
        <pt x="243" y="24" on="0"/>
        <pt x="200" y="83" on="0"/>
        <pt x="183" y="156" on="0"/>
        <pt x="183" y="191" on="1"/>
        <pt x="183" y="202" on="0"/>
        <pt x="183" y="226" on="0"/>
        <pt x="184" y="237" on="1"/>
        <pt x="99" y="237" on="1"/>
        <pt x="111" y="290" on="1"/>
        <pt x="188" y="290" on="1"/>
        <pt x="196" y="352" on="0"/>
        <pt x="212" y="409" on="1"/>
        <pt x="140" y="409" on="1"/>
        <pt x="152" y="462" on="1"/>
        <pt x="230" y="462" on="1"/>
        <pt x="251" y="516" on="0"/>
        <pt x="313" y="606" on="0"/>
        <pt x="393" y="670" on="0"/>
        <pt x="491" y="705" on="0"/>
        <pt x="549" y="705" on="1"/>
        <pt x="577" y="705" on="0"/>
        <pt x="625" y="697" on="0"/>
        <pt x="656" y="686" on="1"/>
        <pt x="627" y="628" on="1"/>
        <pt x="585" y="647" on="0"/>
        <pt x="532" y="647" on="1"/>
        <pt x="490" y="647" on="0"/>
        <pt x="420" y="619" on="0"/>
        <pt x="363" y="570" on="0"/>
        <pt x="317" y="502" on="0"/>
        <pt x="301" y="462" on="1"/>
        <pt x="542" y="462" on="1"/>
        <pt x="520" y="409" on="1"/>
        <pt x="282" y="409" on="1"/>
        <pt x="265" y="350" on="0"/>
        <pt x="259" y="290" on="1"/>
        <pt x="467" y="290" on="1"/>
        <pt x="445" y="237" on="1"/>
      </contour>
    </TTGlyph>
    <TTGlyph name="Exclamdown" xMin="134" yMin="0" xMax="374" yMax="705">
      <component glyphName="exclamdown" x="42" y="185" flags="0x214"/>
    </TTGlyph>
    <TTGlyph name="F" xMin="83" yMin="0" xMax="632" yMax="693">
      <contour>
        <pt x="249" y="693" on="1"/>
        <pt x="632" y="693" on="1"/>
        <pt x="619" y="634" on="1"/>
        <pt x="302" y="634" on="1"/>
        <pt x="242" y="390" on="1"/>
        <pt x="525" y="390" on="1"/>
        <pt x="511" y="331" on="1"/>
        <pt x="231" y="331" on="1"/>
        <pt x="151" y="0" on="1"/>
        <pt x="83" y="0" on="1"/>
      </contour>
    </TTGlyph>
    <TTGlyph name="G" xMin="138" yMin="-15" xMax="732" yMax="708">
      <contour>
        <pt x="593" y="324" on="1"/>
        <pt x="661" y="324" on="1"/>
        <pt x="589" y="23" on="1"/>
        <pt x="544" y="5" on="0"/>
        <pt x="448" y="-15" on="0"/>
        <pt x="403" y="-15" on="1"/>
        <pt x="334" y="-15" on="0"/>
        <pt x="233" y="23" on="0"/>
        <pt x="169" y="95" on="0"/>
        <pt x="138" y="196" on="0"/>
        <pt x="138" y="259" on="1"/>
        <pt x="138" y="347" on="0"/>
        <pt x="194" y="509" on="0"/>
        <pt x="298" y="633" on="0"/>
        <pt x="447" y="708" on="0"/>
        <pt x="539" y="708" on="1"/>
        <pt x="584" y="708" on="0"/>
        <pt x="648" y="698" on="0"/>
        <pt x="693" y="684" on="0"/>
        <pt x="721" y="668" on="0"/>
        <pt x="732" y="663" on="1"/>
        <pt x="701" y="601" on="1"/>
        <pt x="698" y="604" on="0"/>
        <pt x="670" y="619" on="0"/>
        <pt x="625" y="635" on="0"/>
        <pt x="566" y="647" on="0"/>
        <pt x="531" y="647" on="1"/>
        <pt x="457" y="647" on="0"/>
        <pt x="338" y="583" on="0"/>
        <pt x="255" y="477" on="0"/>
        <pt x="210" y="338" on="0"/>
        <pt x="210" y="262" on="1"/>
        <pt x="210" y="158" on="0"/>
        <pt x="300" y="46" on="0"/>
        <pt x="400" y="46" on="1"/>
        <pt x="432" y="46" on="0"/>
        <pt x="499" y="57" on="0"/>
        <pt x="534" y="69" on="1"/>
      </contour>
    </TTGlyph>
    <TTGlyph name="Gamma" xMin="83" yMin="0" xMax="617" yMax="693">
      <component glyphName="afii10020" x="0" y="0" flags="0x204"/>
    </TTGlyph>
    <TTGlyph name="Gbreve" xMin="138" yMin="-15" xMax="732" yMax="903">
      <component glyphName="G" x="0" y="0" flags="0x204"/>
      <component glyphName="breve" x="227" y="157" flags="0x4"/>
    </TTGlyph>
    <TTGlyph name="Gcaron" xMin="138" yMin="-15" xMax="732" yMax="919">
      <component glyphName="G" x="0" y="0" flags="0x204"/>
      <component glyphName="caron" x="247" y="156" flags="0x4"/>
    </TTGlyph>
    <TTGlyph name="Gcircumflex" xMin="138" yMin="-15" xMax="732" yMax="914">
      <component glyphName="G" x="0" y="0" flags="0x204"/>
      <component glyphName="circumflex" x="260" y="151" flags="0x4"/>
    </TTGlyph>
    <TTGlyph name="Gcommaaccent" xMin="138" yMin="-191" xMax="732" yMax="708">
      <component glyphName="G" x="0" y="0" flags="0x204"/>
      <component glyphName="commaaccent" x="212" y="0" flags="0x4"/>
    </TTGlyph>
    <TTGlyph name="Gdotaccent" xMin="138" yMin="-15" xMax="732" yMax="880">
      <component glyphName="G" x="0" y="0" flags="0x204"/>
      <component glyphName="dotaccent" x="245" y="154" flags="0x4"/>
    </TTGlyph>
    <TTGlyph name="Guillemotleft" xMin="133" yMin="134" xMax="535" yMax="557">
      <component glyphName="guilsinglleft" x="15" y="62" flags="0x4"/>
      <component glyphName="guilsinglleft" x="192" y="62" flags="0x4"/>
    </TTGlyph>
    <TTGlyph name="Guillemotright" xMin="123" yMin="134" xMax="525" yMax="557">
      <component glyphName="guilsinglright" x="15" y="62" flags="0x4"/>
      <component glyphName="guilsinglright" x="192" y="62" flags="0x4"/>
    </TTGlyph>
    <TTGlyph name="Guilsinglleft" xMin="133" yMin="134" xMax="358" yMax="557">
      <component glyphName="guilsinglleft" x="15" y="62" flags="0x214"/>
    </TTGlyph>
    <TTGlyph name="Guilsinglright" xMin="123" yMin="134" xMax="348" yMax="557">
      <component glyphName="guilsinglright" x="15" y="62" flags="0x214"/>
    </TTGlyph>
    <TTGlyph name="H" xMin="83" yMin="0" xMax="742" yMax="693">
      <contour>
        <pt x="249" y="693" on="1"/>
        <pt x="317" y="693" on="1"/>
        <pt x="243" y="392" on="1"/>
        <pt x="602" y="392" on="1"/>
        <pt x="674" y="693" on="1"/>
        <pt x="742" y="693" on="1"/>
        <pt x="577" y="0" on="1"/>
        <pt x="509" y="0" on="1"/>
        <pt x="589" y="333" on="1"/>
        <pt x="231" y="333" on="1"/>
        <pt x="151" y="0" on="1"/>
        <pt x="83" y="0" on="1"/>
      </contour>
    </TTGlyph>
    <TTGlyph name="Hbar" xMin="93" yMin="0" xMax="804" yMax="693">
      <contour>
        <pt x="220" y="532" on="1"/>
        <pt x="139" y="532" on="1"/>
        <pt x="152" y="586" on="1"/>
        <pt x="233" y="586" on="1"/>
        <pt x="259" y="693" on="1"/>
        <pt x="327" y="693" on="1"/>
        <pt x="300" y="586" on="1"/>
        <pt x="658" y="586" on="1"/>
        <pt x="684" y="693" on="1"/>
        <pt x="752" y="693" on="1"/>
        <pt x="726" y="586" on="1"/>
        <pt x="804" y="586" on="1"/>
        <pt x="791" y="532" on="1"/>
        <pt x="713" y="532" on="1"/>
        <pt x="587" y="0" on="1"/>
        <pt x="519" y="0" on="1"/>
        <pt x="599" y="333" on="1"/>
        <pt x="241" y="333" on="1"/>
        <pt x="161" y="0" on="1"/>
        <pt x="93" y="0" on="1"/>
      </contour>
      <contour>
        <pt x="612" y="392" on="1"/>
        <pt x="645" y="532" on="1"/>
        <pt x="287" y="532" on="1"/>
        <pt x="253" y="392" on="1"/>
      </contour>
    </TTGlyph>
    <TTGlyph name="Hcircumflex" xMin="83" yMin="0" xMax="742" yMax="914">
      <component glyphName="H" x="0" y="0" flags="0x204"/>
      <component glyphName="circumflex" x="214" y="151" flags="0x4"/>
    </TTGlyph>
    <TTGlyph name="Hyphen" xMin="92" yMin="314" xMax="335" yMax="377">
      <component glyphName="hyphen" x="13" y="56" flags="0x214"/>
    </TTGlyph>
    <TTGlyph name="I" xMin="83" yMin="0" xMax="317" yMax="693">
      <contour>
        <pt x="249" y="693" on="1"/>
        <pt x="317" y="693" on="1"/>
        <pt x="152" y="0" on="1"/>
        <pt x="83" y="0" on="1"/>
      </contour>
    </TTGlyph>
    <TTGlyph name="IJ" xMin="88" yMin="-15" xMax="787" yMax="693">
      <component glyphName="I" x="5" y="0" flags="0x4"/>
      <component glyphName="J" x="250" y="0" flags="0x4"/>
    </TTGlyph>
    <TTGlyph name="Iacute" xMin="83" yMin="0" xMax="421" yMax="923">
      <component glyphName="I" x="0" y="0" flags="0x204"/>
      <component glyphName="acute" x="1" y="150" flags="0x4"/>
    </TTGlyph>
    <TTGlyph name="Ibreve" xMin="83" yMin="0" xMax="433" yMax="903">
      <component glyphName="I" x="0" y="0" flags="0x204"/>
      <component glyphName="breve" x="-31" y="157" flags="0x4"/>
    </TTGlyph>
    <TTGlyph name="Icircumflex" xMin="83" yMin="0" xMax="430" yMax="914">
      <component glyphName="I" x="0" y="0" flags="0x204"/>
      <component glyphName="circumflex" x="2" y="151" flags="0x4"/>
    </TTGlyph>
    <TTGlyph name="Idieresis" xMin="83" yMin="0" xMax="448" yMax="875">
      <component glyphName="I" x="0" y="0" flags="0x204"/>
      <component glyphName="dieresis" x="6" y="154" flags="0x4"/>
    </TTGlyph>
    <TTGlyph name="Idotaccent" xMin="83" yMin="0" xMax="358" yMax="880">
      <component glyphName="I" x="0" y="0" flags="0x204"/>
      <component glyphName="dotaccent" x="-13" y="154" flags="0x4"/>
    </TTGlyph>
    <TTGlyph name="Igrave" xMin="83" yMin="0" xMax="364" yMax="923">
      <component glyphName="I" x="0" y="0" flags="0x204"/>
      <component glyphName="grave" x="-48" y="150" flags="0x4"/>
    </TTGlyph>
    <TTGlyph name="Imacron" xMin="83" yMin="0" xMax="445" yMax="861">
      <component glyphName="I" x="0" y="0" flags="0x204"/>
      <component glyphName="macron" x="-3" y="157" flags="0x4"/>
    </TTGlyph>
    <TTGlyph name="Iogonek" xMin="-10" yMin="-186" xMax="317" yMax="693">
      <contour>
        <pt x="249" y="693" on="1"/>
        <pt x="317" y="693" on="1"/>
        <pt x="152" y="0" on="1"/>
        <pt x="96" y="-36" on="0"/>
        <pt x="52" y="-87" on="0"/>
        <pt x="52" y="-107" on="1"/>
        <pt x="52" y="-119" on="0"/>
        <pt x="69" y="-131" on="0"/>
        <pt x="94" y="-135" on="0"/>
        <pt x="120" y="-132" on="0"/>
        <pt x="129" y="-130" on="1"/>
        <pt x="122" y="-179" on="1"/>
        <pt x="108" y="-182" on="0"/>
        <pt x="83" y="-186" on="0"/>
        <pt x="69" y="-186" on="1"/>
        <pt x="53" y="-186" on="0"/>
        <pt x="25" y="-180" on="0"/>
        <pt x="3" y="-165" on="0"/>
        <pt x="-10" y="-141" on="0"/>
        <pt x="-10" y="-122" on="1"/>
        <pt x="-10" y="-104" on="0"/>
        <pt x="8" y="-70" on="0"/>
        <pt x="35" y="-39" on="0"/>
        <pt x="69" y="-11" on="0"/>
        <pt x="85" y="0" on="1"/>
        <pt x="83" y="0" on="1"/>
      </contour>
    </TTGlyph>
    <TTGlyph name="Iota" xMin="83" yMin="0" xMax="317" yMax="693">
      <component glyphName="I" x="0" y="0" flags="0x204"/>
    </TTGlyph>
    <TTGlyph name="Iotadieresis" xMin="83" yMin="0" xMax="458" yMax="875">
      <component glyphName="I" x="0" y="0" flags="0x204"/>
      <component glyphName="dieresis" x="16" y="154" flags="0x4"/>
    </TTGlyph>
    <TTGlyph name="Iotatonos" xMin="89" yMin="0" xMax="389" yMax="705">
      <component glyphName="I" x="72" y="0" flags="0x4"/>
      <component glyphName="tonos.cap" x="-156" y="0" flags="0x4"/>
    </TTGlyph>
    <TTGlyph name="Itilde" xMin="83" yMin="0" xMax="478" yMax="880">
      <component glyphName="I" x="0" y="0" flags="0x204"/>
      <component glyphName="tilde" x="-23" y="152" flags="0x4"/>
    </TTGlyph>
    <TTGlyph name="J" xMin="18" yMin="-15" xMax="537" yMax="693">
      <contour>
        <pt x="53" y="95" on="1"/>
        <pt x="68" y="80" on="0"/>
        <pt x="138" y="46" on="0"/>
        <pt x="186" y="46" on="1"/>
        <pt x="213" y="46" on="0"/>
        <pt x="261" y="57" on="0"/>
        <pt x="303" y="89" on="0"/>
        <pt x="337" y="148" on="0"/>
        <pt x="349" y="196" on="1"/>
        <pt x="469" y="693" on="1"/>
        <pt x="537" y="693" on="1"/>
        <pt x="417" y="188" on="1"/>
        <pt x="403" y="128" on="0"/>
        <pt x="357" y="50" on="0"/>
        <pt x="297" y="3" on="0"/>
        <pt x="224" y="-15" on="0"/>
        <pt x="183" y="-15" on="1"/>
        <pt x="131" y="-15" on="0"/>
        <pt x="48" y="17" on="0"/>
        <pt x="18" y="43" on="1"/>
      </contour>
    </TTGlyph>
    <TTGlyph name="Jcircumflex" xMin="18" yMin="-15" xMax="654" yMax="914">
      <component glyphName="J" x="0" y="0" flags="0x204"/>
      <component glyphName="circumflex" x="226" y="151" flags="0x4"/>
    </TTGlyph>
    <TTGlyph name="K" xMin="83" yMin="0" xMax="724" yMax="693">
      <contour>
        <pt x="249" y="693" on="1"/>
        <pt x="316" y="693" on="1"/>
        <pt x="240" y="374" on="1"/>
        <pt x="289" y="409" on="0"/>
        <pt x="404" y="499" on="0"/>
        <pt x="514" y="589" on="0"/>
        <pt x="607" y="668" on="0"/>
        <pt x="634" y="693" on="1"/>
        <pt x="724" y="693" on="1"/>
        <pt x="691" y="663" on="0"/>
        <pt x="589" y="577" on="0"/>
        <pt x="475" y="485" on="0"/>
        <pt x="360" y="394" on="0"/>
        <pt x="314" y="358" on="1"/>
        <pt x="350" y="331" on="0"/>
        <pt x="428" y="244" on="0"/>
        <pt x="501" y="144" on="0"/>
        <pt x="563" y="42" on="0"/>
        <pt x="581" y="0" on="1"/>
        <pt x="507" y="0" on="1"/>
        <pt x="449" y="112" on="0"/>
        <pt x="316" y="288" on="0"/>
        <pt x="233" y="348" on="1"/>
        <pt x="151" y="0" on="1"/>
        <pt x="83" y="0" on="1"/>
      </contour>
    </TTGlyph>
    <TTGlyph name="Kappa" xMin="83" yMin="0" xMax="724" yMax="693">
      <component glyphName="K" x="0" y="0" flags="0x204"/>
    </TTGlyph>
    <TTGlyph name="Kcommaaccent" xMin="83" yMin="-191" xMax="724" yMax="693">
      <component glyphName="K" x="0" y="0" flags="0x204"/>
      <component glyphName="commaaccent" x="167" y="0" flags="0x4"/>
    </TTGlyph>
    <TTGlyph name="L" xMin="83" yMin="0" xMax="471" yMax="693">
      <contour>
        <pt x="248" y="693" on="1"/>
        <pt x="316" y="693" on="1"/>
        <pt x="164" y="58" on="1"/>
        <pt x="471" y="58" on="1"/>
        <pt x="458" y="0" on="1"/>
        <pt x="83" y="0" on="1"/>
      </contour>
    </TTGlyph>
    <TTGlyph name="Lacute" xMin="83" yMin="0" xMax="471" yMax="923">
      <component glyphName="L" x="0" y="0" flags="0x204"/>
      <component glyphName="acute" x="29" y="150" flags="0x4"/>
    </TTGlyph>
    <TTGlyph name="Lambda" xMin="20" yMin="0" xMax="604" yMax="693">
      <contour>
        <pt x="20" y="0" on="1"/>
        <pt x="126" y="202" on="0"/>
        <pt x="337" y="543" on="0"/>
        <pt x="440" y="693" on="1"/>
        <pt x="513" y="693" on="1"/>
        <pt x="525" y="623" on="0"/>
        <pt x="549" y="475" on="0"/>
        <pt x="571" y="308" on="0"/>
        <pt x="593" y="115" on="0"/>
        <pt x="604" y="0" on="1"/>
        <pt x="534" y="0" on="1"/>
        <pt x="517" y="177" on="0"/>
        <pt x="481" y="489" on="0"/>
        <pt x="459" y="614" on="1"/>
        <pt x="367" y="480" on="0"/>
        <pt x="176" y="169" on="0"/>
        <pt x="94" y="0" on="1"/>
      </contour>
    </TTGlyph>
    <TTGlyph name="Lcaron" xMin="83" yMin="0" xMax="477" yMax="694">
      <component glyphName="L" x="0" y="0" flags="0x204"/>
      <component glyphName="caron.alt" x="70" y="-82" flags="0x4"/>
    </TTGlyph>
    <TTGlyph name="Lcommaaccent" xMin="83" yMin="-191" xMax="471" yMax="693">
      <component glyphName="L" x="0" y="0" flags="0x204"/>
      <component glyphName="commaaccent" x="127" y="0" flags="0x4"/>
    </TTGlyph>
    <TTGlyph name="Ldot" xMin="83" yMin="0" xMax="489" yMax="693">
      <component glyphName="L" x="0" y="0" flags="0x4"/>
      <component glyphName="dotaccent" x="118" y="-330" flags="0x4"/>
    </TTGlyph>
    <TTGlyph name="Lslash" xMin="86" yMin="0" xMax="504" yMax="693">
      <contour>
        <pt x="187" y="298" on="1"/>
        <pt x="100" y="259" on="1"/>
        <pt x="86" y="315" on="1"/>
        <pt x="203" y="368" on="1"/>
        <pt x="281" y="693" on="1"/>
        <pt x="349" y="693" on="1"/>
        <pt x="279" y="402" on="1"/>
        <pt x="406" y="459" on="1"/>
        <pt x="420" y="403" on="1"/>
        <pt x="262" y="332" on="1"/>
        <pt x="197" y="58" on="1"/>
        <pt x="504" y="58" on="1"/>
        <pt x="491" y="0" on="1"/>
        <pt x="116" y="0" on="1"/>
      </contour>
    </TTGlyph>
    <TTGlyph name="M" xMin="68" yMin="0" xMax="873" yMax="693">
      <contour>
        <pt x="68" y="0" on="1"/>
        <pt x="119" y="187" on="0"/>
        <pt x="230" y="537" on="0"/>
        <pt x="281" y="693" on="1"/>
        <pt x="349" y="693" on="1"/>
        <pt x="364" y="633" on="0"/>
        <pt x="395" y="497" on="0"/>
        <pt x="423" y="360" on="0"/>
        <pt x="446" y="231" on="0"/>
        <pt x="454" y="178" on="1"/>
        <pt x="491" y="235" on="0"/>
        <pt x="583" y="374" on="0"/>
        <pt x="677" y="514" on="0"/>
        <pt x="767" y="644" on="0"/>
        <pt x="803" y="693" on="1"/>
        <pt x="873" y="693" on="1"/>
        <pt x="864" y="602" on="0"/>
        <pt x="840" y="429" on="0"/>
        <pt x="813" y="259" on="0"/>
        <pt x="782" y="88" on="0"/>
        <pt x="765" y="0" on="1"/>
        <pt x="695" y="0" on="1"/>
        <pt x="730" y="163" on="0"/>
        <pt x="781" y="459" on="0"/>
        <pt x="800" y="591" on="1"/>
        <pt x="785" y="572" on="0"/>
        <pt x="732" y="497" on="0"/>
        <pt x="668" y="403" on="0"/>
        <pt x="599" y="299" on="0"/>
        <pt x="535" y="202" on="0"/>
        <pt x="483" y="123" on="0"/>
        <pt x="469" y="100" on="1"/>
        <pt x="409" y="100" on="1"/>
        <pt x="405" y="128" on="0"/>
        <pt x="391" y="210" on="0"/>
        <pt x="374" y="304" on="0"/>
        <pt x="355" y="404" on="0"/>
        <pt x="336" y="495" on="0"/>
        <pt x="319" y="569" on="0"/>
        <pt x="313" y="592" on="1"/>
        <pt x="269" y="460" on="0"/>
        <pt x="179" y="158" on="0"/>
        <pt x="136" y="0" on="1"/>
      </contour>
    </TTGlyph>
    <TTGlyph name="Mu" xMin="68" yMin="0" xMax="873" yMax="693">
      <component glyphName="M" x="0" y="0" flags="0x204"/>
    </TTGlyph>
    <TTGlyph name="N" xMin="83" yMin="0" xMax="756" yMax="693">
      <contour>
        <pt x="249" y="693" on="1"/>
        <pt x="316" y="693" on="1"/>
        <pt x="353" y="629" on="0"/>
        <pt x="426" y="471" on="0"/>
        <pt x="491" y="310" on="0"/>
        <pt x="540" y="162" on="0"/>
        <pt x="553" y="109" on="1"/>
        <pt x="689" y="693" on="1"/>
        <pt x="756" y="693" on="1"/>
        <pt x="592" y="0" on="1"/>
        <pt x="525" y="0" on="1"/>
        <pt x="507" y="61" on="0"/>
        <pt x="453" y="224" on="0"/>
        <pt x="390" y="392" on="0"/>
        <pt x="324" y="547" on="0"/>
        <pt x="294" y="601" on="1"/>
        <pt x="150" y="0" on="1"/>
        <pt x="83" y="0" on="1"/>
      </contour>
    </TTGlyph>
    <TTGlyph name="Nacute" xMin="83" yMin="0" xMax="756" yMax="923">
      <component glyphName="N" x="0" y="0" flags="0x204"/>
      <component glyphName="acute" x="228" y="150" flags="0x4"/>
    </TTGlyph>
    <TTGlyph name="Ncaron" xMin="83" yMin="0" xMax="756" yMax="916">
      <component glyphName="N" x="0" y="0" flags="0x204"/>
      <component glyphName="caron" x="209" y="153" flags="0x4"/>
    </TTGlyph>
    <TTGlyph name="Ncommaaccent" xMin="83" yMin="-191" xMax="756" yMax="693">
      <component glyphName="N" x="0" y="0" flags="0x204"/>
      <component glyphName="commaaccent" x="172" y="0" flags="0x4"/>
    </TTGlyph>
    <TTGlyph name="Ntilde" xMin="83" yMin="0" xMax="756" yMax="880">
      <component glyphName="N" x="0" y="0" flags="0x204"/>
      <component glyphName="tilde" x="196" y="152" flags="0x4"/>
    </TTGlyph>
    <TTGlyph name="Nu" xMin="83" yMin="0" xMax="756" yMax="693">
      <component glyphName="N" x="0" y="0" flags="0x204"/>
    </TTGlyph>
    <TTGlyph name="O" xMin="138" yMin="-15" xMax="780" yMax="708">
      <contour>
        <pt x="138" y="258" on="1"/>
        <pt x="138" y="361" on="0"/>
        <pt x="206" y="528" on="0"/>
        <pt x="318" y="645" on="0"/>
        <pt x="459" y="708" on="0"/>
        <pt x="533" y="708" on="1"/>
        <pt x="582" y="708" on="0"/>
        <pt x="672" y="675" on="0"/>
        <pt x="740" y="608" on="0"/>
        <pt x="780" y="505" on="0"/>
        <pt x="780" y="436" on="1"/>
        <pt x="780" y="332" on="0"/>
        <pt x="712" y="165" on="0"/>
        <pt x="600" y="48" on="0"/>
        <pt x="458" y="-15" on="0"/>
        <pt x="385" y="-15" on="1"/>
        <pt x="335" y="-15" on="0"/>
        <pt x="246" y="18" on="0"/>
        <pt x="178" y="85" on="0"/>
        <pt x="138" y="188" on="0"/>
      </contour>
      <contour>
        <pt x="210" y="247" on="1"/>
        <pt x="210" y="196" on="0"/>
        <pt x="238" y="120" on="0"/>
        <pt x="288" y="71" on="0"/>
        <pt x="353" y="46" on="0"/>
        <pt x="391" y="46" on="1"/>
        <pt x="452" y="46" on="0"/>
        <pt x="566" y="99" on="0"/>
        <pt x="654" y="201" on="0"/>
        <pt x="708" y="350" on="0"/>
        <pt x="708" y="446" on="1"/>
        <pt x="708" y="497" on="0"/>
        <pt x="680" y="573" on="0"/>
        <pt x="630" y="622" on="0"/>
        <pt x="564" y="647" on="0"/>
        <pt x="527" y="647" on="1"/>
        <pt x="466" y="647" on="0"/>
        <pt x="352" y="594" on="0"/>
        <pt x="263" y="492" on="0"/>
        <pt x="210" y="343" on="0"/>
      </contour>
    </TTGlyph>
    <TTGlyph name="OE" xMin="138" yMin="-8" xMax="1060" yMax="700">
      <contour>
        <pt x="544" y="0" on="1"/>
        <pt x="516" y="-4" on="0"/>
        <pt x="463" y="-8" on="0"/>
        <pt x="437" y="-8" on="1"/>
        <pt x="284" y="-8" on="0"/>
        <pt x="138" y="133" on="0"/>
        <pt x="138" y="277" on="1"/>
        <pt x="138" y="366" on="0"/>
        <pt x="198" y="520" on="0"/>
        <pt x="317" y="634" on="0"/>
        <pt x="491" y="700" on="0"/>
        <pt x="605" y="700" on="1"/>
        <pt x="628" y="700" on="0"/>
        <pt x="674" y="696" on="0"/>
        <pt x="698" y="693" on="1"/>
        <pt x="1060" y="693" on="1"/>
        <pt x="1047" y="634" on="1"/>
        <pt x="741" y="634" on="1"/>
        <pt x="682" y="393" on="1"/>
        <pt x="953" y="393" on="1"/>
        <pt x="940" y="335" on="1"/>
        <pt x="671" y="335" on="1"/>
        <pt x="602" y="59" on="1"/>
        <pt x="931" y="59" on="1"/>
        <pt x="919" y="0" on="1"/>
      </contour>
      <contour>
        <pt x="434" y="53" on="1"/>
        <pt x="459" y="53" on="0"/>
        <pt x="510" y="57" on="0"/>
        <pt x="536" y="60" on="1"/>
        <pt x="674" y="636" on="1"/>
        <pt x="656" y="638" on="0"/>
        <pt x="620" y="640" on="0"/>
        <pt x="603" y="640" on="1"/>
        <pt x="507" y="640" on="0"/>
        <pt x="360" y="588" on="0"/>
        <pt x="261" y="492" on="0"/>
        <pt x="210" y="359" on="0"/>
        <pt x="210" y="278" on="1"/>
        <pt x="210" y="157" on="0"/>
        <pt x="319" y="53" on="0"/>
      </contour>
    </TTGlyph>
    <TTGlyph name="Oacute" xMin="138" yMin="-15" xMax="780" yMax="923">
      <component glyphName="O" x="0" y="0" flags="0x204"/>
      <component glyphName="acute" x="270" y="150" flags="0x4"/>
    </TTGlyph>
    <TTGlyph name="Obreve" xMin="138" yMin="-15" xMax="780" yMax="903">
      <component glyphName="O" x="0" y="0" flags="0x204"/>
      <component glyphName="breve" x="242" y="157" flags="0x4"/>
    </TTGlyph>
    <TTGlyph name="Ocircumflex" xMin="138" yMin="-15" xMax="780" yMax="914">
      <component glyphName="O" x="0" y="0" flags="0x204"/>
      <component glyphName="circumflex" x="259" y="151" flags="0x4"/>
    </TTGlyph>
    <TTGlyph name="Odieresis" xMin="138" yMin="-15" xMax="780" yMax="875">
      <component glyphName="O" x="0" y="0" flags="0x204"/>
      <component glyphName="dieresis" x="284" y="154" flags="0x4"/>
    </TTGlyph>
    <TTGlyph name="Ograve" xMin="138" yMin="-15" xMax="780" yMax="923">
      <component glyphName="O" x="0" y="0" flags="0x204"/>
      <component glyphName="grave" x="214" y="150" flags="0x4"/>
    </TTGlyph>
    <TTGlyph name="Ohorn" xMin="138" yMin="-15" xMax="862" yMax="801">
      <contour>
        <pt x="138" y="258" on="1"/>
        <pt x="138" y="361" on="0"/>
        <pt x="206" y="528" on="0"/>
        <pt x="318" y="645" on="0"/>
        <pt x="459" y="708" on="0"/>
        <pt x="533" y="708" on="1"/>
        <pt x="584" y="708" on="0"/>
        <pt x="674" y="673" on="0"/>
        <pt x="709" y="638" on="1"/>
        <pt x="735" y="654" on="0"/>
        <pt x="768" y="699" on="0"/>
        <pt x="788" y="744" on="0"/>
        <pt x="796" y="786" on="0"/>
        <pt x="797" y="801" on="1"/>
        <pt x="862" y="801" on="1"/>
        <pt x="860" y="774" on="0"/>
        <pt x="841" y="716" on="0"/>
        <pt x="808" y="661" on="0"/>
        <pt x="764" y="614" on="0"/>
        <pt x="739" y="599" on="1"/>
        <pt x="758" y="567" on="0"/>
        <pt x="780" y="487" on="0"/>
        <pt x="780" y="436" on="1"/>
        <pt x="780" y="332" on="0"/>
        <pt x="712" y="165" on="0"/>
        <pt x="600" y="48" on="0"/>
        <pt x="458" y="-15" on="0"/>
        <pt x="385" y="-15" on="1"/>
        <pt x="335" y="-15" on="0"/>
        <pt x="246" y="18" on="0"/>
        <pt x="178" y="85" on="0"/>
        <pt x="138" y="188" on="0"/>
      </contour>
      <contour>
        <pt x="210" y="247" on="1"/>
        <pt x="210" y="196" on="0"/>
        <pt x="238" y="120" on="0"/>
        <pt x="288" y="71" on="0"/>
        <pt x="353" y="46" on="0"/>
        <pt x="391" y="46" on="1"/>
        <pt x="452" y="46" on="0"/>
        <pt x="566" y="99" on="0"/>
        <pt x="654" y="201" on="0"/>
        <pt x="708" y="350" on="0"/>
        <pt x="708" y="446" on="1"/>
        <pt x="708" y="497" on="0"/>
        <pt x="680" y="573" on="0"/>
        <pt x="630" y="622" on="0"/>
        <pt x="564" y="647" on="0"/>
        <pt x="527" y="647" on="1"/>
        <pt x="466" y="647" on="0"/>
        <pt x="352" y="594" on="0"/>
        <pt x="263" y="492" on="0"/>
        <pt x="210" y="343" on="0"/>
      </contour>
    </TTGlyph>
    <TTGlyph name="Ohungarumlaut" xMin="138" yMin="-15" xMax="784" yMax="926">
      <component glyphName="O" x="0" y="0" flags="0x204"/>
      <component glyphName="hungarumlaut" x="281" y="153" flags="0x4"/>
    </TTGlyph>
    <TTGlyph name="Omacron" xMin="138" yMin="-15" xMax="780" yMax="861">
      <component glyphName="O" x="0" y="0" flags="0x204"/>
      <component glyphName="macron" x="250" y="157" flags="0x4"/>
    </TTGlyph>
    <TTGlyph name="Omega" xMin="48" yMin="0" xMax="764" yMax="708">
      <contour>
        <pt x="48" y="0" on="1"/>
        <pt x="63" y="58" on="1"/>
        <pt x="229" y="58" on="1"/>
        <pt x="202" y="91" on="0"/>
        <pt x="166" y="156" on="0"/>
        <pt x="146" y="219" on="0"/>
        <pt x="138" y="282" on="0"/>
        <pt x="138" y="315" on="1"/>
        <pt x="138" y="409" on="0"/>
        <pt x="204" y="555" on="0"/>
        <pt x="311" y="656" on="0"/>
        <pt x="448" y="708" on="0"/>
        <pt x="519" y="708" on="1"/>
        <pt x="582" y="708" on="0"/>
        <pt x="674" y="668" on="0"/>
        <pt x="734" y="600" on="0"/>
        <pt x="764" y="508" on="0"/>
        <pt x="764" y="456" on="1"/>
        <pt x="764" y="406" on="0"/>
        <pt x="736" y="299" on="0"/>
        <pt x="680" y="194" on="0"/>
        <pt x="596" y="98" on="0"/>
        <pt x="539" y="58" on="1"/>
        <pt x="693" y="58" on="1"/>
        <pt x="679" y="0" on="1"/>
        <pt x="426" y="0" on="1"/>
        <pt x="439" y="51" on="1"/>
        <pt x="506" y="92" on="0"/>
        <pt x="602" y="192" on="0"/>
        <pt x="664" y="298" on="0"/>
        <pt x="692" y="405" on="0"/>
        <pt x="692" y="453" on="1"/>
        <pt x="692" y="493" on="0"/>
        <pt x="672" y="564" on="0"/>
        <pt x="628" y="617" on="0"/>
        <pt x="559" y="647" on="0"/>
        <pt x="510" y="647" on="1"/>
        <pt x="454" y="647" on="0"/>
        <pt x="347" y="602" on="0"/>
        <pt x="262" y="515" on="0"/>
        <pt x="210" y="387" on="0"/>
        <pt x="210" y="305" on="1"/>
        <pt x="210" y="277" on="0"/>
        <pt x="219" y="214" on="0"/>
        <pt x="243" y="148" on="0"/>
        <pt x="283" y="81" on="0"/>
        <pt x="315" y="51" on="1"/>
        <pt x="303" y="0" on="1"/>
      </contour>
    </TTGlyph>
    <TTGlyph name="Omegatonos" xMin="88" yMin="0" xMax="804" yMax="708">
      <component glyphName="Omega" x="40" y="0" flags="0x4"/>
      <component glyphName="tonos.cap" x="-155" y="0" flags="0x4"/>
    </TTGlyph>
    <TTGlyph name="Omicron" xMin="138" yMin="-15" xMax="780" yMax="708">
      <component glyphName="O" x="0" y="0" flags="0x204"/>
    </TTGlyph>
    <TTGlyph name="Omicrontonos" xMin="89" yMin="-15" xMax="806" yMax="708">
      <component glyphName="O" x="26" y="0" flags="0x4"/>
      <component glyphName="tonos.cap" x="-156" y="0" flags="0x4"/>
    </TTGlyph>
    <TTGlyph name="Oslash" xMin="124" yMin="-29" xMax="797" yMax="726">
      <contour>
        <pt x="138" y="258" on="1"/>
        <pt x="138" y="361" on="0"/>
        <pt x="206" y="528" on="0"/>
        <pt x="318" y="645" on="0"/>
        <pt x="459" y="708" on="0"/>
        <pt x="533" y="708" on="1"/>
        <pt x="578" y="708" on="0"/>
        <pt x="659" y="681" on="0"/>
        <pt x="692" y="654" on="1"/>
        <pt x="755" y="726" on="1"/>
        <pt x="797" y="690" on="1"/>
        <pt x="730" y="613" on="1"/>
        <pt x="753" y="580" on="0"/>
        <pt x="780" y="493" on="0"/>
        <pt x="780" y="436" on="1"/>
        <pt x="780" y="332" on="0"/>
        <pt x="712" y="165" on="0"/>
        <pt x="600" y="48" on="0"/>
        <pt x="458" y="-15" on="0"/>
        <pt x="385" y="-15" on="1"/>
        <pt x="340" y="-15" on="0"/>
        <pt x="259" y="11" on="0"/>
        <pt x="226" y="38" on="1"/>
        <pt x="167" y="-29" on="1"/>
        <pt x="124" y="8" on="1"/>
        <pt x="187" y="80" on="1"/>
        <pt x="164" y="113" on="0"/>
        <pt x="138" y="201" on="0"/>
      </contour>
      <contour>
        <pt x="708" y="446" on="1"/>
        <pt x="708" y="512" on="0"/>
        <pt x="683" y="559" on="1"/>
        <pt x="270" y="88" on="1"/>
        <pt x="318" y="46" on="0"/>
        <pt x="391" y="46" on="1"/>
        <pt x="452" y="46" on="0"/>
        <pt x="566" y="99" on="0"/>
        <pt x="654" y="201" on="0"/>
        <pt x="708" y="350" on="0"/>
      </contour>
      <contour>
        <pt x="210" y="247" on="1"/>
        <pt x="210" y="179" on="0"/>
        <pt x="234" y="134" on="1"/>
        <pt x="648" y="604" on="1"/>
        <pt x="624" y="626" on="0"/>
        <pt x="562" y="647" on="0"/>
        <pt x="527" y="647" on="1"/>
        <pt x="466" y="647" on="0"/>
        <pt x="352" y="594" on="0"/>
        <pt x="263" y="492" on="0"/>
        <pt x="210" y="343" on="0"/>
      </contour>
    </TTGlyph>
    <TTGlyph name="Oslashacute" xMin="124" yMin="-29" xMax="797" yMax="929">
      <component glyphName="Oslash" x="0" y="0" flags="0x204"/>
      <component glyphName="acute" x="265" y="156" flags="0x4"/>
    </TTGlyph>
    <TTGlyph name="Otilde" xMin="138" yMin="-15" xMax="780" yMax="880">
      <component glyphName="O" x="0" y="0" flags="0x204"/>
      <component glyphName="tilde" x="228" y="152" flags="0x4"/>
    </TTGlyph>
    <TTGlyph name="P" xMin="83" yMin="0" xMax="647" yMax="699">
      <contour>
        <pt x="246" y="680" on="1"/>
        <pt x="284" y="688" on="0"/>
        <pt x="371" y="699" on="0"/>
        <pt x="416" y="699" on="1"/>
        <pt x="535" y="699" on="0"/>
        <pt x="647" y="609" on="0"/>
        <pt x="647" y="524" on="1"/>
        <pt x="647" y="468" on="0"/>
        <pt x="602" y="374" on="0"/>
        <pt x="517" y="306" on="0"/>
        <pt x="391" y="268" on="0"/>
        <pt x="310" y="268" on="1"/>
        <pt x="216" y="268" on="1"/>
        <pt x="151" y="0" on="1"/>
        <pt x="83" y="0" on="1"/>
      </contour>
      <contour>
        <pt x="319" y="327" on="1"/>
        <pt x="441" y="327" on="0"/>
        <pt x="575" y="427" on="0"/>
        <pt x="575" y="515" on="1"/>
        <pt x="575" y="580" on="0"/>
        <pt x="491" y="640" on="0"/>
        <pt x="401" y="640" on="1"/>
        <pt x="375" y="640" on="0"/>
        <pt x="324" y="635" on="0"/>
        <pt x="303" y="633" on="1"/>
        <pt x="229" y="327" on="1"/>
      </contour>
    </TTGlyph>
    <TTGlyph name="Parenleft" xMin="138" yMin="-135" xMax="484" yMax="827">
      <component glyphName="parenleft" x="10" y="44" flags="0x214"/>
    </TTGlyph>
    <TTGlyph name="Parenright" xMin="-11" yMin="-137" xMax="335" yMax="828">
      <component glyphName="parenright" x="11" y="49" flags="0x214"/>
    </TTGlyph>
    <TTGlyph name="Phi" xMin="128" yMin="0" xMax="848" yMax="738">
      <contour>
        <pt x="465" y="142" on="1"/>
        <pt x="539" y="144" on="0"/>
        <pt x="656" y="196" on="0"/>
        <pt x="737" y="277" on="0"/>
        <pt x="780" y="377" on="0"/>
        <pt x="780" y="428" on="1"/>
        <pt x="780" y="509" on="0"/>
        <pt x="676" y="600" on="0"/>
        <pt x="575" y="600" on="1"/>
      </contour>
      <contour>
        <pt x="509" y="600" on="1"/>
        <pt x="436" y="600" on="0"/>
        <pt x="320" y="548" on="0"/>
        <pt x="239" y="465" on="0"/>
        <pt x="196" y="363" on="0"/>
        <pt x="196" y="313" on="1"/>
        <pt x="196" y="275" on="0"/>
        <pt x="220" y="212" on="0"/>
        <pt x="269" y="167" on="0"/>
        <pt x="346" y="142" on="0"/>
        <pt x="399" y="142" on="1"/>
      </contour>
      <contour>
        <pt x="365" y="0" on="1"/>
        <pt x="386" y="86" on="1"/>
        <pt x="320" y="86" on="0"/>
        <pt x="223" y="123" on="0"/>
        <pt x="159" y="186" on="0"/>
        <pt x="128" y="270" on="0"/>
        <pt x="128" y="317" on="1"/>
        <pt x="128" y="377" on="0"/>
        <pt x="179" y="497" on="0"/>
        <pt x="278" y="595" on="0"/>
        <pt x="426" y="656" on="0"/>
        <pt x="522" y="656" on="1"/>
        <pt x="542" y="738" on="1"/>
        <pt x="608" y="738" on="1"/>
        <pt x="588" y="656" on="1"/>
        <pt x="656" y="652" on="0"/>
        <pt x="755" y="616" on="0"/>
        <pt x="818" y="556" on="0"/>
        <pt x="848" y="477" on="0"/>
        <pt x="848" y="430" on="1"/>
        <pt x="848" y="365" on="0"/>
        <pt x="791" y="240" on="0"/>
        <pt x="687" y="142" on="0"/>
        <pt x="541" y="84" on="0"/>
        <pt x="452" y="86" on="1"/>
        <pt x="431" y="0" on="1"/>
      </contour>
    </TTGlyph>
    <TTGlyph name="Pi" xMin="83" yMin="0" xMax="727" yMax="693">
      <contour>
        <pt x="249" y="693" on="1"/>
        <pt x="727" y="693" on="1"/>
        <pt x="560" y="0" on="1"/>
        <pt x="492" y="0" on="1"/>
        <pt x="645" y="634" on="1"/>
        <pt x="303" y="634" on="1"/>
        <pt x="151" y="0" on="1"/>
        <pt x="83" y="0" on="1"/>
      </contour>
    </TTGlyph>
    <TTGlyph name="Psi" xMin="134" yMin="0" xMax="855" yMax="693">
      <contour>
        <pt x="374" y="183" on="1"/>
        <pt x="234" y="193" on="0"/>
        <pt x="134" y="345" on="0"/>
        <pt x="166" y="480" on="1"/>
        <pt x="216" y="693" on="1"/>
        <pt x="284" y="693" on="1"/>
        <pt x="234" y="490" on="1"/>
        <pt x="219" y="431" on="0"/>
        <pt x="218" y="341" on="0"/>
        <pt x="254" y="279" on="0"/>
        <pt x="329" y="247" on="0"/>
        <pt x="391" y="246" on="1"/>
        <pt x="497" y="693" on="1"/>
        <pt x="565" y="693" on="1"/>
        <pt x="458" y="246" on="1"/>
        <pt x="518" y="246" on="0"/>
        <pt x="609" y="273" on="0"/>
        <pt x="675" y="329" on="0"/>
        <pt x="720" y="414" on="0"/>
        <pt x="734" y="472" on="1"/>
        <pt x="788" y="693" on="1"/>
        <pt x="855" y="693" on="1"/>
        <pt x="800" y="462" on="1"/>
        <pt x="786" y="405" on="0"/>
        <pt x="739" y="304" on="0"/>
        <pt x="657" y="228" on="0"/>
        <pt x="533" y="183" on="0"/>
        <pt x="442" y="183" on="1"/>
        <pt x="398" y="0" on="1"/>
        <pt x="330" y="0" on="1"/>
      </contour>
    </TTGlyph>
    <TTGlyph name="Q" xMin="138" yMin="-184" xMax="780" yMax="708">
      <contour>
        <pt x="138" y="258" on="1"/>
        <pt x="138" y="361" on="0"/>
        <pt x="206" y="528" on="0"/>
        <pt x="318" y="645" on="0"/>
        <pt x="459" y="708" on="0"/>
        <pt x="533" y="708" on="1"/>
        <pt x="582" y="708" on="0"/>
        <pt x="672" y="675" on="0"/>
        <pt x="740" y="608" on="0"/>
        <pt x="780" y="505" on="0"/>
        <pt x="780" y="436" on="1"/>
        <pt x="780" y="338" on="0"/>
        <pt x="719" y="178" on="0"/>
        <pt x="618" y="62" on="0"/>
        <pt x="488" y="-6" on="0"/>
        <pt x="419" y="-13" on="1"/>
        <pt x="416" y="-22" on="0"/>
        <pt x="416" y="-30" on="1"/>
        <pt x="416" y="-50" on="0"/>
        <pt x="448" y="-81" on="0"/>
        <pt x="502" y="-105" on="0"/>
        <pt x="571" y="-122" on="0"/>
        <pt x="608" y="-128" on="1"/>
        <pt x="582" y="-184" on="1"/>
        <pt x="547" y="-180" on="0"/>
        <pt x="466" y="-162" on="0"/>
        <pt x="397" y="-129" on="0"/>
        <pt x="351" y="-78" on="0"/>
        <pt x="351" y="-39" on="1"/>
        <pt x="351" y="-33" on="0"/>
        <pt x="351" y="-20" on="0"/>
        <pt x="353" y="-13" on="1"/>
        <pt x="309" y="-8" on="0"/>
        <pt x="230" y="30" on="0"/>
        <pt x="172" y="97" on="0"/>
        <pt x="138" y="194" on="0"/>
      </contour>
      <contour>
        <pt x="210" y="247" on="1"/>
        <pt x="210" y="196" on="0"/>
        <pt x="238" y="120" on="0"/>
        <pt x="288" y="71" on="0"/>
        <pt x="353" y="46" on="0"/>
        <pt x="391" y="46" on="1"/>
        <pt x="452" y="46" on="0"/>
        <pt x="566" y="99" on="0"/>
        <pt x="654" y="201" on="0"/>
        <pt x="708" y="350" on="0"/>
        <pt x="708" y="446" on="1"/>
        <pt x="708" y="497" on="0"/>
        <pt x="680" y="573" on="0"/>
        <pt x="630" y="622" on="0"/>
        <pt x="564" y="647" on="0"/>
        <pt x="527" y="647" on="1"/>
        <pt x="466" y="647" on="0"/>
        <pt x="352" y="594" on="0"/>
        <pt x="263" y="492" on="0"/>
        <pt x="210" y="343" on="0"/>
      </contour>
    </TTGlyph>
    <TTGlyph name="Questiondown" xMin="133" yMin="-14" xMax="482" yMax="706">
      <component glyphName="questiondown" x="41" y="174" flags="0x214"/>
    </TTGlyph>
    <TTGlyph name="R" xMin="83" yMin="0" xMax="644" yMax="699">
      <contour>
        <pt x="408" y="699" on="1"/>
        <pt x="526" y="699" on="0"/>
        <pt x="644" y="604" on="0"/>
        <pt x="644" y="517" on="1"/>
        <pt x="644" y="439" on="0"/>
        <pt x="544" y="322" on="0"/>
        <pt x="442" y="296" on="1"/>
        <pt x="454" y="274" on="0"/>
        <pt x="488" y="203" on="0"/>
        <pt x="523" y="121" on="0"/>
        <pt x="556" y="36" on="0"/>
        <pt x="567" y="0" on="1"/>
        <pt x="495" y="0" on="1"/>
        <pt x="467" y="85" on="0"/>
        <pt x="400" y="232" on="0"/>
        <pt x="371" y="283" on="1"/>
        <pt x="338" y="280" on="0"/>
        <pt x="302" y="280" on="1"/>
        <pt x="218" y="280" on="1"/>
        <pt x="151" y="0" on="1"/>
        <pt x="83" y="0" on="1"/>
        <pt x="246" y="680" on="1"/>
        <pt x="281" y="687" on="0"/>
        <pt x="364" y="699" on="0"/>
      </contour>
      <contour>
        <pt x="314" y="338" on="1"/>
        <pt x="439" y="338" on="0"/>
        <pt x="573" y="433" on="0"/>
        <pt x="573" y="519" on="1"/>
        <pt x="573" y="582" on="0"/>
        <pt x="489" y="640" on="0"/>
        <pt x="398" y="640" on="1"/>
        <pt x="372" y="640" on="0"/>
        <pt x="323" y="635" on="0"/>
        <pt x="303" y="633" on="1"/>
        <pt x="231" y="338" on="1"/>
      </contour>
    </TTGlyph>
    <TTGlyph name="Racute" xMin="83" yMin="0" xMax="644" yMax="923">
      <component glyphName="R" x="0" y="0" flags="0x204"/>
      <component glyphName="acute" x="166" y="150" flags="0x4"/>
    </TTGlyph>
    <TTGlyph name="Rcaron" xMin="83" yMin="0" xMax="644" yMax="916">
      <component glyphName="R" x="0" y="0" flags="0x204"/>
      <component glyphName="caron" x="132" y="153" flags="0x4"/>
    </TTGlyph>
    <TTGlyph name="Rcommaaccent" xMin="83" yMin="-191" xMax="644" yMax="699">
      <component glyphName="R" x="0" y="0" flags="0x204"/>
      <component glyphName="commaaccent" x="152" y="0" flags="0x4"/>
    </TTGlyph>
    <TTGlyph name="Rho" xMin="83" yMin="0" xMax="647" yMax="699">
      <component glyphName="P" x="0" y="0" flags="0x204"/>
    </TTGlyph>
    <TTGlyph name="S" xMin="48" yMin="-15" xMax="589" yMax="708">
      <contour>
        <pt x="83" y="93" on="1"/>
        <pt x="112" y="71" on="0"/>
        <pt x="195" y="44" on="0"/>
        <pt x="240" y="44" on="1"/>
        <pt x="276" y="44" on="0"/>
        <pt x="343" y="61" on="0"/>
        <pt x="396" y="98" on="0"/>
        <pt x="428" y="155" on="0"/>
        <pt x="428" y="195" on="1"/>
        <pt x="428" y="235" on="0"/>
        <pt x="390" y="285" on="0"/>
        <pt x="333" y="321" on="0"/>
        <pt x="266" y="352" on="0"/>
        <pt x="209" y="396" on="0"/>
        <pt x="171" y="459" on="0"/>
        <pt x="171" y="510" on="1"/>
        <pt x="171" y="546" on="0"/>
        <pt x="201" y="617" on="0"/>
        <pt x="264" y="673" on="0"/>
        <pt x="359" y="708" on="0"/>
        <pt x="424" y="708" on="1"/>
        <pt x="467" y="708" on="0"/>
        <pt x="544" y="691" on="0"/>
        <pt x="589" y="669" on="1"/>
        <pt x="554" y="612" on="1"/>
        <pt x="519" y="633" on="0"/>
        <pt x="450" y="650" on="0"/>
        <pt x="412" y="650" on="1"/>
        <pt x="379" y="650" on="0"/>
        <pt x="318" y="635" on="0"/>
        <pt x="270" y="604" on="0"/>
        <pt x="241" y="553" on="0"/>
        <pt x="241" y="517" on="1"/>
        <pt x="241" y="477" on="0"/>
        <pt x="279" y="427" on="0"/>
        <pt x="337" y="391" on="0"/>
        <pt x="403" y="360" on="0"/>
        <pt x="461" y="317" on="0"/>
        <pt x="499" y="251" on="0"/>
        <pt x="499" y="198" on="1"/>
        <pt x="499" y="159" on="0"/>
        <pt x="468" y="82" on="0"/>
        <pt x="401" y="22" on="0"/>
        <pt x="298" y="-15" on="0"/>
        <pt x="226" y="-15" on="1"/>
        <pt x="178" y="-15" on="0"/>
        <pt x="87" y="11" on="0"/>
        <pt x="48" y="34" on="1"/>
      </contour>
    </TTGlyph>
    <TTGlyph name="Sacute" xMin="48" yMin="-15" xMax="589" yMax="923">
      <component glyphName="S" x="0" y="0" flags="0x204"/>
      <component glyphName="acute" x="150" y="150" flags="0x4"/>
    </TTGlyph>
    <TTGlyph name="Scaron" xMin="48" yMin="-15" xMax="598" yMax="916">
      <component glyphName="S" x="0" y="0" flags="0x204"/>
      <component glyphName="caron" x="130" y="153" flags="0x4"/>
    </TTGlyph>
    <TTGlyph name="Scedilla" xMin="48" yMin="-187" xMax="589" yMax="708">
      <contour>
        <pt x="123" y="-132" on="1"/>
        <pt x="145" y="-141" on="0"/>
        <pt x="172" y="-141" on="1"/>
        <pt x="195" y="-141" on="0"/>
        <pt x="223" y="-127" on="0"/>
        <pt x="223" y="-110" on="1"/>
        <pt x="223" y="-95" on="0"/>
        <pt x="204" y="-77" on="0"/>
        <pt x="176" y="-66" on="1"/>
        <pt x="181" y="-55" on="0"/>
        <pt x="200" y="-28" on="0"/>
        <pt x="209" y="-14" on="1"/>
        <pt x="166" y="-12" on="0"/>
        <pt x="83" y="12" on="0"/>
        <pt x="48" y="34" on="1"/>
        <pt x="83" y="93" on="1"/>
        <pt x="112" y="71" on="0"/>
        <pt x="195" y="44" on="0"/>
        <pt x="240" y="44" on="1"/>
        <pt x="276" y="44" on="0"/>
        <pt x="343" y="61" on="0"/>
        <pt x="396" y="98" on="0"/>
        <pt x="428" y="155" on="0"/>
        <pt x="428" y="195" on="1"/>
        <pt x="428" y="235" on="0"/>
        <pt x="390" y="285" on="0"/>
        <pt x="333" y="321" on="0"/>
        <pt x="266" y="352" on="0"/>
        <pt x="209" y="396" on="0"/>
        <pt x="171" y="459" on="0"/>
        <pt x="171" y="510" on="1"/>
        <pt x="171" y="546" on="0"/>
        <pt x="201" y="617" on="0"/>
        <pt x="264" y="673" on="0"/>
        <pt x="359" y="708" on="0"/>
        <pt x="424" y="708" on="1"/>
        <pt x="467" y="708" on="0"/>
        <pt x="544" y="691" on="0"/>
        <pt x="589" y="669" on="1"/>
        <pt x="554" y="612" on="1"/>
        <pt x="519" y="633" on="0"/>
        <pt x="450" y="650" on="0"/>
        <pt x="412" y="650" on="1"/>
        <pt x="379" y="650" on="0"/>
        <pt x="318" y="635" on="0"/>
        <pt x="270" y="604" on="0"/>
        <pt x="241" y="553" on="0"/>
        <pt x="241" y="517" on="1"/>
        <pt x="241" y="477" on="0"/>
        <pt x="279" y="427" on="0"/>
        <pt x="337" y="391" on="0"/>
        <pt x="403" y="360" on="0"/>
        <pt x="461" y="317" on="0"/>
        <pt x="499" y="251" on="0"/>
        <pt x="499" y="198" on="1"/>
        <pt x="499" y="161" on="0"/>
        <pt x="471" y="89" on="0"/>
        <pt x="413" y="30" on="0"/>
        <pt x="321" y="-9" on="0"/>
        <pt x="258" y="-13" on="1"/>
        <pt x="253" y="-20" on="0"/>
        <pt x="245" y="-33" on="0"/>
        <pt x="242" y="-38" on="1"/>
        <pt x="265" y="-51" on="0"/>
        <pt x="286" y="-78" on="0"/>
        <pt x="286" y="-102" on="1"/>
        <pt x="286" y="-143" on="0"/>
        <pt x="223" y="-187" on="0"/>
        <pt x="175" y="-187" on="1"/>
        <pt x="158" y="-187" on="0"/>
        <pt x="125" y="-183" on="0"/>
        <pt x="105" y="-175" on="1"/>
      </contour>
    </TTGlyph>
    <TTGlyph name="Scircumflex" xMin="48" yMin="-15" xMax="589" yMax="914">
      <component glyphName="S" x="0" y="0" flags="0x204"/>
      <component glyphName="circumflex" x="140" y="151" flags="0x4"/>
    </TTGlyph>
    <TTGlyph name="Scommaaccent" xMin="48" yMin="-191" xMax="589" yMax="708">
      <component glyphName="S" x="0" y="0" flags="0x204"/>
      <component glyphName="commaaccent" x="71" y="0" flags="0x4"/>
    </TTGlyph>
    <TTGlyph name="Sigma" xMin="38" yMin="0" xMax="658" yMax="693">
      <contour>
        <pt x="52" y="60" on="1"/>
        <pt x="77" y="93" on="0"/>
        <pt x="147" y="168" on="0"/>
        <pt x="227" y="247" on="0"/>
        <pt x="311" y="327" on="0"/>
        <pt x="351" y="365" on="1"/>
        <pt x="297" y="465" on="0"/>
        <pt x="223" y="601" on="0"/>
        <pt x="206" y="649" on="1"/>
        <pt x="216" y="693" on="1"/>
        <pt x="658" y="693" on="1"/>
        <pt x="643" y="634" on="1"/>
        <pt x="281" y="634" on="1"/>
        <pt x="308" y="567" on="0"/>
        <pt x="379" y="435" on="0"/>
        <pt x="425" y="354" on="1"/>
        <pt x="383" y="313" on="0"/>
        <pt x="309" y="243" on="0"/>
        <pt x="237" y="176" on="0"/>
        <pt x="165" y="103" on="0"/>
        <pt x="124" y="59" on="1"/>
        <pt x="505" y="59" on="1"/>
        <pt x="491" y="0" on="1"/>
        <pt x="38" y="0" on="1"/>
      </contour>
    </TTGlyph>
    <TTGlyph name="Slash" xMin="-51" yMin="-138" xMax="571" yMax="830">
      <component glyphName="slash" x="11" y="47" flags="0x214"/>
    </TTGlyph>
    <TTGlyph name="T" xMin="170" yMin="0" xMax="676" yMax="693">
      <contour>
        <pt x="382" y="634" on="1"/>
        <pt x="170" y="634" on="1"/>
        <pt x="183" y="693" on="1"/>
        <pt x="676" y="693" on="1"/>
        <pt x="662" y="634" on="1"/>
        <pt x="450" y="634" on="1"/>
        <pt x="298" y="0" on="1"/>
        <pt x="230" y="0" on="1"/>
      </contour>
    </TTGlyph>
    <TTGlyph name="Tau" xMin="170" yMin="0" xMax="676" yMax="693">
      <component glyphName="T" x="0" y="0" flags="0x204"/>
    </TTGlyph>
    <TTGlyph name="Tbar" xMin="170" yMin="0" xMax="675" yMax="693">
      <contour>
        <pt x="309" y="331" on="1"/>
        <pt x="186" y="331" on="1"/>
        <pt x="198" y="383" on="1"/>
        <pt x="322" y="383" on="1"/>
        <pt x="382" y="634" on="1"/>
        <pt x="170" y="634" on="1"/>
        <pt x="183" y="693" on="1"/>
        <pt x="675" y="693" on="1"/>
        <pt x="661" y="634" on="1"/>
        <pt x="450" y="634" on="1"/>
        <pt x="390" y="383" on="1"/>
        <pt x="524" y="383" on="1"/>
        <pt x="512" y="331" on="1"/>
        <pt x="377" y="331" on="1"/>
        <pt x="298" y="0" on="1"/>
        <pt x="230" y="0" on="1"/>
      </contour>
    </TTGlyph>
    <TTGlyph name="Tcaron" xMin="170" yMin="0" xMax="676" yMax="916">
      <component glyphName="T" x="0" y="0" flags="0x204"/>
      <component glyphName="caron" x="135" y="153" flags="0x4"/>
    </TTGlyph>
    <TTGlyph name="Theta" xMin="138" yMin="-15" xMax="780" yMax="708">
      <contour>
        <pt x="599" y="320" on="1"/>
        <pt x="304" y="320" on="1"/>
        <pt x="318" y="378" on="1"/>
        <pt x="613" y="378" on="1"/>
      </contour>
      <contour>
        <pt x="138" y="258" on="1"/>
        <pt x="138" y="361" on="0"/>
        <pt x="206" y="528" on="0"/>
        <pt x="318" y="645" on="0"/>
        <pt x="459" y="708" on="0"/>
        <pt x="533" y="708" on="1"/>
        <pt x="582" y="708" on="0"/>
        <pt x="672" y="675" on="0"/>
        <pt x="740" y="608" on="0"/>
        <pt x="780" y="505" on="0"/>
        <pt x="780" y="436" on="1"/>
        <pt x="780" y="332" on="0"/>
        <pt x="712" y="165" on="0"/>
        <pt x="600" y="48" on="0"/>
        <pt x="458" y="-15" on="0"/>
        <pt x="385" y="-15" on="1"/>
        <pt x="335" y="-15" on="0"/>
        <pt x="246" y="18" on="0"/>
        <pt x="178" y="85" on="0"/>
        <pt x="138" y="188" on="0"/>
      </contour>
      <contour>
        <pt x="210" y="247" on="1"/>
        <pt x="210" y="196" on="0"/>
        <pt x="238" y="120" on="0"/>
        <pt x="288" y="71" on="0"/>
        <pt x="353" y="46" on="0"/>
        <pt x="391" y="46" on="1"/>
        <pt x="452" y="46" on="0"/>
        <pt x="566" y="99" on="0"/>
        <pt x="654" y="201" on="0"/>
        <pt x="708" y="350" on="0"/>
        <pt x="708" y="446" on="1"/>
        <pt x="708" y="497" on="0"/>
        <pt x="680" y="573" on="0"/>
        <pt x="630" y="622" on="0"/>
        <pt x="564" y="647" on="0"/>
        <pt x="527" y="647" on="1"/>
        <pt x="466" y="647" on="0"/>
        <pt x="352" y="594" on="0"/>
        <pt x="263" y="492" on="0"/>
        <pt x="210" y="343" on="0"/>
      </contour>
    </TTGlyph>
    <TTGlyph name="Thorn" xMin="83" yMin="0" xMax="610" yMax="693">
      <contour>
        <pt x="250" y="693" on="1"/>
        <pt x="318" y="693" on="1"/>
        <pt x="289" y="572" on="1"/>
        <pt x="310" y="574" on="0"/>
        <pt x="345" y="575" on="0"/>
        <pt x="367" y="575" on="1"/>
        <pt x="489" y="575" on="0"/>
        <pt x="610" y="490" on="0"/>
        <pt x="610" y="393" on="1"/>
        <pt x="610" y="282" on="0"/>
        <pt x="432" y="149" on="0"/>
        <pt x="255" y="149" on="1"/>
        <pt x="186" y="149" on="1"/>
        <pt x="151" y="0" on="1"/>
        <pt x="83" y="0" on="1"/>
      </contour>
      <contour>
        <pt x="269" y="204" on="1"/>
        <pt x="342" y="204" on="0"/>
        <pt x="445" y="232" on="0"/>
        <pt x="510" y="282" on="0"/>
        <pt x="540" y="350" on="0"/>
        <pt x="540" y="390" on="1"/>
        <pt x="540" y="457" on="0"/>
        <pt x="456" y="518" on="0"/>
        <pt x="371" y="518" on="1"/>
        <pt x="324" y="518" on="0"/>
        <pt x="278" y="514" on="0"/>
        <pt x="274" y="513" on="1"/>
        <pt x="200" y="204" on="1"/>
      </contour>
    </TTGlyph>
    <TTGlyph name="U" xMin="138" yMin="-16" xMax="740" yMax="693">
      <contour>
        <pt x="250" y="693" on="1"/>
        <pt x="318" y="693" on="1"/>
        <pt x="217" y="274" on="1"/>
        <pt x="212" y="251" on="0"/>
        <pt x="205" y="206" on="0"/>
        <pt x="205" y="185" on="1"/>
        <pt x="205" y="155" on="0"/>
        <pt x="219" y="104" on="0"/>
        <pt x="253" y="66" on="0"/>
        <pt x="307" y="44" on="0"/>
        <pt x="348" y="44" on="1"/>
        <pt x="394" y="44" on="0"/>
        <pt x="464" y="70" on="0"/>
        <pt x="517" y="125" on="0"/>
        <pt x="555" y="211" on="0"/>
        <pt x="570" y="271" on="1"/>
        <pt x="672" y="693" on="1"/>
        <pt x="740" y="693" on="1"/>
        <pt x="636" y="261" on="1"/>
        <pt x="618" y="188" on="0"/>
        <pt x="568" y="83" on="0"/>
        <pt x="497" y="16" on="0"/>
        <pt x="403" y="-16" on="0"/>
        <pt x="342" y="-16" on="1"/>
        <pt x="289" y="-16" on="0"/>
        <pt x="212" y="13" on="0"/>
        <pt x="162" y="65" on="0"/>
        <pt x="138" y="137" on="0"/>
        <pt x="138" y="180" on="1"/>
        <pt x="138" y="224" on="0"/>
        <pt x="150" y="272" on="1"/>
      </contour>
    </TTGlyph>
    <TTGlyph name="Uacute" xMin="138" yMin="-16" xMax="740" yMax="923">
      <component glyphName="U" x="0" y="0" flags="0x204"/>
      <component glyphName="acute" x="221" y="150" flags="0x4"/>
    </TTGlyph>
    <TTGlyph name="Ubreve" xMin="138" yMin="-16" xMax="740" yMax="903">
      <component glyphName="U" x="0" y="0" flags="0x204"/>
      <component glyphName="breve" x="187" y="157" flags="0x4"/>
    </TTGlyph>
    <TTGlyph name="Ucircumflex" xMin="138" yMin="-16" xMax="740" yMax="914">
      <component glyphName="U" x="0" y="0" flags="0x204"/>
      <component glyphName="circumflex" x="213" y="151" flags="0x4"/>
    </TTGlyph>
    <TTGlyph name="Udieresis" xMin="138" yMin="-16" xMax="740" yMax="875">
      <component glyphName="U" x="0" y="0" flags="0x204"/>
      <component glyphName="dieresis" x="222" y="154" flags="0x4"/>
    </TTGlyph>
    <TTGlyph name="Ugrave" xMin="138" yMin="-16" xMax="740" yMax="923">
      <component glyphName="U" x="0" y="0" flags="0x204"/>
      <component glyphName="grave" x="177" y="150" flags="0x4"/>
    </TTGlyph>
    <TTGlyph name="Uhorn" xMin="138" yMin="-16" xMax="887" yMax="801">
      <contour>
        <pt x="250" y="693" on="1"/>
        <pt x="318" y="693" on="1"/>
        <pt x="217" y="274" on="1"/>
        <pt x="212" y="251" on="0"/>
        <pt x="205" y="206" on="0"/>
        <pt x="205" y="185" on="1"/>
        <pt x="205" y="155" on="0"/>
        <pt x="219" y="104" on="0"/>
        <pt x="253" y="66" on="0"/>
        <pt x="307" y="44" on="0"/>
        <pt x="348" y="44" on="1"/>
        <pt x="394" y="44" on="0"/>
        <pt x="464" y="70" on="0"/>
        <pt x="517" y="125" on="0"/>
        <pt x="555" y="211" on="0"/>
        <pt x="570" y="271" on="1"/>
        <pt x="672" y="693" on="1"/>
        <pt x="731" y="693" on="1"/>
        <pt x="756" y="693" on="0"/>
        <pt x="790" y="712" on="0"/>
        <pt x="811" y="742" on="0"/>
        <pt x="820" y="781" on="0"/>
        <pt x="822" y="801" on="1"/>
        <pt x="887" y="801" on="1"/>
        <pt x="887" y="779" on="0"/>
        <pt x="871" y="723" on="0"/>
        <pt x="834" y="673" on="0"/>
        <pt x="773" y="639" on="0"/>
        <pt x="727" y="639" on="1"/>
        <pt x="636" y="261" on="1"/>
        <pt x="618" y="188" on="0"/>
        <pt x="568" y="83" on="0"/>
        <pt x="497" y="16" on="0"/>
        <pt x="403" y="-16" on="0"/>
        <pt x="342" y="-16" on="1"/>
        <pt x="289" y="-16" on="0"/>
        <pt x="212" y="13" on="0"/>
        <pt x="162" y="65" on="0"/>
        <pt x="138" y="137" on="0"/>
        <pt x="138" y="180" on="1"/>
        <pt x="138" y="224" on="0"/>
        <pt x="150" y="272" on="1"/>
      </contour>
    </TTGlyph>
    <TTGlyph name="Uhungarumlaut" xMin="138" yMin="-16" xMax="740" yMax="926">
      <component glyphName="U" x="0" y="0" flags="0x204"/>
      <component glyphName="hungarumlaut" x="229" y="153" flags="0x4"/>
    </TTGlyph>
    <TTGlyph name="Umacron" xMin="138" yMin="-16" xMax="740" yMax="844">
      <component glyphName="U" x="0" y="0" flags="0x204"/>
      <component glyphName="macron" x="210" y="140" flags="0x4"/>
    </TTGlyph>
    <TTGlyph name="Uogonek" xMin="138" yMin="-186" xMax="740" yMax="693">
      <contour>
        <pt x="250" y="693" on="1"/>
        <pt x="318" y="693" on="1"/>
        <pt x="217" y="274" on="1"/>
        <pt x="212" y="251" on="0"/>
        <pt x="205" y="206" on="0"/>
        <pt x="205" y="185" on="1"/>
        <pt x="205" y="155" on="0"/>
        <pt x="219" y="104" on="0"/>
        <pt x="253" y="66" on="0"/>
        <pt x="307" y="44" on="0"/>
        <pt x="348" y="44" on="1"/>
        <pt x="394" y="44" on="0"/>
        <pt x="464" y="70" on="0"/>
        <pt x="517" y="125" on="0"/>
        <pt x="555" y="211" on="0"/>
        <pt x="570" y="271" on="1"/>
        <pt x="672" y="693" on="1"/>
        <pt x="740" y="693" on="1"/>
        <pt x="636" y="261" on="1"/>
        <pt x="607" y="140" on="0"/>
        <pt x="505" y="11" on="0"/>
        <pt x="420" y="-8" on="1"/>
        <pt x="372" y="-40" on="0"/>
        <pt x="333" y="-88" on="0"/>
        <pt x="333" y="-107" on="1"/>
        <pt x="333" y="-119" on="0"/>
        <pt x="350" y="-131" on="0"/>
        <pt x="375" y="-135" on="0"/>
        <pt x="401" y="-132" on="0"/>
        <pt x="410" y="-130" on="1"/>
        <pt x="403" y="-179" on="1"/>
        <pt x="389" y="-182" on="0"/>
        <pt x="364" y="-186" on="0"/>
        <pt x="350" y="-186" on="1"/>
        <pt x="334" y="-186" on="0"/>
        <pt x="306" y="-180" on="0"/>
        <pt x="284" y="-165" on="0"/>
        <pt x="271" y="-141" on="0"/>
        <pt x="271" y="-122" on="1"/>
        <pt x="271" y="-93" on="0"/>
        <pt x="316" y="-38" on="0"/>
        <pt x="344" y="-16" on="1"/>
        <pt x="342" y="-16" on="1"/>
        <pt x="289" y="-16" on="0"/>
        <pt x="212" y="13" on="0"/>
        <pt x="162" y="65" on="0"/>
        <pt x="138" y="137" on="0"/>
        <pt x="138" y="180" on="1"/>
        <pt x="138" y="224" on="0"/>
        <pt x="150" y="272" on="1"/>
      </contour>
    </TTGlyph>
    <TTGlyph name="Upsilon" xMin="180" yMin="0" xMax="715" yMax="693">
      <component glyphName="Y" x="0" y="0" flags="0x204"/>
    </TTGlyph>
    <TTGlyph name="Upsilondieresis" xMin="180" yMin="0" xMax="715" yMax="875">
      <component glyphName="Y" x="0" y="0" flags="0x204"/>
      <component glyphName="dieresis" x="170" y="154" flags="0x4"/>
    </TTGlyph>
    <TTGlyph name="Upsilontonos" xMin="91" yMin="0" xMax="810" yMax="705">
      <component glyphName="Y" x="95" y="0" flags="0x4"/>
      <component glyphName="tonos.cap" x="-154" y="0" flags="0x4"/>
    </TTGlyph>
    <TTGlyph name="Uring" xMin="138" yMin="-16" xMax="740" yMax="930">
      <component glyphName="U" x="0" y="0" flags="0x204"/>
      <component glyphName="ring" x="200" y="159" flags="0x4"/>
    </TTGlyph>
    <TTGlyph name="Utilde" xMin="138" yMin="-16" xMax="740" yMax="880">
      <component glyphName="U" x="0" y="0" flags="0x204"/>
      <component glyphName="tilde" x="188" y="152" flags="0x4"/>
    </TTGlyph>
    <TTGlyph name="V" xMin="170" yMin="0" xMax="755" yMax="693">
      <contour>
        <pt x="330" y="0" on="1"/>
        <pt x="267" y="0" on="1"/>
        <pt x="253" y="70" on="0"/>
        <pt x="228" y="208" on="0"/>
        <pt x="205" y="368" on="0"/>
        <pt x="182" y="564" on="0"/>
        <pt x="170" y="693" on="1"/>
        <pt x="236" y="693" on="1"/>
        <pt x="245" y="589" on="0"/>
        <pt x="263" y="415" on="0"/>
        <pt x="282" y="265" on="0"/>
        <pt x="302" y="135" on="0"/>
        <pt x="314" y="76" on="1"/>
        <pt x="410" y="207" on="0"/>
        <pt x="593" y="519" on="0"/>
        <pt x="679" y="693" on="1"/>
        <pt x="755" y="693" on="1"/>
        <pt x="692" y="576" on="0"/>
        <pt x="580" y="379" on="0"/>
        <pt x="476" y="210" on="0"/>
        <pt x="379" y="65" on="0"/>
      </contour>
    </TTGlyph>
    <TTGlyph name="W" xMin="168" yMin="0" xMax="1017" yMax="693">
      <contour>
        <pt x="185" y="0" on="1"/>
        <pt x="168" y="170" on="0"/>
        <pt x="173" y="514" on="0"/>
        <pt x="184" y="693" on="1"/>
        <pt x="250" y="693" on="1"/>
        <pt x="240" y="542" on="0"/>
        <pt x="233" y="233" on="0"/>
        <pt x="239" y="75" on="1"/>
        <pt x="281" y="141" on="0"/>
        <pt x="354" y="259" on="0"/>
        <pt x="426" y="382" on="0"/>
        <pt x="502" y="519" on="0"/>
        <pt x="548" y="604" on="1"/>
        <pt x="608" y="604" on="1"/>
        <pt x="613" y="529" on="0"/>
        <pt x="627" y="381" on="0"/>
        <pt x="642" y="244" on="0"/>
        <pt x="659" y="123" on="0"/>
        <pt x="667" y="76" on="1"/>
        <pt x="700" y="134" on="0"/>
        <pt x="770" y="279" on="0"/>
        <pt x="840" y="439" on="0"/>
        <pt x="910" y="609" on="0"/>
        <pt x="943" y="693" on="1"/>
        <pt x="1017" y="693" on="1"/>
        <pt x="936" y="491" on="0"/>
        <pt x="776" y="150" on="0"/>
        <pt x="691" y="0" on="1"/>
        <pt x="619" y="0" on="1"/>
        <pt x="600" y="105" on="0"/>
        <pt x="568" y="354" on="0"/>
        <pt x="557" y="499" on="1"/>
        <pt x="483" y="364" on="0"/>
        <pt x="336" y="122" on="0"/>
        <pt x="257" y="0" on="1"/>
      </contour>
    </TTGlyph>
    <TTGlyph name="Wacute" xMin="168" yMin="0" xMax="1017" yMax="928">
      <component glyphName="W" x="0" y="0" flags="0x204"/>
      <component glyphName="acute" x="323" y="155" flags="0x4"/>
    </TTGlyph>
    <TTGlyph name="Wcircumflex" xMin="168" yMin="0" xMax="1017" yMax="903">
      <component glyphName="W" x="0" y="0" flags="0x204"/>
      <component glyphName="circumflex" x="320" y="140" flags="0x4"/>
    </TTGlyph>
    <TTGlyph name="Wdieresis" xMin="168" yMin="0" xMax="1017" yMax="880">
      <component glyphName="W" x="0" y="0" flags="0x204"/>
      <component glyphName="dieresis" x="323" y="159" flags="0x4"/>
    </TTGlyph>
    <TTGlyph name="Wgrave" xMin="168" yMin="0" xMax="1017" yMax="928">
      <component glyphName="W" x="0" y="0" flags="0x204"/>
      <component glyphName="grave" x="281" y="155" flags="0x4"/>
    </TTGlyph>
    <TTGlyph name="X" xMin="10" yMin="0" xMax="680" yMax="693">
      <contour>
        <pt x="325" y="366" on="1"/>
        <pt x="184" y="693" on="1"/>
        <pt x="258" y="693" on="1"/>
        <pt x="377" y="412" on="1"/>
        <pt x="442" y="486" on="0"/>
        <pt x="556" y="627" on="0"/>
        <pt x="604" y="693" on="1"/>
        <pt x="680" y="693" on="1"/>
        <pt x="610" y="602" on="0"/>
        <pt x="475" y="442" on="0"/>
        <pt x="403" y="362" on="1"/>
        <pt x="439" y="275" on="0"/>
        <pt x="517" y="92" on="0"/>
        <pt x="551" y="0" on="1"/>
        <pt x="477" y="0" on="1"/>
        <pt x="467" y="31" on="0"/>
        <pt x="440" y="104" on="0"/>
        <pt x="408" y="185" on="0"/>
        <pt x="372" y="270" on="0"/>
        <pt x="353" y="312" on="1"/>
        <pt x="92" y="0" on="1"/>
        <pt x="10" y="0" on="1"/>
      </contour>
    </TTGlyph>
    <TTGlyph name="Xi" xMin="38" yMin="0" xMax="635" yMax="693">
      <contour>
        <pt x="199" y="634" on="1"/>
        <pt x="213" y="693" on="1"/>
        <pt x="635" y="693" on="1"/>
        <pt x="621" y="634" on="1"/>
      </contour>
      <contour>
        <pt x="38" y="0" on="1"/>
        <pt x="53" y="59" on="1"/>
        <pt x="492" y="59" on="1"/>
        <pt x="478" y="0" on="1"/>
      </contour>
      <contour>
        <pt x="168" y="334" on="1"/>
        <pt x="182" y="393" on="1"/>
        <pt x="521" y="393" on="1"/>
        <pt x="507" y="334" on="1"/>
      </contour>
    </TTGlyph>
    <TTGlyph name="Y" xMin="180" yMin="0" xMax="715" yMax="693">
      <contour>
        <pt x="310" y="280" on="1"/>
        <pt x="291" y="331" on="0"/>
        <pt x="256" y="439" on="0"/>
        <pt x="223" y="545" on="0"/>
        <pt x="193" y="648" on="0"/>
        <pt x="180" y="693" on="1"/>
        <pt x="254" y="693" on="1"/>
        <pt x="274" y="607" on="0"/>
        <pt x="326" y="424" on="0"/>
        <pt x="358" y="345" on="1"/>
        <pt x="392" y="383" on="0"/>
        <pt x="468" y="471" on="0"/>
        <pt x="542" y="563" on="0"/>
        <pt x="608" y="653" on="0"/>
        <pt x="634" y="693" on="1"/>
        <pt x="715" y="693" on="1"/>
        <pt x="646" y="601" on="0"/>
        <pt x="472" y="387" on="0"/>
        <pt x="378" y="280" on="1"/>
        <pt x="312" y="0" on="1"/>
        <pt x="244" y="0" on="1"/>
      </contour>
    </TTGlyph>
    <TTGlyph name="Yacute" xMin="180" yMin="0" xMax="715" yMax="923">
      <component glyphName="Y" x="0" y="0" flags="0x204"/>
      <component glyphName="acute" x="175" y="150" flags="0x4"/>
    </TTGlyph>
    <TTGlyph name="Ycircumflex" xMin="180" yMin="0" xMax="715" yMax="903">
      <component glyphName="Y" x="0" y="0" flags="0x204"/>
      <component glyphName="circumflex" x="156" y="140" flags="0x4"/>
    </TTGlyph>
    <TTGlyph name="Ydieresis" xMin="180" yMin="0" xMax="715" yMax="875">
      <component glyphName="Y" x="0" y="0" flags="0x204"/>
      <component glyphName="dieresis" x="158" y="154" flags="0x4"/>
    </TTGlyph>
    <TTGlyph name="Ygrave" xMin="180" yMin="0" xMax="715" yMax="923">
      <component glyphName="Y" x="0" y="0" flags="0x204"/>
      <component glyphName="grave" x="116" y="150" flags="0x4"/>
    </TTGlyph>
    <TTGlyph name="Z" xMin="40" yMin="0" xMax="667" yMax="693">
      <contour>
        <pt x="51" y="51" on="1"/>
        <pt x="80" y="92" on="0"/>
        <pt x="161" y="191" on="0"/>
        <pt x="254" y="299" on="0"/>
        <pt x="353" y="409" on="0"/>
        <pt x="449" y="512" on="0"/>
        <pt x="537" y="601" on="0"/>
        <pt x="572" y="634" on="1"/>
        <pt x="209" y="634" on="1"/>
        <pt x="223" y="693" on="1"/>
        <pt x="667" y="693" on="1"/>
        <pt x="653" y="631" on="1"/>
        <pt x="624" y="605" on="0"/>
        <pt x="544" y="525" on="0"/>
        <pt x="451" y="430" on="0"/>
        <pt x="353" y="322" on="0"/>
        <pt x="256" y="213" on="0"/>
        <pt x="168" y="106" on="0"/>
        <pt x="133" y="59" on="1"/>
        <pt x="520" y="59" on="1"/>
        <pt x="507" y="0" on="1"/>
        <pt x="40" y="0" on="1"/>
      </contour>
    </TTGlyph>
    <TTGlyph name="Zacute" xMin="40" yMin="0" xMax="667" yMax="923">
      <component glyphName="Z" x="0" y="0" flags="0x204"/>
      <component glyphName="acute" x="160" y="150" flags="0x4"/>
    </TTGlyph>
    <TTGlyph name="Zcaron" xMin="40" yMin="0" xMax="667" yMax="914">
      <component glyphName="Z" x="0" y="0" flags="0x204"/>
      <component glyphName="caron" x="132" y="151" flags="0x4"/>
    </TTGlyph>
    <TTGlyph name="Zdotaccent" xMin="40" yMin="0" xMax="667" yMax="880">
      <component glyphName="Z" x="0" y="0" flags="0x204"/>
      <component glyphName="dotaccent" x="155" y="154" flags="0x4"/>
    </TTGlyph>
    <TTGlyph name="Zeta" xMin="40" yMin="0" xMax="667" yMax="693">
      <component glyphName="Z" x="0" y="0" flags="0x204"/>
    </TTGlyph>
    <TTGlyph name="a" xMin="98" yMin="-13" xMax="564" yMax="529">
      <contour>
        <pt x="487" y="461" on="1"/>
        <pt x="469" y="465" on="0"/>
        <pt x="439" y="469" on="0"/>
        <pt x="423" y="469" on="1"/>
        <pt x="361" y="469" on="0"/>
        <pt x="265" y="421" on="0"/>
        <pt x="199" y="343" on="0"/>
        <pt x="164" y="243" on="0"/>
        <pt x="164" y="191" on="1"/>
        <pt x="164" y="150" on="0"/>
        <pt x="180" y="95" on="0"/>
        <pt x="208" y="62" on="0"/>
        <pt x="245" y="47" on="0"/>
        <pt x="266" y="47" on="1"/>
        <pt x="307" y="47" on="0"/>
        <pt x="379" y="86" on="0"/>
        <pt x="411" y="122" on="1"/>
        <pt x="411" y="149" on="0"/>
        <pt x="427" y="219" on="0"/>
        <pt x="434" y="247" on="1"/>
      </contour>
      <contour>
        <pt x="429" y="-6" on="1"/>
        <pt x="423" y="6" on="0"/>
        <pt x="414" y="37" on="0"/>
        <pt x="412" y="53" on="1"/>
        <pt x="377" y="19" on="0"/>
        <pt x="300" y="-13" on="0"/>
        <pt x="259" y="-13" on="1"/>
        <pt x="227" y="-13" on="0"/>
        <pt x="169" y="9" on="0"/>
        <pt x="125" y="55" on="0"/>
        <pt x="98" y="128" on="0"/>
        <pt x="98" y="178" on="1"/>
        <pt x="98" y="258" on="0"/>
        <pt x="150" y="388" on="0"/>
        <pt x="243" y="479" on="0"/>
        <pt x="370" y="529" on="0"/>
        <pt x="445" y="529" on="1"/>
        <pt x="507" y="529" on="0"/>
        <pt x="564" y="508" on="1"/>
        <pt x="487" y="197" on="1"/>
        <pt x="481" y="172" on="0"/>
        <pt x="473" y="128" on="0"/>
        <pt x="473" y="108" on="1"/>
        <pt x="473" y="81" on="0"/>
        <pt x="483" y="33" on="0"/>
        <pt x="496" y="4" on="1"/>
      </contour>
    </TTGlyph>
    <TTGlyph name="aacute" xMin="98" yMin="-13" xMax="579" yMax="773">
      <component glyphName="a" x="0" y="0" flags="0x204"/>
      <component glyphName="acute" x="159" y="0" flags="0x4"/>
    </TTGlyph>
    <TTGlyph name="abreve" xMin="98" yMin="-13" xMax="567" yMax="746">
      <component glyphName="a" x="0" y="0" flags="0x204"/>
      <component glyphName="breve" x="103" y="0" flags="0x4"/>
    </TTGlyph>
    <TTGlyph name="acircumflex" xMin="98" yMin="-13" xMax="564" yMax="763">
      <component glyphName="a" x="0" y="0" flags="0x204"/>
      <component glyphName="circumflex" x="127" y="0" flags="0x4"/>
    </TTGlyph>
    <TTGlyph name="acute" xMin="216" yMin="583" xMax="420" yMax="773">
      <contour>
        <pt x="420" y="711" on="1"/>
        <pt x="245" y="583" on="1"/>
        <pt x="216" y="627" on="1"/>
        <pt x="382" y="773" on="1"/>
      </contour>
    </TTGlyph>
    <TTGlyph name="acute.asc" xMin="289" yMin="823" xMax="468" yMax="939">
      <contour>
        <pt x="302" y="823" on="1"/>
        <pt x="289" y="862" on="1"/>
        <pt x="451" y="939" on="1"/>
        <pt x="468" y="880" on="1"/>
      </contour>
    </TTGlyph>
    <TTGlyph name="adieresis" xMin="98" yMin="-13" xMax="575" yMax="721">
      <component glyphName="a" x="0" y="0" flags="0x204"/>
      <component glyphName="dieresis" x="133" y="0" flags="0x4"/>
    </TTGlyph>
    <TTGlyph name="ae" xMin="54" yMin="-12" xMax="817" yMax="529">
      <contour>
        <pt x="292" y="529" on="1"/>
        <pt x="366" y="529" on="0"/>
        <pt x="449" y="468" on="0"/>
        <pt x="465" y="417" on="1"/>
        <pt x="503" y="473" on="0"/>
        <pt x="617" y="529" on="0"/>
        <pt x="674" y="529" on="1"/>
        <pt x="703" y="529" on="0"/>
        <pt x="755" y="513" on="0"/>
        <pt x="794" y="480" on="0"/>
        <pt x="817" y="430" on="0"/>
        <pt x="817" y="396" on="1"/>
        <pt x="817" y="337" on="0"/>
        <pt x="773" y="265" on="0"/>
        <pt x="683" y="223" on="0"/>
        <pt x="549" y="205" on="0"/>
        <pt x="459" y="202" on="1"/>
        <pt x="459" y="197" on="0"/>
        <pt x="458" y="187" on="0"/>
        <pt x="458" y="183" on="1"/>
        <pt x="458" y="139" on="0"/>
        <pt x="480" y="85" on="0"/>
        <pt x="518" y="57" on="0"/>
        <pt x="569" y="48" on="0"/>
        <pt x="598" y="48" on="1"/>
        <pt x="660" y="48" on="0"/>
        <pt x="733" y="83" on="1"/>
        <pt x="740" y="23" on="1"/>
        <pt x="710" y="9" on="0"/>
        <pt x="624" y="-12" on="0"/>
        <pt x="579" y="-12" on="1"/>
        <pt x="504" y="-12" on="0"/>
        <pt x="422" y="48" on="0"/>
        <pt x="405" y="99" on="1"/>
        <pt x="370" y="49" on="0"/>
        <pt x="265" y="-12" on="0"/>
        <pt x="196" y="-12" on="1"/>
        <pt x="167" y="-12" on="0"/>
        <pt x="115" y="5" on="0"/>
        <pt x="76" y="38" on="0"/>
        <pt x="54" y="88" on="0"/>
        <pt x="54" y="121" on="1"/>
        <pt x="54" y="179" on="0"/>
        <pt x="99" y="252" on="0"/>
        <pt x="189" y="294" on="0"/>
        <pt x="324" y="313" on="0"/>
        <pt x="414" y="317" on="1"/>
        <pt x="414" y="322" on="0"/>
        <pt x="415" y="330" on="0"/>
        <pt x="415" y="334" on="1"/>
        <pt x="415" y="378" on="0"/>
        <pt x="393" y="432" on="0"/>
        <pt x="354" y="461" on="0"/>
        <pt x="302" y="471" on="0"/>
        <pt x="273" y="471" on="1"/>
        <pt x="211" y="471" on="0"/>
        <pt x="138" y="436" on="1"/>
        <pt x="131" y="494" on="1"/>
        <pt x="161" y="508" on="0"/>
        <pt x="247" y="529" on="0"/>
      </contour>
      <contour>
        <pt x="751" y="392" on="1"/>
        <pt x="751" y="430" on="0"/>
        <pt x="704" y="470" on="0"/>
        <pt x="665" y="470" on="1"/>
        <pt x="635" y="470" on="0"/>
        <pt x="575" y="446" on="0"/>
        <pt x="521" y="395" on="0"/>
        <pt x="479" y="316" on="0"/>
        <pt x="469" y="261" on="1"/>
        <pt x="554" y="262" on="0"/>
        <pt x="664" y="280" on="0"/>
        <pt x="727" y="312" on="0"/>
        <pt x="751" y="360" on="0"/>
      </contour>
      <contour>
        <pt x="120" y="125" on="1"/>
        <pt x="120" y="87" on="0"/>
        <pt x="167" y="47" on="0"/>
        <pt x="206" y="47" on="1"/>
        <pt x="236" y="47" on="0"/>
        <pt x="298" y="71" on="0"/>
        <pt x="352" y="121" on="0"/>
        <pt x="393" y="200" on="0"/>
        <pt x="404" y="254" on="1"/>
        <pt x="318" y="252" on="0"/>
        <pt x="207" y="235" on="0"/>
        <pt x="144" y="203" on="0"/>
        <pt x="120" y="156" on="0"/>
      </contour>
    </TTGlyph>
    <TTGlyph name="aeacute" xMin="54" yMin="-12" xMax="817" yMax="773">
      <component glyphName="ae" x="0" y="0" flags="0x204"/>
      <component glyphName="acute" x="269" y="0" flags="0x4"/>
    </TTGlyph>
    <TTGlyph name="afii00208" xMin="58" yMin="277" xMax="1072" yMax="334">
      <component glyphName="emdash" x="0" y="0" flags="0x214"/>
    </TTGlyph>
    <TTGlyph name="afii10017" xMin="20" yMin="0" xMax="616" yMax="693">
      <component glyphName="A" x="0" y="0" flags="0x204"/>
    </TTGlyph>
    <TTGlyph name="afii10018" xMin="83" yMin="-7" xMax="634" yMax="693">
      <component glyphName="uni0182" x="0" y="0" flags="0x204"/>
    </TTGlyph>
    <TTGlyph name="afii10019" xMin="83" yMin="-6" xMax="639" yMax="700">
      <component glyphName="B" x="0" y="0" flags="0x204"/>
    </TTGlyph>
    <TTGlyph name="afii10020" xMin="83" yMin="0" xMax="617" yMax="693">
      <contour>
        <pt x="249" y="693" on="1"/>
        <pt x="617" y="693" on="1"/>
        <pt x="604" y="637" on="1"/>
        <pt x="304" y="637" on="1"/>
        <pt x="151" y="0" on="1"/>
        <pt x="83" y="0" on="1"/>
      </contour>
    </TTGlyph>
    <TTGlyph name="afii10021" xMin="-32" yMin="-185" xMax="719" yMax="693">
      <contour>
        <pt x="417" y="634" on="1"/>
        <pt x="414" y="620" on="1"/>
        <pt x="402" y="563" on="0"/>
        <pt x="364" y="414" on="0"/>
        <pt x="306" y="259" on="0"/>
        <pt x="225" y="113" on="0"/>
        <pt x="170" y="59" on="1"/>
        <pt x="500" y="59" on="1"/>
        <pt x="638" y="634" on="1"/>
      </contour>
      <contour>
        <pt x="719" y="693" on="1"/>
        <pt x="568" y="59" on="1"/>
        <pt x="638" y="59" on="1"/>
        <pt x="579" y="-185" on="1"/>
        <pt x="514" y="-185" on="1"/>
        <pt x="559" y="0" on="1"/>
        <pt x="76" y="0" on="1"/>
        <pt x="31" y="-185" on="1"/>
        <pt x="-32" y="-185" on="1"/>
        <pt x="27" y="59" on="1"/>
        <pt x="80" y="59" on="1"/>
        <pt x="143" y="110" on="0"/>
        <pt x="234" y="257" on="0"/>
        <pt x="298" y="423" on="0"/>
        <pt x="343" y="594" on="0"/>
        <pt x="360" y="671" on="1"/>
        <pt x="365" y="693" on="1"/>
      </contour>
    </TTGlyph>
    <TTGlyph name="afii10022" xMin="83" yMin="0" xMax="636" yMax="693">
      <component glyphName="E" x="0" y="0" flags="0x204"/>
    </TTGlyph>
    <TTGlyph name="afii10023" xMin="83" yMin="0" xMax="636" yMax="877">
      <component glyphName="E" x="0" y="0" flags="0x204"/>
      <component glyphName="dieresis" x="174" y="156" flags="0x4"/>
    </TTGlyph>
    <TTGlyph name="afii10024" xMin="10" yMin="0" xMax="916" yMax="693">
      <contour>
        <pt x="10" y="0" on="1"/>
        <pt x="38" y="44" on="0"/>
        <pt x="115" y="140" on="0"/>
        <pt x="207" y="236" on="0"/>
        <pt x="309" y="327" on="0"/>
        <pt x="363" y="367" on="1"/>
        <pt x="315" y="449" on="0"/>
        <pt x="224" y="611" on="0"/>
        <pt x="178" y="693" on="1"/>
        <pt x="254" y="693" on="1"/>
        <pt x="297" y="612" on="0"/>
        <pt x="390" y="441" on="0"/>
        <pt x="434" y="368" on="1"/>
        <pt x="512" y="693" on="1"/>
        <pt x="576" y="693" on="1"/>
        <pt x="498" y="368" on="1"/>
        <pt x="547" y="410" on="0"/>
        <pt x="649" y="503" on="0"/>
        <pt x="740" y="591" on="0"/>
        <pt x="816" y="668" on="0"/>
        <pt x="839" y="693" on="1"/>
        <pt x="916" y="693" on="1"/>
        <pt x="902" y="677" on="0"/>
        <pt x="855" y="628" on="0"/>
        <pt x="795" y="568" on="0"/>
        <pt x="726" y="502" on="0"/>
        <pt x="657" y="439" on="0"/>
        <pt x="593" y="381" on="0"/>
        <pt x="567" y="359" on="1"/>
        <pt x="642" y="271" on="0"/>
        <pt x="735" y="88" on="0"/>
        <pt x="770" y="0" on="1"/>
        <pt x="695" y="0" on="1"/>
        <pt x="683" y="41" on="0"/>
        <pt x="635" y="141" on="0"/>
        <pt x="577" y="237" on="0"/>
        <pt x="517" y="320" on="0"/>
        <pt x="493" y="344" on="1"/>
        <pt x="409" y="0" on="1"/>
        <pt x="345" y="0" on="1"/>
        <pt x="428" y="344" on="1"/>
        <pt x="393" y="321" on="0"/>
        <pt x="303" y="243" on="0"/>
        <pt x="210" y="149" on="0"/>
        <pt x="120" y="47" on="0"/>
        <pt x="84" y="0" on="1"/>
      </contour>
    </TTGlyph>
    <TTGlyph name="afii10025" xMin="38" yMin="-15" xMax="572" yMax="708">
      <contour>
        <pt x="71" y="89" on="1"/>
        <pt x="77" y="84" on="0"/>
        <pt x="104" y="69" on="0"/>
        <pt x="143" y="55" on="0"/>
        <pt x="195" y="44" on="0"/>
        <pt x="226" y="44" on="1"/>
        <pt x="272" y="44" on="0"/>
        <pt x="355" y="62" on="0"/>
        <pt x="417" y="104" on="0"/>
        <pt x="453" y="171" on="0"/>
        <pt x="453" y="220" on="1"/>
        <pt x="453" y="257" on="0"/>
        <pt x="422" y="304" on="0"/>
        <pt x="370" y="330" on="0"/>
        <pt x="302" y="339" on="0"/>
        <pt x="265" y="339" on="1"/>
        <pt x="223" y="339" on="1"/>
        <pt x="237" y="397" on="1"/>
        <pt x="291" y="397" on="1"/>
        <pt x="330" y="397" on="0"/>
        <pt x="406" y="418" on="0"/>
        <pt x="465" y="457" on="0"/>
        <pt x="502" y="515" on="0"/>
        <pt x="502" y="552" on="1"/>
        <pt x="502" y="573" on="0"/>
        <pt x="491" y="608" on="0"/>
        <pt x="463" y="634" on="0"/>
        <pt x="415" y="649" on="0"/>
        <pt x="378" y="649" on="1"/>
        <pt x="343" y="649" on="0"/>
        <pt x="290" y="641" on="0"/>
        <pt x="251" y="630" on="0"/>
        <pt x="225" y="618" on="0"/>
        <pt x="216" y="614" on="1"/>
        <pt x="206" y="667" on="1"/>
        <pt x="214" y="673" on="0"/>
        <pt x="253" y="687" on="0"/>
        <pt x="302" y="700" on="0"/>
        <pt x="356" y="708" on="0"/>
        <pt x="378" y="708" on="1"/>
        <pt x="420" y="708" on="0"/>
        <pt x="492" y="691" on="0"/>
        <pt x="543" y="654" on="0"/>
        <pt x="572" y="595" on="0"/>
        <pt x="572" y="554" on="1"/>
        <pt x="572" y="514" on="0"/>
        <pt x="540" y="453" on="0"/>
        <pt x="492" y="408" on="0"/>
        <pt x="433" y="379" on="0"/>
        <pt x="406" y="372" on="1"/>
        <pt x="428" y="365" on="0"/>
        <pt x="470" y="343" on="0"/>
        <pt x="503" y="308" on="0"/>
        <pt x="523" y="258" on="0"/>
        <pt x="523" y="225" on="1"/>
        <pt x="523" y="155" on="0"/>
        <pt x="472" y="63" on="0"/>
        <pt x="388" y="8" on="0"/>
        <pt x="279" y="-15" on="0"/>
        <pt x="222" y="-15" on="1"/>
        <pt x="183" y="-15" on="0"/>
        <pt x="120" y="-4" on="0"/>
        <pt x="73" y="10" on="0"/>
        <pt x="44" y="25" on="0"/>
        <pt x="38" y="30" on="1"/>
      </contour>
    </TTGlyph>
    <TTGlyph name="afii10026" xMin="83" yMin="0" xMax="753" yMax="693">
      <contour>
        <pt x="250" y="693" on="1"/>
        <pt x="315" y="693" on="1"/>
        <pt x="177" y="120" on="1"/>
        <pt x="202" y="154" on="0"/>
        <pt x="276" y="245" on="0"/>
        <pt x="364" y="349" on="0"/>
        <pt x="461" y="459" on="0"/>
        <pt x="559" y="563" on="0"/>
        <pt x="652" y="657" on="0"/>
        <pt x="692" y="693" on="1"/>
        <pt x="753" y="693" on="1"/>
        <pt x="586" y="0" on="1"/>
        <pt x="521" y="0" on="1"/>
        <pt x="660" y="581" on="1"/>
        <pt x="628" y="552" on="0"/>
        <pt x="544" y="463" on="0"/>
        <pt x="449" y="358" on="0"/>
        <pt x="350" y="244" on="0"/>
        <pt x="258" y="134" on="0"/>
        <pt x="178" y="36" on="0"/>
        <pt x="150" y="0" on="1"/>
        <pt x="83" y="0" on="1"/>
      </contour>
    </TTGlyph>
    <TTGlyph name="afii10027" xMin="83" yMin="0" xMax="753" yMax="894">
      <component glyphName="afii10026" x="0" y="0" flags="0x204"/>
      <component glyphName="kratka" x="192" y="156" flags="0x4"/>
    </TTGlyph>
    <TTGlyph name="afii10028" xMin="83" yMin="0" xMax="724" yMax="693">
      <component glyphName="K" x="0" y="0" flags="0x204"/>
    </TTGlyph>
    <TTGlyph name="afii10029" xMin="18" yMin="-7" xMax="711" yMax="693">
      <contour>
        <pt x="18" y="50" on="1"/>
        <pt x="51" y="56" on="0"/>
        <pt x="107" y="77" on="0"/>
        <pt x="156" y="121" on="0"/>
        <pt x="203" y="191" on="0"/>
        <pt x="228" y="247" on="1"/>
        <pt x="244" y="284" on="0"/>
        <pt x="273" y="364" on="0"/>
        <pt x="303" y="467" on="0"/>
        <pt x="336" y="601" on="0"/>
        <pt x="357" y="693" on="1"/>
        <pt x="711" y="693" on="1"/>
        <pt x="544" y="0" on="1"/>
        <pt x="476" y="0" on="1"/>
        <pt x="628" y="634" on="1"/>
        <pt x="414" y="634" on="1"/>
        <pt x="386" y="522" on="0"/>
        <pt x="330" y="317" on="0"/>
        <pt x="295" y="228" on="1"/>
        <pt x="285" y="202" on="0"/>
        <pt x="248" y="126" on="0"/>
        <pt x="185" y="53" on="0"/>
        <pt x="91" y="-2" on="0"/>
        <pt x="24" y="-7" on="1"/>
      </contour>
    </TTGlyph>
    <TTGlyph name="afii10030" xMin="68" yMin="0" xMax="873" yMax="693">
      <component glyphName="M" x="0" y="0" flags="0x204"/>
    </TTGlyph>
    <TTGlyph name="afii10031" xMin="83" yMin="0" xMax="742" yMax="693">
      <component glyphName="H" x="0" y="0" flags="0x204"/>
    </TTGlyph>
    <TTGlyph name="afii10032" xMin="138" yMin="-15" xMax="780" yMax="708">
      <component glyphName="O" x="0" y="0" flags="0x204"/>
    </TTGlyph>
    <TTGlyph name="afii10033" xMin="83" yMin="0" xMax="727" yMax="693">
      <component glyphName="Pi" x="0" y="0" flags="0x204"/>
    </TTGlyph>
    <TTGlyph name="afii10034" xMin="83" yMin="0" xMax="647" yMax="699">
      <component glyphName="P" x="0" y="0" flags="0x204"/>
    </TTGlyph>
    <TTGlyph name="afii10035" xMin="138" yMin="-15" xMax="712" yMax="708">
      <component glyphName="C" x="0" y="0" flags="0x204"/>
    </TTGlyph>
    <TTGlyph name="afii10036" xMin="170" yMin="0" xMax="676" yMax="693">
      <component glyphName="T" x="0" y="0" flags="0x204"/>
    </TTGlyph>
    <TTGlyph name="afii10037" xMin="35" yMin="-9" xMax="685" yMax="693">
      <contour>
        <pt x="355" y="244" on="1"/>
        <pt x="388" y="291" on="0"/>
        <pt x="455" y="399" on="0"/>
        <pt x="521" y="515" on="0"/>
        <pt x="584" y="635" on="0"/>
        <pt x="613" y="693" on="1"/>
        <pt x="685" y="693" on="1"/>
        <pt x="647" y="620" on="0"/>
        <pt x="579" y="496" on="0"/>
        <pt x="511" y="382" on="0"/>
        <pt x="442" y="271" on="0"/>
        <pt x="403" y="213" on="1"/>
        <pt x="377" y="175" on="0"/>
        <pt x="320" y="96" on="0"/>
        <pt x="248" y="32" on="0"/>
        <pt x="160" y="-9" on="0"/>
        <pt x="104" y="-9" on="1"/>
        <pt x="87" y="-9" on="0"/>
        <pt x="43" y="3" on="0"/>
        <pt x="35" y="8" on="1"/>
        <pt x="58" y="65" on="1"/>
        <pt x="64" y="61" on="0"/>
        <pt x="98" y="50" on="0"/>
        <pt x="124" y="50" on="1"/>
        <pt x="156" y="50" on="0"/>
        <pt x="209" y="71" on="0"/>
        <pt x="254" y="105" on="0"/>
        <pt x="293" y="151" on="0"/>
        <pt x="310" y="176" on="1"/>
        <pt x="284" y="251" on="0"/>
        <pt x="244" y="394" on="0"/>
        <pt x="213" y="525" on="0"/>
        <pt x="190" y="643" on="0"/>
        <pt x="182" y="693" on="1"/>
        <pt x="254" y="693" on="1"/>
        <pt x="265" y="601" on="0"/>
        <pt x="310" y="372" on="0"/>
      </contour>
    </TTGlyph>
    <TTGlyph name="afii10038" xMin="128" yMin="0" xMax="848" yMax="738">
      <component glyphName="Phi" x="0" y="0" flags="0x204"/>
    </TTGlyph>
    <TTGlyph name="afii10039" xMin="10" yMin="0" xMax="680" yMax="693">
      <component glyphName="X" x="0" y="0" flags="0x204"/>
    </TTGlyph>
    <TTGlyph name="afii10040" xMin="83" yMin="-185" xMax="741" yMax="693">
      <contour>
        <pt x="249" y="693" on="1"/>
        <pt x="317" y="693" on="1"/>
        <pt x="165" y="59" on="1"/>
        <pt x="521" y="59" on="1"/>
        <pt x="673" y="693" on="1"/>
        <pt x="741" y="693" on="1"/>
        <pt x="589" y="59" on="1"/>
        <pt x="659" y="59" on="1"/>
        <pt x="600" y="-185" on="1"/>
        <pt x="535" y="-185" on="1"/>
        <pt x="580" y="0" on="1"/>
        <pt x="83" y="0" on="1"/>
      </contour>
    </TTGlyph>
    <TTGlyph name="afii10041" xMin="153" yMin="0" xMax="649" yMax="693">
      <contour>
        <pt x="481" y="277" on="1"/>
        <pt x="472" y="273" on="0"/>
        <pt x="436" y="264" on="0"/>
        <pt x="395" y="257" on="0"/>
        <pt x="354" y="252" on="0"/>
        <pt x="339" y="252" on="1"/>
        <pt x="244" y="252" on="0"/>
        <pt x="153" y="336" on="0"/>
        <pt x="153" y="414" on="1"/>
        <pt x="153" y="454" on="0"/>
        <pt x="165" y="504" on="1"/>
        <pt x="212" y="693" on="1"/>
        <pt x="280" y="693" on="1"/>
        <pt x="231" y="495" on="1"/>
        <pt x="226" y="475" on="0"/>
        <pt x="221" y="441" on="0"/>
        <pt x="221" y="424" on="1"/>
        <pt x="221" y="373" on="0"/>
        <pt x="282" y="312" on="0"/>
        <pt x="354" y="312" on="1"/>
        <pt x="395" y="312" on="0"/>
        <pt x="473" y="330" on="0"/>
        <pt x="495" y="336" on="1"/>
        <pt x="581" y="693" on="1"/>
        <pt x="649" y="693" on="1"/>
        <pt x="482" y="0" on="1"/>
        <pt x="414" y="0" on="1"/>
      </contour>
    </TTGlyph>
    <TTGlyph name="afii10042" xMin="83" yMin="0" xMax="1011" yMax="693">
      <contour>
        <pt x="249" y="693" on="1"/>
        <pt x="317" y="693" on="1"/>
        <pt x="165" y="59" on="1"/>
        <pt x="444" y="59" on="1"/>
        <pt x="596" y="693" on="1"/>
        <pt x="664" y="693" on="1"/>
        <pt x="512" y="59" on="1"/>
        <pt x="791" y="59" on="1"/>
        <pt x="943" y="693" on="1"/>
        <pt x="1011" y="693" on="1"/>
        <pt x="846" y="0" on="1"/>
        <pt x="83" y="0" on="1"/>
      </contour>
    </TTGlyph>
    <TTGlyph name="afii10043" xMin="83" yMin="-185" xMax="1011" yMax="693">
      <contour>
        <pt x="249" y="693" on="1"/>
        <pt x="317" y="693" on="1"/>
        <pt x="165" y="59" on="1"/>
        <pt x="444" y="59" on="1"/>
        <pt x="596" y="693" on="1"/>
        <pt x="664" y="693" on="1"/>
        <pt x="512" y="59" on="1"/>
        <pt x="791" y="59" on="1"/>
        <pt x="943" y="693" on="1"/>
        <pt x="1011" y="693" on="1"/>
        <pt x="859" y="59" on="1"/>
        <pt x="929" y="59" on="1"/>
        <pt x="870" y="-185" on="1"/>
        <pt x="805" y="-185" on="1"/>
        <pt x="850" y="0" on="1"/>
        <pt x="83" y="0" on="1"/>
      </contour>
    </TTGlyph>
    <TTGlyph name="afii10044" xMin="158" yMin="-6" xMax="680" yMax="693">
      <contour>
        <pt x="321" y="634" on="1"/>
        <pt x="158" y="634" on="1"/>
        <pt x="172" y="693" on="1"/>
        <pt x="403" y="693" on="1"/>
        <pt x="340" y="428" on="1"/>
        <pt x="372" y="430" on="0"/>
        <pt x="414" y="434" on="0"/>
        <pt x="434" y="434" on="1"/>
        <pt x="489" y="434" on="0"/>
        <pt x="580" y="417" on="0"/>
        <pt x="644" y="378" on="0"/>
        <pt x="680" y="315" on="0"/>
        <pt x="680" y="269" on="1"/>
        <pt x="680" y="189" on="0"/>
        <pt x="621" y="83" on="0"/>
        <pt x="527" y="20" on="0"/>
        <pt x="408" y="-6" on="0"/>
        <pt x="347" y="-6" on="1"/>
        <pt x="326" y="-6" on="0"/>
        <pt x="278" y="-3" on="0"/>
        <pt x="231" y="1" on="0"/>
        <pt x="188" y="8" on="0"/>
        <pt x="172" y="13" on="1"/>
      </contour>
      <contour>
        <pt x="251" y="60" on="1"/>
        <pt x="259" y="59" on="0"/>
        <pt x="310" y="53" on="0"/>
        <pt x="348" y="53" on="1"/>
        <pt x="394" y="53" on="0"/>
        <pt x="488" y="69" on="0"/>
        <pt x="564" y="115" on="0"/>
        <pt x="612" y="196" on="0"/>
        <pt x="612" y="262" on="1"/>
        <pt x="612" y="298" on="0"/>
        <pt x="584" y="342" on="0"/>
        <pt x="534" y="367" on="0"/>
        <pt x="468" y="375" on="0"/>
        <pt x="431" y="375" on="1"/>
        <pt x="379" y="375" on="0"/>
        <pt x="336" y="370" on="0"/>
        <pt x="326" y="369" on="1"/>
      </contour>
    </TTGlyph>
    <TTGlyph name="afii10045" xMin="83" yMin="-6" xMax="862" yMax="693">
      <contour>
        <pt x="246" y="693" on="1"/>
        <pt x="314" y="693" on="1"/>
        <pt x="251" y="428" on="1"/>
        <pt x="281" y="430" on="0"/>
        <pt x="321" y="434" on="0"/>
        <pt x="341" y="434" on="1"/>
        <pt x="393" y="434" on="0"/>
        <pt x="480" y="417" on="0"/>
        <pt x="542" y="378" on="0"/>
        <pt x="576" y="315" on="0"/>
        <pt x="576" y="269" on="1"/>
        <pt x="576" y="189" on="0"/>
        <pt x="520" y="83" on="0"/>
        <pt x="428" y="20" on="0"/>
        <pt x="313" y="-6" on="0"/>
        <pt x="254" y="-6" on="1"/>
        <pt x="233" y="-6" on="0"/>
        <pt x="186" y="-3" on="0"/>
        <pt x="140" y="1" on="0"/>
        <pt x="99" y="8" on="0"/>
        <pt x="83" y="13" on="1"/>
      </contour>
      <contour>
        <pt x="162" y="60" on="1"/>
        <pt x="170" y="59" on="0"/>
        <pt x="219" y="53" on="0"/>
        <pt x="255" y="53" on="1"/>
        <pt x="299" y="53" on="0"/>
        <pt x="389" y="69" on="0"/>
        <pt x="462" y="115" on="0"/>
        <pt x="508" y="196" on="0"/>
        <pt x="508" y="262" on="1"/>
        <pt x="508" y="298" on="0"/>
        <pt x="481" y="342" on="0"/>
        <pt x="435" y="367" on="0"/>
        <pt x="373" y="375" on="0"/>
        <pt x="338" y="375" on="1"/>
        <pt x="313" y="375" on="0"/>
        <pt x="279" y="373" on="0"/>
        <pt x="256" y="371" on="0"/>
        <pt x="242" y="369" on="0"/>
        <pt x="237" y="369" on="1"/>
      </contour>
      <contour>
        <pt x="794" y="693" on="1"/>
        <pt x="862" y="693" on="1"/>
        <pt x="695" y="0" on="1"/>
        <pt x="627" y="0" on="1"/>
      </contour>
    </TTGlyph>
    <TTGlyph name="afii10046" xMin="83" yMin="-6" xMax="591" yMax="693">
      <contour>
        <pt x="246" y="693" on="1"/>
        <pt x="314" y="693" on="1"/>
        <pt x="251" y="428" on="1"/>
        <pt x="283" y="430" on="0"/>
        <pt x="325" y="434" on="0"/>
        <pt x="345" y="434" on="1"/>
        <pt x="400" y="434" on="0"/>
        <pt x="491" y="417" on="0"/>
        <pt x="555" y="378" on="0"/>
        <pt x="591" y="315" on="0"/>
        <pt x="591" y="269" on="1"/>
        <pt x="591" y="189" on="0"/>
        <pt x="532" y="83" on="0"/>
        <pt x="438" y="20" on="0"/>
        <pt x="319" y="-6" on="0"/>
        <pt x="258" y="-6" on="1"/>
        <pt x="237" y="-6" on="0"/>
        <pt x="189" y="-3" on="0"/>
        <pt x="142" y="1" on="0"/>
        <pt x="99" y="8" on="0"/>
        <pt x="83" y="13" on="1"/>
      </contour>
      <contour>
        <pt x="162" y="60" on="1"/>
        <pt x="170" y="59" on="0"/>
        <pt x="221" y="53" on="0"/>
        <pt x="259" y="53" on="1"/>
        <pt x="305" y="53" on="0"/>
        <pt x="399" y="69" on="0"/>
        <pt x="475" y="115" on="0"/>
        <pt x="523" y="196" on="0"/>
        <pt x="523" y="262" on="1"/>
        <pt x="523" y="298" on="0"/>
        <pt x="495" y="342" on="0"/>
        <pt x="445" y="367" on="0"/>
        <pt x="379" y="375" on="0"/>
        <pt x="342" y="375" on="1"/>
        <pt x="290" y="375" on="0"/>
        <pt x="247" y="370" on="0"/>
        <pt x="237" y="369" on="1"/>
      </contour>
    </TTGlyph>
    <TTGlyph name="afii10047" xMin="33" yMin="-15" xMax="606" yMax="708">
      <contour>
        <pt x="208" y="46" on="1"/>
        <pt x="278" y="46" on="0"/>
        <pt x="384" y="95" on="0"/>
        <pt x="461" y="174" on="0"/>
        <pt x="509" y="274" on="0"/>
        <pt x="521" y="326" on="1"/>
        <pt x="225" y="326" on="1"/>
        <pt x="239" y="384" on="1"/>
        <pt x="531" y="384" on="1"/>
        <pt x="534" y="411" on="0"/>
        <pt x="534" y="437" on="1"/>
        <pt x="534" y="537" on="0"/>
        <pt x="446" y="647" on="0"/>
        <pt x="343" y="647" on="1"/>
        <pt x="299" y="647" on="0"/>
        <pt x="227" y="632" on="0"/>
        <pt x="193" y="617" on="1"/>
        <pt x="188" y="676" on="1"/>
        <pt x="200" y="681" on="0"/>
        <pt x="230" y="692" on="0"/>
        <pt x="271" y="702" on="0"/>
        <pt x="325" y="708" on="0"/>
        <pt x="360" y="708" on="1"/>
        <pt x="477" y="708" on="0"/>
        <pt x="606" y="568" on="0"/>
        <pt x="606" y="439" on="1"/>
        <pt x="606" y="356" on="0"/>
        <pt x="557" y="193" on="0"/>
        <pt x="456" y="64" on="0"/>
        <pt x="302" y="-15" on="0"/>
        <pt x="197" y="-15" on="1"/>
        <pt x="141" y="-15" on="0"/>
        <pt x="53" y="12" on="0"/>
        <pt x="33" y="24" on="1"/>
        <pt x="66" y="87" on="1"/>
        <pt x="86" y="74" on="0"/>
        <pt x="157" y="46" on="0"/>
      </contour>
    </TTGlyph>
    <TTGlyph name="afii10048" xMin="83" yMin="-15" xMax="1008" yMax="708">
      <contour>
        <pt x="406" y="258" on="1"/>
        <pt x="406" y="278" on="0"/>
        <pt x="409" y="315" on="0"/>
        <pt x="411" y="333" on="1"/>
        <pt x="231" y="333" on="1"/>
        <pt x="151" y="0" on="1"/>
        <pt x="83" y="0" on="1"/>
        <pt x="249" y="693" on="1"/>
        <pt x="317" y="693" on="1"/>
        <pt x="243" y="392" on="1"/>
        <pt x="422" y="392" on="1"/>
        <pt x="440" y="466" on="0"/>
        <pt x="514" y="583" on="0"/>
        <pt x="610" y="665" on="0"/>
        <pt x="723" y="708" on="0"/>
        <pt x="781" y="708" on="1"/>
        <pt x="826" y="708" on="0"/>
        <pt x="909" y="675" on="0"/>
        <pt x="971" y="608" on="0"/>
        <pt x="1008" y="505" on="0"/>
        <pt x="1008" y="436" on="1"/>
        <pt x="1008" y="332" on="0"/>
        <pt x="943" y="165" on="0"/>
        <pt x="837" y="48" on="0"/>
        <pt x="703" y="-15" on="0"/>
        <pt x="633" y="-15" on="1"/>
        <pt x="588" y="-15" on="0"/>
        <pt x="505" y="18" on="0"/>
        <pt x="443" y="85" on="0"/>
        <pt x="406" y="188" on="0"/>
      </contour>
      <contour>
        <pt x="478" y="247" on="1"/>
        <pt x="478" y="196" on="0"/>
        <pt x="503" y="120" on="0"/>
        <pt x="547" y="71" on="0"/>
        <pt x="606" y="46" on="0"/>
        <pt x="639" y="46" on="1"/>
        <pt x="696" y="46" on="0"/>
        <pt x="803" y="99" on="0"/>
        <pt x="886" y="201" on="0"/>
        <pt x="936" y="350" on="0"/>
        <pt x="936" y="446" on="1"/>
        <pt x="936" y="497" on="0"/>
        <pt x="911" y="573" on="0"/>
        <pt x="867" y="622" on="0"/>
        <pt x="808" y="647" on="0"/>
        <pt x="775" y="647" on="1"/>
        <pt x="718" y="647" on="0"/>
        <pt x="611" y="594" on="0"/>
        <pt x="528" y="492" on="0"/>
        <pt x="478" y="343" on="0"/>
      </contour>
    </TTGlyph>
    <TTGlyph name="afii10049" xMin="28" yMin="0" xMax="657" yMax="700">
      <contour>
        <pt x="508" y="338" on="1"/>
        <pt x="579" y="633" on="1"/>
        <pt x="574" y="634" on="0"/>
        <pt x="510" y="640" on="0"/>
        <pt x="473" y="640" on="1"/>
        <pt x="430" y="640" on="0"/>
        <pt x="341" y="622" on="0"/>
        <pt x="268" y="578" on="0"/>
        <pt x="222" y="503" on="0"/>
        <pt x="222" y="446" on="1"/>
        <pt x="222" y="411" on="0"/>
        <pt x="247" y="368" on="0"/>
        <pt x="293" y="345" on="0"/>
        <pt x="358" y="338" on="0"/>
        <pt x="398" y="338" on="1"/>
      </contour>
      <contour>
        <pt x="28" y="0" on="1"/>
        <pt x="53" y="37" on="0"/>
        <pt x="114" y="119" on="0"/>
        <pt x="175" y="199" on="0"/>
        <pt x="233" y="272" on="0"/>
        <pt x="257" y="300" on="1"/>
        <pt x="237" y="305" on="0"/>
        <pt x="199" y="326" on="0"/>
        <pt x="170" y="360" on="0"/>
        <pt x="153" y="409" on="0"/>
        <pt x="153" y="442" on="1"/>
        <pt x="153" y="502" on="0"/>
        <pt x="202" y="598" on="0"/>
        <pt x="289" y="664" on="0"/>
        <pt x="408" y="700" on="0"/>
        <pt x="477" y="700" on="1"/>
        <pt x="497" y="700" on="0"/>
        <pt x="547" y="697" on="0"/>
        <pt x="597" y="692" on="0"/>
        <pt x="642" y="685" on="0"/>
        <pt x="657" y="680" on="1"/>
        <pt x="496" y="0" on="1"/>
        <pt x="428" y="0" on="1"/>
        <pt x="495" y="280" on="1"/>
        <pt x="389" y="280" on="1"/>
        <pt x="353" y="280" on="0"/>
        <pt x="325" y="283" on="1"/>
        <pt x="302" y="258" on="0"/>
        <pt x="244" y="190" on="0"/>
        <pt x="184" y="114" on="0"/>
        <pt x="125" y="35" on="0"/>
        <pt x="100" y="0" on="1"/>
      </contour>
    </TTGlyph>
    <TTGlyph name="afii10050" xMin="83" yMin="0" xMax="643" yMax="825">
      <contour>
        <pt x="249" y="693" on="1"/>
        <pt x="547" y="693" on="1"/>
        <pt x="579" y="825" on="1"/>
        <pt x="643" y="825" on="1"/>
        <pt x="597" y="634" on="1"/>
        <pt x="303" y="634" on="1"/>
        <pt x="151" y="0" on="1"/>
        <pt x="83" y="0" on="1"/>
      </contour>
    </TTGlyph>
    <TTGlyph name="afii10051" xMin="168" yMin="-2" xMax="717" yMax="693">
      <contour>
        <pt x="366" y="634" on="1"/>
        <pt x="168" y="634" on="1"/>
        <pt x="182" y="693" on="1"/>
        <pt x="672" y="693" on="1"/>
        <pt x="659" y="634" on="1"/>
        <pt x="434" y="634" on="1"/>
        <pt x="380" y="414" on="1"/>
        <pt x="454" y="437" on="0"/>
        <pt x="520" y="437" on="1"/>
        <pt x="571" y="437" on="0"/>
        <pt x="645" y="407" on="0"/>
        <pt x="694" y="353" on="0"/>
        <pt x="717" y="281" on="0"/>
        <pt x="717" y="239" on="1"/>
        <pt x="717" y="192" on="0"/>
        <pt x="687" y="106" on="0"/>
        <pt x="630" y="38" on="0"/>
        <pt x="548" y="-2" on="0"/>
        <pt x="496" y="-2" on="1"/>
        <pt x="471" y="-2" on="0"/>
        <pt x="441" y="4" on="1"/>
        <pt x="456" y="59" on="1"/>
        <pt x="472" y="55" on="0"/>
        <pt x="492" y="55" on="1"/>
        <pt x="530" y="55" on="0"/>
        <pt x="588" y="83" on="0"/>
        <pt x="627" y="131" on="0"/>
        <pt x="646" y="197" on="0"/>
        <pt x="646" y="235" on="1"/>
        <pt x="646" y="301" on="0"/>
        <pt x="574" y="377" on="0"/>
        <pt x="493" y="377" on="1"/>
        <pt x="434" y="377" on="0"/>
        <pt x="367" y="356" on="1"/>
        <pt x="282" y="0" on="1"/>
        <pt x="214" y="0" on="1"/>
      </contour>
    </TTGlyph>
    <TTGlyph name="afii10052" xMin="83" yMin="0" xMax="617" yMax="929">
      <component glyphName="afii10020" x="0" y="0" flags="0x204"/>
      <component glyphName="acute" x="165" y="156" flags="0x4"/>
    </TTGlyph>
    <TTGlyph name="afii10053" xMin="138" yMin="-15" xMax="705" yMax="708">
      <contour>
        <pt x="212" y="325" on="1"/>
        <pt x="210" y="306" on="0"/>
        <pt x="209" y="274" on="0"/>
        <pt x="209" y="258" on="1"/>
        <pt x="209" y="202" on="0"/>
        <pt x="234" y="121" on="0"/>
        <pt x="281" y="70" on="0"/>
        <pt x="348" y="46" on="0"/>
        <pt x="391" y="46" on="1"/>
        <pt x="431" y="46" on="0"/>
        <pt x="491" y="55" on="0"/>
        <pt x="533" y="68" on="0"/>
        <pt x="561" y="82" on="0"/>
        <pt x="570" y="87" on="1"/>
        <pt x="579" y="27" on="1"/>
        <pt x="573" y="23" on="0"/>
        <pt x="541" y="9" on="0"/>
        <pt x="493" y="-5" on="0"/>
        <pt x="427" y="-15" on="0"/>
        <pt x="387" y="-15" on="1"/>
        <pt x="260" y="-15" on="0"/>
        <pt x="138" y="129" on="0"/>
        <pt x="138" y="261" on="1"/>
        <pt x="138" y="366" on="0"/>
        <pt x="206" y="531" on="0"/>
        <pt x="317" y="647" on="0"/>
        <pt x="458" y="708" on="0"/>
        <pt x="530" y="708" on="1"/>
        <pt x="573" y="708" on="0"/>
        <pt x="636" y="697" on="0"/>
        <pt x="678" y="683" on="0"/>
        <pt x="702" y="670" on="0"/>
        <pt x="705" y="668" on="1"/>
        <pt x="674" y="606" on="1"/>
        <pt x="666" y="610" on="0"/>
        <pt x="641" y="624" on="0"/>
        <pt x="605" y="638" on="0"/>
        <pt x="557" y="647" on="0"/>
        <pt x="527" y="647" on="1"/>
        <pt x="468" y="647" on="0"/>
        <pt x="368" y="603" on="0"/>
        <pt x="291" y="530" on="0"/>
        <pt x="237" y="435" on="0"/>
        <pt x="224" y="383" on="1"/>
        <pt x="526" y="383" on="1"/>
        <pt x="511" y="325" on="1"/>
        <pt x="212" y="325" on="1"/>
      </contour>
    </TTGlyph>
    <TTGlyph name="afii10054" xMin="48" yMin="-15" xMax="589" yMax="708">
      <component glyphName="S" x="0" y="0" flags="0x204"/>
    </TTGlyph>
    <TTGlyph name="afii10055" xMin="83" yMin="0" xMax="317" yMax="693">
      <component glyphName="I" x="0" y="0" flags="0x204"/>
    </TTGlyph>
    <TTGlyph name="afii10056" xMin="83" yMin="0" xMax="447" yMax="877">
      <component glyphName="I" x="0" y="0" flags="0x204"/>
      <component glyphName="dieresis" x="5" y="156" flags="0x4"/>
    </TTGlyph>
    <TTGlyph name="afii10057" xMin="18" yMin="-15" xMax="537" yMax="693">
      <component glyphName="J" x="0" y="0" flags="0x204"/>
    </TTGlyph>
    <TTGlyph name="afii10058" xMin="18" yMin="-7" xMax="970" yMax="693">
      <contour>
        <pt x="555" y="60" on="1"/>
        <pt x="563" y="58" on="0"/>
        <pt x="615" y="53" on="0"/>
        <pt x="644" y="53" on="1"/>
        <pt x="686" y="53" on="0"/>
        <pt x="778" y="69" on="0"/>
        <pt x="853" y="116" on="0"/>
        <pt x="902" y="199" on="0"/>
        <pt x="902" y="265" on="1"/>
        <pt x="902" y="299" on="0"/>
        <pt x="874" y="342" on="0"/>
        <pt x="826" y="366" on="0"/>
        <pt x="763" y="375" on="0"/>
        <pt x="729" y="375" on="1"/>
        <pt x="681" y="375" on="0"/>
        <pt x="632" y="371" on="0"/>
        <pt x="629" y="369" on="1"/>
      </contour>
      <contour>
        <pt x="415" y="634" on="1"/>
        <pt x="406" y="597" on="1"/>
        <pt x="385" y="512" on="0"/>
        <pt x="330" y="317" on="0"/>
        <pt x="295" y="228" on="1"/>
        <pt x="285" y="202" on="0"/>
        <pt x="248" y="126" on="0"/>
        <pt x="185" y="53" on="0"/>
        <pt x="91" y="-2" on="0"/>
        <pt x="24" y="-7" on="1"/>
        <pt x="18" y="50" on="1"/>
        <pt x="51" y="56" on="0"/>
        <pt x="107" y="77" on="0"/>
        <pt x="157" y="120" on="0"/>
        <pt x="204" y="191" on="0"/>
        <pt x="228" y="247" on="1"/>
        <pt x="256" y="311" on="0"/>
        <pt x="306" y="497" on="0"/>
        <pt x="338" y="630" on="1"/>
        <pt x="353" y="693" on="1"/>
        <pt x="706" y="693" on="1"/>
        <pt x="643" y="428" on="1"/>
        <pt x="668" y="430" on="0"/>
        <pt x="717" y="434" on="0"/>
        <pt x="737" y="434" on="1"/>
        <pt x="849" y="434" on="0"/>
        <pt x="970" y="354" on="0"/>
        <pt x="970" y="269" on="1"/>
        <pt x="970" y="135" on="0"/>
        <pt x="800" y="-6" on="0"/>
        <pt x="648" y="-6" on="1"/>
        <pt x="629" y="-6" on="0"/>
        <pt x="583" y="-4" on="0"/>
        <pt x="535" y="1" on="0"/>
        <pt x="492" y="8" on="0"/>
        <pt x="476" y="13" on="1"/>
        <pt x="626" y="634" on="1"/>
      </contour>
    </TTGlyph>
    <TTGlyph name="afii10059" xMin="83" yMin="-6" xMax="992" yMax="693">
      <contour>
        <pt x="249" y="693" on="1"/>
        <pt x="317" y="693" on="1"/>
        <pt x="247" y="410" on="1"/>
        <pt x="592" y="410" on="1"/>
        <pt x="660" y="693" on="1"/>
        <pt x="728" y="693" on="1"/>
        <pt x="665" y="428" on="1"/>
        <pt x="690" y="430" on="0"/>
        <pt x="739" y="434" on="0"/>
        <pt x="759" y="434" on="1"/>
        <pt x="871" y="434" on="0"/>
        <pt x="992" y="354" on="0"/>
        <pt x="992" y="269" on="1"/>
        <pt x="992" y="135" on="0"/>
        <pt x="822" y="-6" on="0"/>
        <pt x="670" y="-6" on="1"/>
        <pt x="651" y="-6" on="0"/>
        <pt x="605" y="-4" on="0"/>
        <pt x="557" y="1" on="0"/>
        <pt x="514" y="8" on="0"/>
        <pt x="498" y="13" on="1"/>
        <pt x="578" y="351" on="1"/>
        <pt x="235" y="351" on="1"/>
        <pt x="151" y="0" on="1"/>
        <pt x="83" y="0" on="1"/>
      </contour>
      <contour>
        <pt x="574" y="56" on="1"/>
        <pt x="582" y="54" on="0"/>
        <pt x="628" y="50" on="0"/>
        <pt x="662" y="50" on="1"/>
        <pt x="707" y="50" on="0"/>
        <pt x="799" y="69" on="0"/>
        <pt x="874" y="117" on="0"/>
        <pt x="922" y="200" on="0"/>
        <pt x="922" y="265" on="1"/>
        <pt x="922" y="299" on="0"/>
        <pt x="891" y="341" on="0"/>
        <pt x="843" y="365" on="0"/>
        <pt x="786" y="374" on="0"/>
        <pt x="760" y="374" on="1"/>
        <pt x="748" y="374" on="0"/>
        <pt x="718" y="373" on="0"/>
        <pt x="686" y="371" on="0"/>
        <pt x="658" y="368" on="0"/>
        <pt x="649" y="366" on="1"/>
      </contour>
    </TTGlyph>
    <TTGlyph name="afii10060" xMin="182" yMin="0" xMax="704" yMax="693">
      <contour>
        <pt x="514" y="374" on="1"/>
        <pt x="485" y="374" on="0"/>
        <pt x="414" y="364" on="0"/>
        <pt x="380" y="354" on="1"/>
        <pt x="296" y="0" on="1"/>
        <pt x="228" y="0" on="1"/>
        <pt x="380" y="634" on="1"/>
        <pt x="182" y="634" on="1"/>
        <pt x="196" y="693" on="1"/>
        <pt x="686" y="693" on="1"/>
        <pt x="673" y="634" on="1"/>
        <pt x="448" y="634" on="1"/>
        <pt x="394" y="413" on="1"/>
        <pt x="430" y="424" on="0"/>
        <pt x="508" y="434" on="0"/>
        <pt x="541" y="434" on="1"/>
        <pt x="627" y="434" on="0"/>
        <pt x="704" y="362" on="0"/>
        <pt x="704" y="296" on="1"/>
        <pt x="704" y="261" on="0"/>
        <pt x="693" y="212" on="1"/>
        <pt x="642" y="0" on="1"/>
        <pt x="574" y="0" on="1"/>
        <pt x="624" y="207" on="1"/>
        <pt x="629" y="227" on="0"/>
        <pt x="635" y="265" on="0"/>
        <pt x="635" y="282" on="1"/>
        <pt x="635" y="303" on="0"/>
        <pt x="623" y="337" on="0"/>
        <pt x="595" y="361" on="0"/>
        <pt x="549" y="374" on="0"/>
      </contour>
    </TTGlyph>
    <TTGlyph name="afii10061" xMin="83" yMin="0" xMax="724" yMax="929">
      <component glyphName="K" x="0" y="0" flags="0x204"/>
      <component glyphName="acute" x="179" y="156" flags="0x4"/>
    </TTGlyph>
    <TTGlyph name="afii10062" xMin="35" yMin="-9" xMax="685" yMax="894">
      <component glyphName="afii10037" x="0" y="0" flags="0x204"/>
      <component glyphName="kratka" x="130" y="156" flags="0x4"/>
    </TTGlyph>
    <TTGlyph name="afii10065" xMin="98" yMin="-13" xMax="564" yMax="529">
      <component glyphName="a" x="0" y="0" flags="0x204"/>
    </TTGlyph>
    <TTGlyph name="afii10066" xMin="108" yMin="-12" xMax="630" yMax="776">
      <contour>
        <pt x="528" y="697" on="1"/>
        <pt x="464" y="692" on="0"/>
        <pt x="371" y="655" on="0"/>
        <pt x="302" y="594" on="0"/>
        <pt x="255" y="511" on="0"/>
        <pt x="237" y="461" on="1"/>
        <pt x="264" y="479" on="0"/>
        <pt x="311" y="499" on="0"/>
        <pt x="351" y="510" on="0"/>
        <pt x="382" y="512" on="0"/>
        <pt x="393" y="512" on="1"/>
        <pt x="434" y="512" on="0"/>
        <pt x="493" y="482" on="0"/>
        <pt x="530" y="432" on="0"/>
        <pt x="548" y="370" on="0"/>
        <pt x="548" y="339" on="1"/>
        <pt x="548" y="309" on="0"/>
        <pt x="537" y="233" on="0"/>
        <pt x="512" y="155" on="0"/>
        <pt x="471" y="81" on="0"/>
        <pt x="410" y="23" on="0"/>
        <pt x="328" y="-12" on="0"/>
        <pt x="274" y="-12" on="1"/>
        <pt x="230" y="-12" on="0"/>
        <pt x="167" y="19" on="0"/>
        <pt x="127" y="71" on="0"/>
        <pt x="108" y="137" on="0"/>
        <pt x="108" y="172" on="1"/>
        <pt x="108" y="206" on="0"/>
        <pt x="119" y="290" on="0"/>
        <pt x="129" y="327" on="1"/>
        <pt x="153" y="418" on="0"/>
        <pt x="207" y="565" on="0"/>
        <pt x="292" y="673" on="0"/>
        <pt x="423" y="741" on="0"/>
        <pt x="524" y="754" on="1"/>
        <pt x="566" y="759" on="0"/>
        <pt x="613" y="771" on="0"/>
        <pt x="630" y="776" on="1"/>
        <pt x="627" y="717" on="1"/>
        <pt x="616" y="713" on="0"/>
        <pt x="566" y="700" on="0"/>
      </contour>
      <contour>
        <pt x="369" y="453" on="1"/>
        <pt x="358" y="453" on="0"/>
        <pt x="326" y="448" on="0"/>
        <pt x="285" y="434" on="0"/>
        <pt x="239" y="408" on="0"/>
        <pt x="215" y="388" on="1"/>
        <pt x="199" y="334" on="0"/>
        <pt x="178" y="235" on="0"/>
        <pt x="178" y="184" on="1"/>
        <pt x="178" y="120" on="0"/>
        <pt x="223" y="47" on="0"/>
        <pt x="288" y="47" on="1"/>
        <pt x="337" y="47" on="0"/>
        <pt x="408" y="102" on="0"/>
        <pt x="455" y="186" on="0"/>
        <pt x="478" y="285" on="0"/>
        <pt x="478" y="329" on="1"/>
        <pt x="478" y="356" on="0"/>
        <pt x="468" y="401" on="0"/>
        <pt x="444" y="434" on="0"/>
        <pt x="402" y="453" on="0"/>
      </contour>
    </TTGlyph>
    <TTGlyph name="afii10066.locl" xMin="98" yMin="-13" xMax="597" yMax="776">
      <contour>
        <pt x="98" y="189" on="1"/>
        <pt x="98" y="232" on="0"/>
        <pt x="124" y="322" on="0"/>
        <pt x="179" y="405" on="0"/>
        <pt x="263" y="473" on="0"/>
        <pt x="320" y="495" on="1"/>
        <pt x="318" y="497" on="1"/>
        <pt x="283" y="520" on="0"/>
        <pt x="244" y="582" on="0"/>
        <pt x="244" y="613" on="1"/>
        <pt x="244" y="660" on="0"/>
        <pt x="284" y="721" on="0"/>
        <pt x="345" y="757" on="0"/>
        <pt x="420" y="771" on="0"/>
        <pt x="455" y="771" on="1"/>
        <pt x="503" y="771" on="0"/>
        <pt x="575" y="772" on="0"/>
        <pt x="597" y="776" on="1"/>
        <pt x="586" y="715" on="1"/>
        <pt x="551" y="712" on="0"/>
        <pt x="491" y="712" on="0"/>
        <pt x="449" y="712" on="1"/>
        <pt x="383" y="712" on="0"/>
        <pt x="308" y="672" on="0"/>
        <pt x="308" y="619" on="1"/>
        <pt x="308" y="594" on="0"/>
        <pt x="343" y="558" on="0"/>
        <pt x="394" y="522" on="0"/>
        <pt x="455" y="482" on="0"/>
        <pt x="506" y="426" on="0"/>
        <pt x="541" y="348" on="0"/>
        <pt x="541" y="293" on="1"/>
        <pt x="541" y="218" on="0"/>
        <pt x="495" y="104" on="0"/>
        <pt x="420" y="27" on="0"/>
        <pt x="326" y="-13" on="0"/>
        <pt x="277" y="-13" on="1"/>
        <pt x="231" y="-13" on="0"/>
        <pt x="163" y="19" on="0"/>
        <pt x="119" y="75" on="0"/>
        <pt x="98" y="148" on="0"/>
      </contour>
      <contour>
        <pt x="477" y="287" on="1"/>
        <pt x="477" y="313" on="0"/>
        <pt x="471" y="357" on="0"/>
        <pt x="450" y="398" on="0"/>
        <pt x="408" y="438" on="0"/>
        <pt x="372" y="461" on="1"/>
        <pt x="318" y="444" on="0"/>
        <pt x="239" y="384" on="0"/>
        <pt x="187" y="311" on="0"/>
        <pt x="162" y="230" on="0"/>
        <pt x="162" y="193" on="1"/>
        <pt x="162" y="129" on="0"/>
        <pt x="224" y="47" on="0"/>
        <pt x="284" y="47" on="1"/>
        <pt x="320" y="47" on="0"/>
        <pt x="389" y="78" on="0"/>
        <pt x="443" y="139" on="0"/>
        <pt x="477" y="228" on="0"/>
      </contour>
    </TTGlyph>
    <TTGlyph name="afii10067" xMin="73" yMin="-11" xMax="533" yMax="531">
      <contour>
        <pt x="153" y="345" on="1"/>
        <pt x="176" y="443" on="0"/>
        <pt x="294" y="531" on="0"/>
        <pt x="377" y="531" on="1"/>
        <pt x="457" y="531" on="0"/>
        <pt x="533" y="466" on="0"/>
        <pt x="533" y="408" on="1"/>
        <pt x="533" y="377" on="0"/>
        <pt x="518" y="332" on="0"/>
        <pt x="492" y="301" on="0"/>
        <pt x="457" y="280" on="0"/>
        <pt x="436" y="272" on="1"/>
        <pt x="478" y="258" on="0"/>
        <pt x="515" y="206" on="0"/>
        <pt x="515" y="159" on="1"/>
        <pt x="515" y="129" on="0"/>
        <pt x="493" y="69" on="0"/>
        <pt x="436" y="20" on="0"/>
        <pt x="339" y="-11" on="0"/>
        <pt x="265" y="-11" on="1"/>
        <pt x="211" y="-11" on="0"/>
        <pt x="110" y="1" on="0"/>
        <pt x="73" y="12" on="1"/>
      </contour>
      <contour>
        <pt x="295" y="300" on="1"/>
        <pt x="328" y="300" on="0"/>
        <pt x="390" y="307" on="0"/>
        <pt x="439" y="331" on="0"/>
        <pt x="468" y="375" on="0"/>
        <pt x="468" y="413" on="1"/>
        <pt x="468" y="444" on="0"/>
        <pt x="419" y="476" on="0"/>
        <pt x="377" y="476" on="1"/>
        <pt x="353" y="476" on="0"/>
        <pt x="304" y="463" on="0"/>
        <pt x="262" y="436" on="0"/>
        <pt x="230" y="394" on="0"/>
        <pt x="223" y="366" on="1"/>
        <pt x="207" y="300" on="1"/>
      </contour>
      <contour>
        <pt x="149" y="56" on="1"/>
        <pt x="164" y="53" on="0"/>
        <pt x="220" y="46" on="0"/>
        <pt x="264" y="46" on="1"/>
        <pt x="299" y="46" on="0"/>
        <pt x="366" y="56" on="0"/>
        <pt x="418" y="82" on="0"/>
        <pt x="450" y="129" on="0"/>
        <pt x="450" y="165" on="1"/>
        <pt x="450" y="195" on="0"/>
        <pt x="420" y="228" on="0"/>
        <pt x="373" y="243" on="0"/>
        <pt x="314" y="246" on="0"/>
        <pt x="284" y="246" on="1"/>
        <pt x="194" y="246" on="1"/>
      </contour>
    </TTGlyph>
    <TTGlyph name="afii10068" xMin="68" yMin="-12" xMax="442" yMax="529">
      <contour>
        <pt x="381" y="18" on="1"/>
        <pt x="350" y="4" on="0"/>
        <pt x="270" y="-12" on="0"/>
        <pt x="234" y="-12" on="1"/>
        <pt x="200" y="-12" on="0"/>
        <pt x="139" y="0" on="0"/>
        <pt x="94" y="29" on="0"/>
        <pt x="68" y="74" on="0"/>
        <pt x="68" y="107" on="1"/>
        <pt x="68" y="162" on="0"/>
        <pt x="114" y="229" on="0"/>
        <pt x="184" y="271" on="0"/>
        <pt x="264" y="298" on="0"/>
        <pt x="334" y="327" on="0"/>
        <pt x="380" y="368" on="0"/>
        <pt x="380" y="404" on="1"/>
        <pt x="380" y="422" on="0"/>
        <pt x="366" y="447" on="0"/>
        <pt x="342" y="462" on="0"/>
        <pt x="310" y="469" on="0"/>
        <pt x="293" y="469" on="1"/>
        <pt x="275" y="469" on="0"/>
        <pt x="239" y="464" on="0"/>
        <pt x="206" y="455" on="0"/>
        <pt x="177" y="445" on="0"/>
        <pt x="168" y="441" on="1"/>
        <pt x="163" y="500" on="1"/>
        <pt x="192" y="514" on="0"/>
        <pt x="261" y="529" on="0"/>
        <pt x="294" y="529" on="1"/>
        <pt x="323" y="529" on="0"/>
        <pt x="377" y="516" on="0"/>
        <pt x="418" y="486" on="0"/>
        <pt x="442" y="439" on="0"/>
        <pt x="442" y="405" on="1"/>
        <pt x="442" y="356" on="0"/>
        <pt x="396" y="297" on="0"/>
        <pt x="326" y="259" on="0"/>
        <pt x="246" y="233" on="0"/>
        <pt x="176" y="201" on="0"/>
        <pt x="130" y="155" on="0"/>
        <pt x="130" y="115" on="1"/>
        <pt x="130" y="96" on="0"/>
        <pt x="147" y="70" on="0"/>
        <pt x="177" y="55" on="0"/>
        <pt x="215" y="48" on="0"/>
        <pt x="236" y="48" on="1"/>
        <pt x="257" y="48" on="0"/>
        <pt x="299" y="53" on="0"/>
        <pt x="337" y="62" on="0"/>
        <pt x="368" y="73" on="0"/>
        <pt x="377" y="79" on="1"/>
      </contour>
    </TTGlyph>
    <TTGlyph name="afii10068.locl.ita" xMin="83" yMin="0" xMax="413" yMax="704">
      <component glyphName="dotlessi" x="0" y="0" flags="0x204"/>
      <component glyphName="macron" x="-35" y="0" flags="0x4"/>
    </TTGlyph>
    <TTGlyph name="afii10069" xMin="108" yMin="-12" xMax="548" yMax="776">
      <contour>
        <pt x="369" y="514" on="1"/>
        <pt x="400" y="514" on="0"/>
        <pt x="464" y="496" on="0"/>
        <pt x="484" y="482" on="1"/>
        <pt x="476" y="604" on="0"/>
        <pt x="384" y="718" on="0"/>
        <pt x="287" y="718" on="1"/>
        <pt x="261" y="718" on="0"/>
        <pt x="221" y="710" on="0"/>
        <pt x="213" y="706" on="1"/>
        <pt x="207" y="764" on="1"/>
        <pt x="214" y="767" on="0"/>
        <pt x="260" y="776" on="0"/>
        <pt x="302" y="776" on="1"/>
        <pt x="423" y="776" on="0"/>
        <pt x="548" y="611" on="0"/>
        <pt x="548" y="442" on="1"/>
        <pt x="548" y="409" on="0"/>
        <pt x="542" y="317" on="0"/>
        <pt x="522" y="216" on="0"/>
        <pt x="484" y="116" on="0"/>
        <pt x="421" y="37" on="0"/>
        <pt x="329" y="-12" on="0"/>
        <pt x="264" y="-12" on="1"/>
        <pt x="223" y="-12" on="0"/>
        <pt x="165" y="17" on="0"/>
        <pt x="126" y="66" on="0"/>
        <pt x="108" y="131" on="0"/>
        <pt x="108" y="168" on="1"/>
        <pt x="108" y="227" on="0"/>
        <pt x="135" y="350" on="0"/>
        <pt x="196" y="450" on="0"/>
        <pt x="296" y="514" on="0"/>
      </contour>
      <contour>
        <pt x="277" y="46" on="1"/>
        <pt x="331" y="46" on="0"/>
        <pt x="410" y="117" on="0"/>
        <pt x="461" y="227" on="0"/>
        <pt x="486" y="359" on="0"/>
        <pt x="486" y="421" on="1"/>
        <pt x="486" y="423" on="1"/>
        <pt x="469" y="434" on="0"/>
        <pt x="413" y="456" on="0"/>
        <pt x="368" y="456" on="1"/>
        <pt x="320" y="456" on="0"/>
        <pt x="247" y="412" on="0"/>
        <pt x="197" y="334" on="0"/>
        <pt x="172" y="227" on="0"/>
        <pt x="172" y="164" on="1"/>
        <pt x="172" y="104" on="0"/>
        <pt x="226" y="46" on="0"/>
      </contour>
    </TTGlyph>
    <TTGlyph name="afii10069.locl.ita" xMin="16" yMin="-188" xMax="566" yMax="529">
      <component glyphName="g" x="0" y="0" flags="0x204"/>
    </TTGlyph>
    <TTGlyph name="afii10070" xMin="98" yMin="-12" xMax="540" yMax="529">
      <component glyphName="e" x="0" y="0" flags="0x204"/>
    </TTGlyph>
    <TTGlyph name="afii10071" xMin="98" yMin="-12" xMax="554" yMax="721">
      <component glyphName="e" x="0" y="0" flags="0x204"/>
      <component glyphName="dieresis" x="112" y="0" flags="0x4"/>
    </TTGlyph>
    <TTGlyph name="afii10072" xMin="23" yMin="-11" xMax="917" yMax="526">
      <contour>
        <pt x="616" y="163" on="1"/>
        <pt x="616" y="183" on="0"/>
        <pt x="618" y="221" on="0"/>
        <pt x="620" y="241" on="1"/>
        <pt x="503" y="241" on="1"/>
        <pt x="445" y="0" on="1"/>
        <pt x="380" y="0" on="1"/>
        <pt x="438" y="241" on="1"/>
        <pt x="325" y="241" on="1"/>
        <pt x="314" y="175" on="0"/>
        <pt x="267" y="80" on="0"/>
        <pt x="205" y="18" on="0"/>
        <pt x="131" y="-11" on="0"/>
        <pt x="92" y="-11" on="1"/>
        <pt x="55" y="-11" on="0"/>
        <pt x="23" y="2" on="1"/>
        <pt x="41" y="59" on="1"/>
        <pt x="55" y="51" on="0"/>
        <pt x="78" y="48" on="0"/>
        <pt x="91" y="48" on="1"/>
        <pt x="139" y="48" on="0"/>
        <pt x="208" y="97" on="0"/>
        <pt x="251" y="180" on="0"/>
        <pt x="272" y="287" on="0"/>
        <pt x="272" y="346" on="1"/>
        <pt x="272" y="369" on="0"/>
        <pt x="265" y="413" on="0"/>
        <pt x="247" y="447" on="0"/>
        <pt x="215" y="468" on="0"/>
        <pt x="191" y="468" on="1"/>
        <pt x="174" y="468" on="0"/>
        <pt x="152" y="462" on="1"/>
        <pt x="147" y="517" on="1"/>
        <pt x="180" y="526" on="0"/>
        <pt x="206" y="526" on="1"/>
        <pt x="272" y="526" on="0"/>
        <pt x="334" y="431" on="0"/>
        <pt x="334" y="355" on="1"/>
        <pt x="334" y="323" on="0"/>
        <pt x="331" y="296" on="1"/>
        <pt x="451" y="296" on="1"/>
        <pt x="504" y="517" on="1"/>
        <pt x="569" y="517" on="1"/>
        <pt x="516" y="296" on="1"/>
        <pt x="629" y="296" on="1"/>
        <pt x="639" y="344" on="0"/>
        <pt x="678" y="427" on="0"/>
        <pt x="736" y="490" on="0"/>
        <pt x="815" y="526" on="0"/>
        <pt x="866" y="526" on="1"/>
        <pt x="879" y="526" on="0"/>
        <pt x="906" y="521" on="0"/>
        <pt x="917" y="516" on="1"/>
        <pt x="898" y="460" on="1"/>
        <pt x="887" y="464" on="0"/>
        <pt x="871" y="467" on="0"/>
        <pt x="858" y="467" on="1"/>
        <pt x="807" y="467" on="0"/>
        <pt x="738" y="412" on="0"/>
        <pt x="696" y="326" on="0"/>
        <pt x="678" y="222" on="0"/>
        <pt x="678" y="173" on="1"/>
        <pt x="678" y="149" on="0"/>
        <pt x="683" y="104" on="0"/>
        <pt x="702" y="69" on="0"/>
        <pt x="738" y="47" on="0"/>
        <pt x="769" y="47" on="1"/>
        <pt x="790" y="47" on="0"/>
        <pt x="810" y="51" on="0"/>
        <pt x="818" y="55" on="1"/>
        <pt x="822" y="1" on="1"/>
        <pt x="815" y="-2" on="0"/>
        <pt x="776" y="-11" on="0"/>
        <pt x="752" y="-11" on="1"/>
        <pt x="717" y="-11" on="0"/>
        <pt x="665" y="17" on="0"/>
        <pt x="632" y="65" on="0"/>
        <pt x="616" y="128" on="0"/>
      </contour>
    </TTGlyph>
    <TTGlyph name="afii10073" xMin="38" yMin="-12" xMax="447" yMax="528">
      <contour>
        <pt x="58" y="69" on="1"/>
        <pt x="64" y="66" on="0"/>
        <pt x="83" y="59" on="0"/>
        <pt x="112" y="51" on="0"/>
        <pt x="153" y="46" on="0"/>
        <pt x="181" y="46" on="1"/>
        <pt x="208" y="46" on="0"/>
        <pt x="267" y="57" on="0"/>
        <pt x="315" y="85" on="0"/>
        <pt x="346" y="132" on="0"/>
        <pt x="346" y="169" on="1"/>
        <pt x="346" y="194" on="0"/>
        <pt x="320" y="223" on="0"/>
        <pt x="283" y="239" on="0"/>
        <pt x="239" y="244" on="0"/>
        <pt x="221" y="244" on="1"/>
        <pt x="176" y="244" on="1"/>
        <pt x="189" y="299" on="1"/>
        <pt x="235" y="299" on="1"/>
        <pt x="257" y="299" on="0"/>
        <pt x="309" y="307" on="0"/>
        <pt x="353" y="330" on="0"/>
        <pt x="382" y="372" on="0"/>
        <pt x="382" y="406" on="1"/>
        <pt x="382" y="424" on="0"/>
        <pt x="366" y="449" on="0"/>
        <pt x="339" y="464" on="0"/>
        <pt x="303" y="470" on="0"/>
        <pt x="284" y="470" on="1"/>
        <pt x="249" y="470" on="0"/>
        <pt x="180" y="459" on="0"/>
        <pt x="157" y="448" on="1"/>
        <pt x="152" y="506" on="1"/>
        <pt x="180" y="515" on="0"/>
        <pt x="250" y="528" on="0"/>
        <pt x="285" y="528" on="1"/>
        <pt x="316" y="528" on="0"/>
        <pt x="375" y="516" on="0"/>
        <pt x="420" y="487" on="0"/>
        <pt x="447" y="439" on="0"/>
        <pt x="447" y="404" on="1"/>
        <pt x="447" y="359" on="0"/>
        <pt x="392" y="291" on="0"/>
        <pt x="337" y="272" on="1"/>
        <pt x="373" y="259" on="0"/>
        <pt x="411" y="206" on="0"/>
        <pt x="411" y="173" on="1"/>
        <pt x="411" y="124" on="0"/>
        <pt x="373" y="54" on="0"/>
        <pt x="308" y="9" on="0"/>
        <pt x="219" y="-12" on="0"/>
        <pt x="168" y="-12" on="1"/>
        <pt x="123" y="-12" on="0"/>
        <pt x="52" y="4" on="0"/>
        <pt x="38" y="11" on="1"/>
      </contour>
    </TTGlyph>
    <TTGlyph name="afii10074" xMin="98" yMin="-12" xMax="564" yMax="517">
      <component glyphName="u" x="0" y="0" flags="0x204"/>
    </TTGlyph>
    <TTGlyph name="afii10075" xMin="98" yMin="-12" xMax="564" yMax="738">
      <component glyphName="u" x="0" y="0" flags="0x204"/>
      <component glyphName="kratka" x="63" y="0" flags="0x4"/>
    </TTGlyph>
    <TTGlyph name="afii10076" xMin="83" yMin="0" xMax="559" yMax="517">
      <component glyphName="kappa" x="0" y="0" flags="0x204"/>
    </TTGlyph>
    <TTGlyph name="afii10077" xMin="28" yMin="-9" xMax="577" yMax="517">
      <contour>
        <pt x="28" y="45" on="1"/>
        <pt x="80" y="48" on="0"/>
        <pt x="148" y="113" on="0"/>
        <pt x="196" y="219" on="0"/>
        <pt x="230" y="359" on="0"/>
        <pt x="248" y="438" on="1"/>
        <pt x="266" y="517" on="1"/>
        <pt x="577" y="517" on="1"/>
        <pt x="453" y="0" on="1"/>
        <pt x="388" y="0" on="1"/>
        <pt x="498" y="462" on="1"/>
        <pt x="320" y="462" on="1"/>
        <pt x="315" y="442" on="1"/>
        <pt x="302" y="390" on="0"/>
        <pt x="278" y="284" on="0"/>
        <pt x="248" y="186" on="0"/>
        <pt x="210" y="100" on="0"/>
        <pt x="155" y="35" on="0"/>
        <pt x="80" y="-6" on="0"/>
        <pt x="29" y="-9" on="1"/>
      </contour>
    </TTGlyph>
    <TTGlyph name="afii10078" xMin="58" yMin="0" xMax="681" yMax="517">
      <contour>
        <pt x="58" y="0" on="1"/>
        <pt x="94" y="128" on="0"/>
        <pt x="178" y="391" on="0"/>
        <pt x="222" y="517" on="1"/>
        <pt x="289" y="517" on="1"/>
        <pt x="309" y="438" on="0"/>
        <pt x="345" y="254" on="0"/>
        <pt x="367" y="145" on="1"/>
        <pt x="410" y="212" on="0"/>
        <pt x="489" y="332" on="0"/>
        <pt x="553" y="429" on="0"/>
        <pt x="602" y="499" on="0"/>
        <pt x="615" y="517" on="1"/>
        <pt x="681" y="517" on="1"/>
        <pt x="677" y="464" on="0"/>
        <pt x="661" y="330" on="0"/>
        <pt x="641" y="191" on="0"/>
        <pt x="618" y="55" on="0"/>
        <pt x="608" y="0" on="1"/>
        <pt x="546" y="0" on="1"/>
        <pt x="564" y="94" on="0"/>
        <pt x="597" y="304" on="0"/>
        <pt x="614" y="426" on="1"/>
        <pt x="578" y="373" on="0"/>
        <pt x="521" y="287" on="0"/>
        <pt x="470" y="207" on="0"/>
        <pt x="418" y="123" on="0"/>
        <pt x="386" y="72" on="1"/>
        <pt x="325" y="72" on="1"/>
        <pt x="315" y="120" on="0"/>
        <pt x="298" y="207" on="0"/>
        <pt x="281" y="293" on="0"/>
        <pt x="263" y="379" on="0"/>
        <pt x="251" y="425" on="1"/>
        <pt x="229" y="363" on="0"/>
        <pt x="193" y="251" on="0"/>
        <pt x="161" y="146" on="0"/>
        <pt x="132" y="48" on="0"/>
        <pt x="119" y="0" on="1"/>
      </contour>
    </TTGlyph>
    <TTGlyph name="afii10079" xMin="83" yMin="0" xMax="587" yMax="517">
      <contour>
        <pt x="207" y="517" on="1"/>
        <pt x="272" y="517" on="1"/>
        <pt x="219" y="296" on="1"/>
        <pt x="469" y="296" on="1"/>
        <pt x="522" y="517" on="1"/>
        <pt x="587" y="517" on="1"/>
        <pt x="463" y="0" on="1"/>
        <pt x="398" y="0" on="1"/>
        <pt x="455" y="241" on="1"/>
        <pt x="205" y="241" on="1"/>
        <pt x="148" y="0" on="1"/>
        <pt x="83" y="0" on="1"/>
      </contour>
    </TTGlyph>
    <TTGlyph name="afii10080" xMin="98" yMin="-12" xMax="558" yMax="528">
      <component glyphName="o" x="0" y="0" flags="0x204"/>
    </TTGlyph>
    <TTGlyph name="afii10081" xMin="83" yMin="0" xMax="548" yMax="527">
      <component glyphName="n" x="0" y="0" flags="0x204"/>
    </TTGlyph>
    <TTGlyph name="afii10081.locl.ita" xMin="98" yMin="-12" xMax="608" yMax="704">
      <contour>
        <pt x="209" y="647" on="1"/>
        <pt x="222" y="704" on="1"/>
        <pt x="608" y="704" on="1"/>
        <pt x="595" y="647" on="1"/>
      </contour>
      <contour>
        <pt x="248" y="-12" on="1"/>
        <pt x="205" y="-12" on="0"/>
        <pt x="147" y="10" on="0"/>
        <pt x="113" y="49" on="0"/>
        <pt x="98" y="102" on="0"/>
        <pt x="98" y="133" on="1"/>
        <pt x="98" y="162" on="0"/>
        <pt x="108" y="227" on="0"/>
        <pt x="116" y="260" on="1"/>
        <pt x="178" y="517" on="1"/>
        <pt x="243" y="517" on="1"/>
        <pt x="188" y="289" on="1"/>
        <pt x="180" y="254" on="0"/>
        <pt x="161" y="177" on="0"/>
        <pt x="161" y="142" on="1"/>
        <pt x="161" y="122" on="0"/>
        <pt x="170" y="88" on="0"/>
        <pt x="192" y="62" on="0"/>
        <pt x="228" y="48" on="0"/>
        <pt x="256" y="48" on="1"/>
        <pt x="304" y="48" on="0"/>
        <pt x="377" y="86" on="0"/>
        <pt x="409" y="122" on="1"/>
        <pt x="409" y="149" on="0"/>
        <pt x="425" y="219" on="0"/>
        <pt x="432" y="247" on="1"/>
        <pt x="499" y="517" on="1"/>
        <pt x="564" y="517" on="1"/>
        <pt x="485" y="197" on="1"/>
        <pt x="479" y="172" on="0"/>
        <pt x="471" y="128" on="0"/>
        <pt x="471" y="108" on="1"/>
        <pt x="471" y="81" on="0"/>
        <pt x="481" y="33" on="0"/>
        <pt x="494" y="4" on="1"/>
        <pt x="427" y="-6" on="1"/>
        <pt x="421" y="6" on="0"/>
        <pt x="412" y="37" on="0"/>
        <pt x="410" y="53" on="1"/>
        <pt x="375" y="19" on="0"/>
        <pt x="296" y="-12" on="0"/>
      </contour>
    </TTGlyph>
    <TTGlyph name="afii10082" xMin="38" yMin="-185" xMax="551" yMax="529">
      <component glyphName="p" x="0" y="0" flags="0x204"/>
    </TTGlyph>
    <TTGlyph name="afii10083" xMin="98" yMin="-12" xMax="517" yMax="529">
      <component glyphName="c" x="0" y="0" flags="0x204"/>
    </TTGlyph>
    <TTGlyph name="afii10084" xMin="83" yMin="0" xMax="823" yMax="527">
      <component glyphName="m" x="0" y="0" flags="0x204"/>
    </TTGlyph>
    <TTGlyph name="afii10084.locl.ita" xMin="98" yMin="-13" xMax="890" yMax="704">
      <contour>
        <pt x="210" y="647" on="1"/>
        <pt x="223" y="704" on="1"/>
        <pt x="890" y="704" on="1"/>
        <pt x="877" y="647" on="1"/>
      </contour>
      <contour>
        <pt x="540" y="-12" on="1"/>
        <pt x="495" y="-12" on="0"/>
        <pt x="438" y="15" on="0"/>
        <pt x="422" y="38" on="1"/>
        <pt x="385" y="12" on="0"/>
        <pt x="292" y="-13" on="0"/>
        <pt x="247" y="-13" on="1"/>
        <pt x="217" y="-13" on="0"/>
        <pt x="163" y="1" on="0"/>
        <pt x="122" y="34" on="0"/>
        <pt x="98" y="91" on="0"/>
        <pt x="98" y="133" on="1"/>
        <pt x="98" y="162" on="0"/>
        <pt x="108" y="227" on="0"/>
        <pt x="116" y="260" on="1"/>
        <pt x="178" y="517" on="1"/>
        <pt x="243" y="517" on="1"/>
        <pt x="188" y="289" on="1"/>
        <pt x="180" y="254" on="0"/>
        <pt x="161" y="177" on="0"/>
        <pt x="161" y="142" on="1"/>
        <pt x="161" y="113" on="0"/>
        <pt x="177" y="77" on="0"/>
        <pt x="204" y="56" on="0"/>
        <pt x="239" y="48" on="0"/>
        <pt x="259" y="48" on="1"/>
        <pt x="297" y="48" on="0"/>
        <pt x="374" y="73" on="0"/>
        <pt x="402" y="93" on="1"/>
        <pt x="399" y="111" on="0"/>
        <pt x="399" y="133" on="1"/>
        <pt x="399" y="162" on="0"/>
        <pt x="409" y="227" on="0"/>
        <pt x="417" y="260" on="1"/>
        <pt x="479" y="517" on="1"/>
        <pt x="544" y="517" on="1"/>
        <pt x="489" y="289" on="1"/>
        <pt x="481" y="254" on="0"/>
        <pt x="462" y="177" on="0"/>
        <pt x="462" y="142" on="1"/>
        <pt x="462" y="102" on="0"/>
        <pt x="498" y="48" on="0"/>
        <pt x="548" y="48" on="1"/>
        <pt x="593" y="48" on="0"/>
        <pt x="660" y="86" on="0"/>
        <pt x="690" y="122" on="1"/>
        <pt x="690" y="149" on="0"/>
        <pt x="706" y="219" on="0"/>
        <pt x="713" y="247" on="1"/>
        <pt x="780" y="517" on="1"/>
        <pt x="845" y="517" on="1"/>
        <pt x="766" y="197" on="1"/>
        <pt x="760" y="172" on="0"/>
        <pt x="752" y="128" on="0"/>
        <pt x="752" y="108" on="1"/>
        <pt x="752" y="81" on="0"/>
        <pt x="762" y="33" on="0"/>
        <pt x="775" y="4" on="1"/>
        <pt x="708" y="-6" on="1"/>
        <pt x="702" y="6" on="0"/>
        <pt x="693" y="37" on="0"/>
        <pt x="691" y="53" on="1"/>
        <pt x="659" y="19" on="0"/>
        <pt x="585" y="-12" on="0"/>
      </contour>
    </TTGlyph>
    <TTGlyph name="afii10085" xMin="-59" yMin="-188" xMax="542" yMax="517">
      <component glyphName="y" x="0" y="0" flags="0x204"/>
    </TTGlyph>
    <TTGlyph name="afii10086" xMin="98" yMin="-185" xMax="732" yMax="776">
      <contour>
        <pt x="502" y="765" on="1"/>
        <pt x="569" y="776" on="1"/>
        <pt x="509" y="524" on="1"/>
        <pt x="619" y="514" on="0"/>
        <pt x="732" y="403" on="0"/>
        <pt x="732" y="313" on="1"/>
        <pt x="732" y="243" on="0"/>
        <pt x="687" y="128" on="0"/>
        <pt x="598" y="45" on="0"/>
        <pt x="467" y="-3" on="0"/>
        <pt x="381" y="-6" on="1"/>
        <pt x="339" y="-185" on="1"/>
        <pt x="274" y="-185" on="1"/>
        <pt x="317" y="-5" on="1"/>
        <pt x="204" y="3" on="0"/>
        <pt x="98" y="116" on="0"/>
        <pt x="98" y="206" on="1"/>
        <pt x="98" y="275" on="0"/>
        <pt x="143" y="390" on="0"/>
        <pt x="231" y="474" on="0"/>
        <pt x="360" y="523" on="0"/>
        <pt x="444" y="526" on="1"/>
      </contour>
      <contour>
        <pt x="668" y="306" on="1"/>
        <pt x="668" y="380" on="0"/>
        <pt x="581" y="462" on="0"/>
        <pt x="496" y="470" on="1"/>
        <pt x="394" y="46" on="1"/>
        <pt x="464" y="50" on="0"/>
        <pt x="567" y="92" on="0"/>
        <pt x="635" y="161" on="0"/>
        <pt x="668" y="253" on="0"/>
      </contour>
      <contour>
        <pt x="162" y="213" on="1"/>
        <pt x="162" y="132" on="0"/>
        <pt x="247" y="53" on="0"/>
        <pt x="329" y="46" on="1"/>
        <pt x="431" y="471" on="1"/>
        <pt x="376" y="468" on="0"/>
        <pt x="278" y="434" on="0"/>
        <pt x="205" y="371" on="0"/>
        <pt x="162" y="277" on="0"/>
      </contour>
    </TTGlyph>
    <TTGlyph name="afii10087" xMin="12" yMin="0" xMax="534" yMax="517">
      <component glyphName="x" x="0" y="0" flags="0x204"/>
    </TTGlyph>
    <TTGlyph name="afii10088" xMin="98" yMin="-143" xMax="564" yMax="517">
      <contour>
        <pt x="485" y="197" on="1"/>
        <pt x="477" y="167" on="0"/>
        <pt x="469" y="117" on="0"/>
        <pt x="481" y="80" on="0"/>
        <pt x="521" y="58" on="0"/>
        <pt x="561" y="56" on="1"/>
        <pt x="511" y="-143" on="1"/>
        <pt x="448" y="-143" on="1"/>
        <pt x="487" y="9" on="1"/>
        <pt x="467" y="14" on="0"/>
        <pt x="438" y="39" on="0"/>
        <pt x="429" y="53" on="1"/>
        <pt x="423" y="46" on="0"/>
        <pt x="394" y="24" on="0"/>
        <pt x="349" y="3" on="0"/>
        <pt x="287" y="-12" on="0"/>
        <pt x="248" y="-12" on="1"/>
        <pt x="205" y="-12" on="0"/>
        <pt x="147" y="10" on="0"/>
        <pt x="113" y="49" on="0"/>
        <pt x="98" y="102" on="0"/>
        <pt x="98" y="133" on="1"/>
        <pt x="98" y="162" on="0"/>
        <pt x="108" y="227" on="0"/>
        <pt x="116" y="260" on="1"/>
        <pt x="178" y="517" on="1"/>
        <pt x="243" y="517" on="1"/>
        <pt x="188" y="289" on="1"/>
        <pt x="180" y="254" on="0"/>
        <pt x="161" y="177" on="0"/>
        <pt x="161" y="142" on="1"/>
        <pt x="161" y="122" on="0"/>
        <pt x="170" y="88" on="0"/>
        <pt x="192" y="62" on="0"/>
        <pt x="228" y="48" on="0"/>
        <pt x="256" y="48" on="1"/>
        <pt x="300" y="48" on="0"/>
        <pt x="378" y="79" on="0"/>
        <pt x="408" y="109" on="1"/>
        <pt x="407" y="122" on="0"/>
        <pt x="411" y="157" on="0"/>
        <pt x="419" y="194" on="0"/>
        <pt x="428" y="231" on="0"/>
        <pt x="432" y="247" on="1"/>
        <pt x="499" y="517" on="1"/>
        <pt x="564" y="517" on="1"/>
      </contour>
    </TTGlyph>
    <TTGlyph name="afii10089" xMin="118" yMin="0" xMax="542" yMax="517">
      <contour>
        <pt x="353" y="0" on="1"/>
        <pt x="405" y="219" on="1"/>
        <pt x="399" y="215" on="0"/>
        <pt x="373" y="206" on="0"/>
        <pt x="337" y="198" on="0"/>
        <pt x="296" y="193" on="0"/>
        <pt x="276" y="193" on="1"/>
        <pt x="118" y="193" on="0"/>
        <pt x="118" y="312" on="1"/>
        <pt x="118" y="338" on="0"/>
        <pt x="125" y="365" on="1"/>
        <pt x="162" y="517" on="1"/>
        <pt x="227" y="517" on="1"/>
        <pt x="193" y="380" on="1"/>
        <pt x="184" y="347" on="0"/>
        <pt x="184" y="323" on="1"/>
        <pt x="184" y="288" on="0"/>
        <pt x="226" y="251" on="0"/>
        <pt x="277" y="251" on="1"/>
        <pt x="326" y="251" on="0"/>
        <pt x="398" y="265" on="0"/>
        <pt x="418" y="273" on="1"/>
        <pt x="477" y="517" on="1"/>
        <pt x="542" y="517" on="1"/>
        <pt x="418" y="0" on="1"/>
      </contour>
    </TTGlyph>
    <TTGlyph name="afii10090" xMin="98" yMin="-13" xMax="845" yMax="517">
      <contour>
        <pt x="540" y="-12" on="1"/>
        <pt x="495" y="-12" on="0"/>
        <pt x="438" y="15" on="0"/>
        <pt x="422" y="38" on="1"/>
        <pt x="385" y="12" on="0"/>
        <pt x="292" y="-13" on="0"/>
        <pt x="247" y="-13" on="1"/>
        <pt x="217" y="-13" on="0"/>
        <pt x="163" y="1" on="0"/>
        <pt x="122" y="34" on="0"/>
        <pt x="98" y="91" on="0"/>
        <pt x="98" y="133" on="1"/>
        <pt x="98" y="162" on="0"/>
        <pt x="108" y="227" on="0"/>
        <pt x="116" y="260" on="1"/>
        <pt x="178" y="517" on="1"/>
        <pt x="243" y="517" on="1"/>
        <pt x="188" y="289" on="1"/>
        <pt x="180" y="254" on="0"/>
        <pt x="161" y="177" on="0"/>
        <pt x="161" y="142" on="1"/>
        <pt x="161" y="113" on="0"/>
        <pt x="177" y="77" on="0"/>
        <pt x="204" y="56" on="0"/>
        <pt x="239" y="48" on="0"/>
        <pt x="259" y="48" on="1"/>
        <pt x="297" y="48" on="0"/>
        <pt x="374" y="73" on="0"/>
        <pt x="402" y="93" on="1"/>
        <pt x="399" y="111" on="0"/>
        <pt x="399" y="133" on="1"/>
        <pt x="399" y="162" on="0"/>
        <pt x="409" y="227" on="0"/>
        <pt x="417" y="260" on="1"/>
        <pt x="479" y="517" on="1"/>
        <pt x="544" y="517" on="1"/>
        <pt x="489" y="289" on="1"/>
        <pt x="481" y="254" on="0"/>
        <pt x="462" y="177" on="0"/>
        <pt x="462" y="142" on="1"/>
        <pt x="462" y="102" on="0"/>
        <pt x="498" y="48" on="0"/>
        <pt x="548" y="48" on="1"/>
        <pt x="593" y="48" on="0"/>
        <pt x="660" y="86" on="0"/>
        <pt x="690" y="122" on="1"/>
        <pt x="690" y="149" on="0"/>
        <pt x="706" y="219" on="0"/>
        <pt x="713" y="247" on="1"/>
        <pt x="780" y="517" on="1"/>
        <pt x="845" y="517" on="1"/>
        <pt x="766" y="197" on="1"/>
        <pt x="760" y="172" on="0"/>
        <pt x="752" y="128" on="0"/>
        <pt x="752" y="108" on="1"/>
        <pt x="752" y="81" on="0"/>
        <pt x="762" y="33" on="0"/>
        <pt x="775" y="4" on="1"/>
        <pt x="708" y="-6" on="1"/>
        <pt x="702" y="6" on="0"/>
        <pt x="693" y="37" on="0"/>
        <pt x="691" y="53" on="1"/>
        <pt x="659" y="19" on="0"/>
        <pt x="585" y="-12" on="0"/>
      </contour>
    </TTGlyph>
    <TTGlyph name="afii10091" xMin="98" yMin="-143" xMax="845" yMax="517">
      <contour>
        <pt x="537" y="-12" on="1"/>
        <pt x="495" y="-12" on="0"/>
        <pt x="438" y="15" on="0"/>
        <pt x="422" y="38" on="1"/>
        <pt x="385" y="12" on="0"/>
        <pt x="292" y="-13" on="0"/>
        <pt x="247" y="-13" on="1"/>
        <pt x="217" y="-13" on="0"/>
        <pt x="163" y="1" on="0"/>
        <pt x="122" y="34" on="0"/>
        <pt x="98" y="91" on="0"/>
        <pt x="98" y="133" on="1"/>
        <pt x="98" y="162" on="0"/>
        <pt x="108" y="227" on="0"/>
        <pt x="116" y="260" on="1"/>
        <pt x="178" y="517" on="1"/>
        <pt x="243" y="517" on="1"/>
        <pt x="188" y="289" on="1"/>
        <pt x="180" y="254" on="0"/>
        <pt x="161" y="177" on="0"/>
        <pt x="161" y="142" on="1"/>
        <pt x="161" y="113" on="0"/>
        <pt x="177" y="77" on="0"/>
        <pt x="204" y="56" on="0"/>
        <pt x="239" y="48" on="0"/>
        <pt x="259" y="48" on="1"/>
        <pt x="297" y="48" on="0"/>
        <pt x="374" y="73" on="0"/>
        <pt x="402" y="93" on="1"/>
        <pt x="399" y="111" on="0"/>
        <pt x="399" y="133" on="1"/>
        <pt x="399" y="162" on="0"/>
        <pt x="409" y="227" on="0"/>
        <pt x="417" y="260" on="1"/>
        <pt x="479" y="517" on="1"/>
        <pt x="544" y="517" on="1"/>
        <pt x="489" y="289" on="1"/>
        <pt x="481" y="254" on="0"/>
        <pt x="462" y="177" on="0"/>
        <pt x="462" y="142" on="1"/>
        <pt x="462" y="102" on="0"/>
        <pt x="499" y="48" on="0"/>
        <pt x="542" y="48" on="1"/>
        <pt x="582" y="48" on="0"/>
        <pt x="658" y="79" on="0"/>
        <pt x="689" y="109" on="1"/>
        <pt x="688" y="121" on="0"/>
        <pt x="694" y="160" on="0"/>
        <pt x="702" y="201" on="0"/>
        <pt x="710" y="238" on="0"/>
        <pt x="713" y="247" on="1"/>
        <pt x="780" y="517" on="1"/>
        <pt x="845" y="517" on="1"/>
        <pt x="766" y="197" on="1"/>
        <pt x="761" y="175" on="0"/>
        <pt x="753" y="138" on="0"/>
        <pt x="753" y="122" on="1"/>
        <pt x="753" y="93" on="0"/>
        <pt x="790" y="59" on="0"/>
        <pt x="842" y="56" on="1"/>
        <pt x="792" y="-143" on="1"/>
        <pt x="729" y="-143" on="1"/>
        <pt x="768" y="9" on="1"/>
        <pt x="748" y="14" on="0"/>
        <pt x="719" y="39" on="0"/>
        <pt x="710" y="53" on="1"/>
        <pt x="704" y="46" on="0"/>
        <pt x="676" y="24" on="0"/>
        <pt x="631" y="3" on="0"/>
        <pt x="573" y="-12" on="0"/>
      </contour>
    </TTGlyph>
    <TTGlyph name="afii10092" xMin="118" yMin="-11" xMax="553" yMax="517">
      <contour>
        <pt x="263" y="310" on="1"/>
        <pt x="272" y="312" on="0"/>
        <pt x="301" y="318" on="0"/>
        <pt x="334" y="323" on="0"/>
        <pt x="368" y="326" on="0"/>
        <pt x="380" y="326" on="1"/>
        <pt x="462" y="326" on="0"/>
        <pt x="553" y="265" on="0"/>
        <pt x="553" y="193" on="1"/>
        <pt x="553" y="131" on="0"/>
        <pt x="506" y="51" on="0"/>
        <pt x="432" y="6" on="0"/>
        <pt x="344" y="-11" on="0"/>
        <pt x="302" y="-11" on="1"/>
        <pt x="250" y="-11" on="0"/>
        <pt x="159" y="1" on="0"/>
        <pt x="127" y="12" on="1"/>
        <pt x="235" y="462" on="1"/>
        <pt x="118" y="462" on="1"/>
        <pt x="131" y="517" on="1"/>
        <pt x="313" y="517" on="1"/>
      </contour>
      <contour>
        <pt x="202" y="57" on="1"/>
        <pt x="216" y="55" on="0"/>
        <pt x="266" y="47" on="0"/>
        <pt x="308" y="47" on="1"/>
        <pt x="345" y="47" on="0"/>
        <pt x="410" y="62" on="0"/>
        <pt x="458" y="95" on="0"/>
        <pt x="486" y="147" on="0"/>
        <pt x="486" y="183" on="1"/>
        <pt x="486" y="226" on="0"/>
        <pt x="435" y="268" on="0"/>
        <pt x="372" y="268" on="1"/>
        <pt x="336" y="268" on="0"/>
        <pt x="269" y="258" on="0"/>
        <pt x="250" y="253" on="1"/>
      </contour>
    </TTGlyph>
    <TTGlyph name="afii10093" xMin="83" yMin="-11" xMax="763" yMax="517">
      <contour>
        <pt x="698" y="517" on="1"/>
        <pt x="763" y="517" on="1"/>
        <pt x="638" y="0" on="1"/>
        <pt x="573" y="0" on="1"/>
      </contour>
      <contour>
        <pt x="158" y="57" on="1"/>
        <pt x="172" y="55" on="0"/>
        <pt x="222" y="47" on="0"/>
        <pt x="264" y="47" on="1"/>
        <pt x="301" y="47" on="0"/>
        <pt x="366" y="62" on="0"/>
        <pt x="414" y="95" on="0"/>
        <pt x="442" y="147" on="0"/>
        <pt x="442" y="183" on="1"/>
        <pt x="442" y="226" on="0"/>
        <pt x="391" y="268" on="0"/>
        <pt x="328" y="268" on="1"/>
        <pt x="292" y="268" on="0"/>
        <pt x="225" y="258" on="0"/>
        <pt x="206" y="253" on="1"/>
      </contour>
      <contour>
        <pt x="219" y="310" on="1"/>
        <pt x="228" y="312" on="0"/>
        <pt x="257" y="318" on="0"/>
        <pt x="290" y="323" on="0"/>
        <pt x="324" y="326" on="0"/>
        <pt x="336" y="326" on="1"/>
        <pt x="418" y="326" on="0"/>
        <pt x="509" y="265" on="0"/>
        <pt x="509" y="193" on="1"/>
        <pt x="509" y="131" on="0"/>
        <pt x="462" y="51" on="0"/>
        <pt x="388" y="6" on="0"/>
        <pt x="300" y="-11" on="0"/>
        <pt x="258" y="-11" on="1"/>
        <pt x="206" y="-11" on="0"/>
        <pt x="115" y="1" on="0"/>
        <pt x="83" y="12" on="1"/>
        <pt x="204" y="517" on="1"/>
        <pt x="269" y="517" on="1"/>
      </contour>
    </TTGlyph>
    <TTGlyph name="afii10094" xMin="83" yMin="-11" xMax="509" yMax="517">
      <contour>
        <pt x="158" y="57" on="1"/>
        <pt x="172" y="55" on="0"/>
        <pt x="222" y="47" on="0"/>
        <pt x="264" y="47" on="1"/>
        <pt x="301" y="47" on="0"/>
        <pt x="366" y="62" on="0"/>
        <pt x="414" y="95" on="0"/>
        <pt x="442" y="147" on="0"/>
        <pt x="442" y="183" on="1"/>
        <pt x="442" y="226" on="0"/>
        <pt x="391" y="268" on="0"/>
        <pt x="328" y="268" on="1"/>
        <pt x="292" y="268" on="0"/>
        <pt x="225" y="258" on="0"/>
        <pt x="206" y="253" on="1"/>
      </contour>
      <contour>
        <pt x="219" y="310" on="1"/>
        <pt x="228" y="312" on="0"/>
        <pt x="257" y="318" on="0"/>
        <pt x="290" y="323" on="0"/>
        <pt x="324" y="326" on="0"/>
        <pt x="336" y="326" on="1"/>
        <pt x="418" y="326" on="0"/>
        <pt x="509" y="265" on="0"/>
        <pt x="509" y="193" on="1"/>
        <pt x="509" y="131" on="0"/>
        <pt x="462" y="51" on="0"/>
        <pt x="388" y="6" on="0"/>
        <pt x="300" y="-11" on="0"/>
        <pt x="258" y="-11" on="1"/>
        <pt x="206" y="-11" on="0"/>
        <pt x="115" y="1" on="0"/>
        <pt x="83" y="12" on="1"/>
        <pt x="204" y="517" on="1"/>
        <pt x="269" y="517" on="1"/>
      </contour>
    </TTGlyph>
    <TTGlyph name="afii10095" xMin="28" yMin="-11" xMax="458" yMax="529">
      <contour>
        <pt x="389" y="295" on="1"/>
        <pt x="390" y="304" on="0"/>
        <pt x="391" y="322" on="0"/>
        <pt x="391" y="331" on="1"/>
        <pt x="391" y="397" on="0"/>
        <pt x="326" y="470" on="0"/>
        <pt x="250" y="470" on="1"/>
        <pt x="212" y="470" on="0"/>
        <pt x="156" y="453" on="0"/>
        <pt x="142" y="446" on="1"/>
        <pt x="140" y="502" on="1"/>
        <pt x="148" y="506" on="0"/>
        <pt x="175" y="516" on="0"/>
        <pt x="209" y="524" on="0"/>
        <pt x="247" y="529" on="0"/>
        <pt x="266" y="529" on="1"/>
        <pt x="317" y="529" on="0"/>
        <pt x="389" y="500" on="0"/>
        <pt x="436" y="449" on="0"/>
        <pt x="458" y="381" on="0"/>
        <pt x="458" y="341" on="1"/>
        <pt x="458" y="275" on="0"/>
        <pt x="419" y="149" on="0"/>
        <pt x="340" y="50" on="0"/>
        <pt x="220" y="-11" on="0"/>
        <pt x="139" y="-11" on="1"/>
        <pt x="97" y="-11" on="0"/>
        <pt x="48" y="1" on="0"/>
        <pt x="28" y="9" on="1"/>
        <pt x="50" y="68" on="1"/>
        <pt x="66" y="61" on="0"/>
        <pt x="117" y="48" on="0"/>
        <pt x="145" y="48" on="1"/>
        <pt x="194" y="48" on="0"/>
        <pt x="272" y="78" on="0"/>
        <pt x="330" y="131" on="0"/>
        <pt x="369" y="201" on="0"/>
        <pt x="379" y="240" on="1"/>
        <pt x="156" y="240" on="1"/>
        <pt x="169" y="295" on="1"/>
      </contour>
    </TTGlyph>
    <TTGlyph name="afii10096" xMin="83" yMin="-12" xMax="775" yMax="528">
      <contour>
        <pt x="775" y="355" on="1"/>
        <pt x="775" y="261" on="0"/>
        <pt x="724" y="123" on="0"/>
        <pt x="644" y="32" on="0"/>
        <pt x="546" y="-12" on="0"/>
        <pt x="499" y="-12" on="1"/>
        <pt x="466" y="-12" on="0"/>
        <pt x="406" y="10" on="0"/>
        <pt x="361" y="54" on="0"/>
        <pt x="335" y="119" on="0"/>
        <pt x="335" y="162" on="1"/>
        <pt x="335" y="183" on="0"/>
        <pt x="338" y="222" on="0"/>
        <pt x="340" y="241" on="1"/>
        <pt x="205" y="241" on="1"/>
        <pt x="148" y="0" on="1"/>
        <pt x="83" y="0" on="1"/>
        <pt x="207" y="517" on="1"/>
        <pt x="272" y="517" on="1"/>
        <pt x="219" y="296" on="1"/>
        <pt x="351" y="296" on="1"/>
        <pt x="367" y="355" on="0"/>
        <pt x="424" y="442" on="0"/>
        <pt x="495" y="500" on="0"/>
        <pt x="573" y="528" on="0"/>
        <pt x="611" y="528" on="1"/>
        <pt x="644" y="528" on="0"/>
        <pt x="703" y="506" on="0"/>
        <pt x="748" y="462" on="0"/>
        <pt x="775" y="397" on="0"/>
      </contour>
      <contour>
        <pt x="401" y="166" on="1"/>
        <pt x="401" y="107" on="0"/>
        <pt x="461" y="47" on="0"/>
        <pt x="503" y="47" on="1"/>
        <pt x="537" y="47" on="0"/>
        <pt x="610" y="84" on="0"/>
        <pt x="670" y="159" on="0"/>
        <pt x="709" y="273" on="0"/>
        <pt x="709" y="350" on="1"/>
        <pt x="709" y="409" on="0"/>
        <pt x="649" y="469" on="0"/>
        <pt x="607" y="469" on="1"/>
        <pt x="573" y="469" on="0"/>
        <pt x="500" y="432" on="0"/>
        <pt x="440" y="357" on="0"/>
        <pt x="401" y="243" on="0"/>
      </contour>
    </TTGlyph>
    <TTGlyph name="afii10097" xMin="33" yMin="0" xMax="549" yMax="528">
      <contour>
        <pt x="33" y="0" on="1"/>
        <pt x="73" y="51" on="0"/>
        <pt x="158" y="159" on="0"/>
        <pt x="209" y="219" on="1"/>
        <pt x="176" y="230" on="0"/>
        <pt x="132" y="287" on="0"/>
        <pt x="132" y="337" on="1"/>
        <pt x="132" y="382" on="0"/>
        <pt x="169" y="453" on="0"/>
        <pt x="237" y="502" on="0"/>
        <pt x="331" y="528" on="0"/>
        <pt x="387" y="528" on="1"/>
        <pt x="404" y="528" on="0"/>
        <pt x="448" y="524" on="0"/>
        <pt x="493" y="518" on="0"/>
        <pt x="534" y="509" on="0"/>
        <pt x="549" y="505" on="1"/>
        <pt x="428" y="0" on="1"/>
        <pt x="363" y="0" on="1"/>
        <pt x="412" y="208" on="1"/>
        <pt x="337" y="208" on="1"/>
        <pt x="319" y="208" on="0"/>
        <pt x="289" y="208" on="0"/>
        <pt x="275" y="209" on="1"/>
        <pt x="235" y="160" on="0"/>
        <pt x="152" y="54" on="0"/>
        <pt x="114" y="0" on="1"/>
      </contour>
      <contour>
        <pt x="425" y="262" on="1"/>
        <pt x="473" y="461" on="1"/>
        <pt x="459" y="464" on="0"/>
        <pt x="411" y="471" on="0"/>
        <pt x="378" y="471" on="1"/>
        <pt x="340" y="471" on="0"/>
        <pt x="274" y="456" on="0"/>
        <pt x="224" y="424" on="0"/>
        <pt x="196" y="375" on="0"/>
        <pt x="196" y="342" on="1"/>
        <pt x="196" y="293" on="0"/>
        <pt x="259" y="262" on="0"/>
        <pt x="319" y="262" on="1"/>
      </contour>
    </TTGlyph>
    <TTGlyph name="afii10098" xMin="83" yMin="0" xMax="528" yMax="650">
      <contour>
        <pt x="207" y="517" on="1"/>
        <pt x="433" y="517" on="1"/>
        <pt x="467" y="650" on="1"/>
        <pt x="528" y="650" on="1"/>
        <pt x="483" y="462" on="1"/>
        <pt x="259" y="462" on="1"/>
        <pt x="148" y="0" on="1"/>
        <pt x="83" y="0" on="1"/>
      </contour>
    </TTGlyph>
    <TTGlyph name="afii10099" xMin="83" yMin="-186" xMax="547" yMax="776">
      <contour>
        <pt x="175" y="680" on="1"/>
        <pt x="245" y="680" on="1"/>
        <pt x="265" y="764" on="1"/>
        <pt x="333" y="776" on="1"/>
        <pt x="309" y="680" on="1"/>
        <pt x="477" y="680" on="1"/>
        <pt x="464" y="628" on="1"/>
        <pt x="297" y="628" on="1"/>
        <pt x="267" y="503" on="1"/>
        <pt x="330" y="529" on="0"/>
        <pt x="386" y="529" on="1"/>
        <pt x="420" y="529" on="0"/>
        <pt x="478" y="509" on="0"/>
        <pt x="522" y="469" on="0"/>
        <pt x="547" y="408" on="0"/>
        <pt x="547" y="366" on="1"/>
        <pt x="547" y="340" on="0"/>
        <pt x="539" y="285" on="0"/>
        <pt x="532" y="257" on="1"/>
        <pt x="464" y="-26" on="1"/>
        <pt x="456" y="-60" on="0"/>
        <pt x="434" y="-119" on="0"/>
        <pt x="398" y="-162" on="0"/>
        <pt x="343" y="-186" on="0"/>
        <pt x="301" y="-186" on="1"/>
        <pt x="284" y="-186" on="0"/>
        <pt x="257" y="-181" on="0"/>
        <pt x="250" y="-178" on="1"/>
        <pt x="268" y="-124" on="1"/>
        <pt x="273" y="-126" on="0"/>
        <pt x="294" y="-130" on="0"/>
        <pt x="306" y="-130" on="1"/>
        <pt x="344" y="-130" on="0"/>
        <pt x="386" y="-82" on="0"/>
        <pt x="397" y="-34" on="1"/>
        <pt x="460" y="230" on="1"/>
        <pt x="468" y="263" on="0"/>
        <pt x="482" y="331" on="0"/>
        <pt x="482" y="362" on="1"/>
        <pt x="482" y="392" on="0"/>
        <pt x="463" y="433" on="0"/>
        <pt x="432" y="458" on="0"/>
        <pt x="390" y="469" on="0"/>
        <pt x="367" y="469" on="1"/>
        <pt x="338" y="469" on="0"/>
        <pt x="279" y="457" on="0"/>
        <pt x="253" y="448" on="1"/>
        <pt x="148" y="0" on="1"/>
        <pt x="83" y="0" on="1"/>
        <pt x="232" y="628" on="1"/>
        <pt x="162" y="628" on="1"/>
      </contour>
    </TTGlyph>
    <TTGlyph name="afii10100" xMin="68" yMin="-12" xMax="468" yMax="773">
      <component glyphName="afii10068" x="0" y="0" flags="0x204"/>
      <component glyphName="acute" x="48" y="0" flags="0x4"/>
    </TTGlyph>
    <TTGlyph name="afii10101" xMin="98" yMin="-12" xMax="517" yMax="529">
      <contour>
        <pt x="168" y="240" on="1"/>
        <pt x="166" y="228" on="0"/>
        <pt x="165" y="203" on="0"/>
        <pt x="165" y="192" on="1"/>
        <pt x="165" y="125" on="0"/>
        <pt x="226" y="48" on="0"/>
        <pt x="290" y="48" on="1"/>
        <pt x="344" y="48" on="0"/>
        <pt x="413" y="64" on="0"/>
        <pt x="427" y="71" on="1"/>
        <pt x="434" y="14" on="1"/>
        <pt x="422" y="9" on="0"/>
        <pt x="350" y="-12" on="0"/>
        <pt x="292" y="-12" on="1"/>
        <pt x="233" y="-12" on="0"/>
        <pt x="158" y="23" on="0"/>
        <pt x="115" y="77" on="0"/>
        <pt x="98" y="142" on="0"/>
        <pt x="98" y="172" on="1"/>
        <pt x="98" y="246" on="0"/>
        <pt x="141" y="376" on="0"/>
        <pt x="222" y="473" on="0"/>
        <pt x="340" y="529" on="0"/>
        <pt x="415" y="529" on="1"/>
        <pt x="446" y="529" on="0"/>
        <pt x="496" y="521" on="0"/>
        <pt x="517" y="513" on="1"/>
        <pt x="491" y="456" on="1"/>
        <pt x="478" y="461" on="0"/>
        <pt x="438" y="470" on="0"/>
        <pt x="403" y="470" on="1"/>
        <pt x="322" y="470" on="0"/>
        <pt x="205" y="377" on="0"/>
        <pt x="182" y="295" on="1"/>
        <pt x="401" y="295" on="1"/>
        <pt x="388" y="240" on="1"/>
        <pt x="168" y="240" on="1"/>
      </contour>
    </TTGlyph>
    <TTGlyph name="afii10102" xMin="48" yMin="-12" xMax="452" yMax="529">
      <component glyphName="s" x="0" y="0" flags="0x204"/>
    </TTGlyph>
    <TTGlyph name="afii10103" xMin="83" yMin="0" xMax="322" yMax="721">
      <component glyphName="i" x="0" y="0" flags="0x204"/>
    </TTGlyph>
    <TTGlyph name="afii10104" xMin="83" yMin="0" xMax="412" yMax="721">
      <component glyphName="dotlessi" x="0" y="0" flags="0x204"/>
      <component glyphName="dieresis" x="-30" y="0" flags="0x4"/>
    </TTGlyph>
    <TTGlyph name="afii10105" xMin="-101" yMin="-188" xMax="334" yMax="721">
      <component glyphName="j" x="0" y="0" flags="0x204"/>
    </TTGlyph>
    <TTGlyph name="afii10106" xMin="28" yMin="-11" xMax="797" yMax="517">
      <contour>
        <pt x="456" y="57" on="1"/>
        <pt x="470" y="55" on="0"/>
        <pt x="518" y="47" on="0"/>
        <pt x="558" y="47" on="1"/>
        <pt x="594" y="47" on="0"/>
        <pt x="655" y="62" on="0"/>
        <pt x="701" y="95" on="0"/>
        <pt x="727" y="147" on="0"/>
        <pt x="727" y="183" on="1"/>
        <pt x="727" y="226" on="0"/>
        <pt x="682" y="268" on="0"/>
        <pt x="622" y="268" on="1"/>
        <pt x="587" y="268" on="0"/>
        <pt x="522" y="258" on="0"/>
        <pt x="504" y="253" on="1"/>
      </contour>
      <contour>
        <pt x="320" y="462" on="1"/>
        <pt x="315" y="442" on="1"/>
        <pt x="302" y="390" on="0"/>
        <pt x="278" y="284" on="0"/>
        <pt x="248" y="186" on="0"/>
        <pt x="210" y="100" on="0"/>
        <pt x="155" y="35" on="0"/>
        <pt x="80" y="-6" on="0"/>
        <pt x="29" y="-9" on="1"/>
        <pt x="28" y="45" on="1"/>
        <pt x="80" y="48" on="0"/>
        <pt x="148" y="113" on="0"/>
        <pt x="196" y="219" on="0"/>
        <pt x="230" y="359" on="0"/>
        <pt x="248" y="438" on="1"/>
        <pt x="266" y="517" on="1"/>
        <pt x="567" y="517" on="1"/>
        <pt x="517" y="310" on="1"/>
        <pt x="525" y="312" on="0"/>
        <pt x="554" y="318" on="0"/>
        <pt x="586" y="323" on="0"/>
        <pt x="618" y="326" on="0"/>
        <pt x="630" y="326" on="1"/>
        <pt x="709" y="326" on="0"/>
        <pt x="797" y="265" on="0"/>
        <pt x="797" y="193" on="1"/>
        <pt x="797" y="131" on="0"/>
        <pt x="751" y="51" on="0"/>
        <pt x="679" y="6" on="0"/>
        <pt x="592" y="-11" on="0"/>
        <pt x="552" y="-11" on="1"/>
        <pt x="501" y="-11" on="0"/>
        <pt x="413" y="1" on="0"/>
        <pt x="381" y="12" on="1"/>
        <pt x="489" y="462" on="1"/>
      </contour>
    </TTGlyph>
    <TTGlyph name="afii10107" xMin="83" yMin="-11" xMax="821" yMax="517">
      <contour>
        <pt x="541" y="310" on="1"/>
        <pt x="549" y="312" on="0"/>
        <pt x="578" y="318" on="0"/>
        <pt x="610" y="323" on="0"/>
        <pt x="642" y="326" on="0"/>
        <pt x="654" y="326" on="1"/>
        <pt x="733" y="326" on="0"/>
        <pt x="821" y="265" on="0"/>
        <pt x="821" y="193" on="1"/>
        <pt x="821" y="131" on="0"/>
        <pt x="775" y="51" on="0"/>
        <pt x="703" y="6" on="0"/>
        <pt x="616" y="-11" on="0"/>
        <pt x="576" y="-11" on="1"/>
        <pt x="525" y="-11" on="0"/>
        <pt x="437" y="1" on="0"/>
        <pt x="405" y="12" on="1"/>
        <pt x="460" y="241" on="1"/>
        <pt x="205" y="241" on="1"/>
        <pt x="148" y="0" on="1"/>
        <pt x="83" y="0" on="1"/>
        <pt x="207" y="517" on="1"/>
        <pt x="272" y="517" on="1"/>
        <pt x="219" y="296" on="1"/>
        <pt x="473" y="296" on="1"/>
        <pt x="526" y="517" on="1"/>
        <pt x="591" y="517" on="1"/>
      </contour>
      <contour>
        <pt x="480" y="57" on="1"/>
        <pt x="494" y="55" on="0"/>
        <pt x="542" y="47" on="0"/>
        <pt x="582" y="47" on="1"/>
        <pt x="618" y="47" on="0"/>
        <pt x="679" y="62" on="0"/>
        <pt x="725" y="95" on="0"/>
        <pt x="751" y="147" on="0"/>
        <pt x="751" y="183" on="1"/>
        <pt x="751" y="226" on="0"/>
        <pt x="706" y="268" on="0"/>
        <pt x="646" y="268" on="1"/>
        <pt x="611" y="268" on="0"/>
        <pt x="546" y="258" on="0"/>
        <pt x="528" y="253" on="1"/>
      </contour>
    </TTGlyph>
    <TTGlyph name="afii10108" xMin="83" yMin="0" xMax="547" yMax="776">
      <component glyphName="hbar" x="0" y="0" flags="0x204"/>
    </TTGlyph>
    <TTGlyph name="afii10109" xMin="83" yMin="0" xMax="559" yMax="773">
      <component glyphName="kappa" x="0" y="0" flags="0x204"/>
      <component glyphName="acute" x="132" y="0" flags="0x4"/>
    </TTGlyph>
    <TTGlyph name="afii10110" xMin="-59" yMin="-188" xMax="542" yMax="738">
      <component glyphName="y" x="0" y="0" flags="0x204"/>
      <component glyphName="kratka" x="7" y="0" flags="0x4"/>
    </TTGlyph>
    <TTGlyph name="afii10145" xMin="83" yMin="-185" xMax="737" yMax="693">
      <contour>
        <pt x="295" y="0" on="1"/>
        <pt x="83" y="0" on="1"/>
        <pt x="249" y="693" on="1"/>
        <pt x="317" y="693" on="1"/>
        <pt x="165" y="59" on="1"/>
        <pt x="517" y="59" on="1"/>
        <pt x="669" y="693" on="1"/>
        <pt x="737" y="693" on="1"/>
        <pt x="571" y="0" on="1"/>
        <pt x="360" y="0" on="1"/>
        <pt x="315" y="-185" on="1"/>
        <pt x="250" y="-185" on="1"/>
      </contour>
    </TTGlyph>
    <TTGlyph name="afii10193" xMin="98" yMin="-185" xMax="564" yMax="517">
      <contour>
        <pt x="203" y="-42" on="1"/>
        <pt x="266" y="-42" on="1"/>
        <pt x="232" y="-185" on="1"/>
        <pt x="169" y="-185" on="1"/>
      </contour>
      <contour>
        <pt x="248" y="-12" on="1"/>
        <pt x="205" y="-12" on="0"/>
        <pt x="147" y="10" on="0"/>
        <pt x="113" y="49" on="0"/>
        <pt x="98" y="102" on="0"/>
        <pt x="98" y="133" on="1"/>
        <pt x="98" y="162" on="0"/>
        <pt x="108" y="227" on="0"/>
        <pt x="116" y="260" on="1"/>
        <pt x="178" y="517" on="1"/>
        <pt x="243" y="517" on="1"/>
        <pt x="188" y="289" on="1"/>
        <pt x="180" y="254" on="0"/>
        <pt x="161" y="177" on="0"/>
        <pt x="161" y="142" on="1"/>
        <pt x="161" y="122" on="0"/>
        <pt x="170" y="88" on="0"/>
        <pt x="192" y="62" on="0"/>
        <pt x="228" y="48" on="0"/>
        <pt x="256" y="48" on="1"/>
        <pt x="304" y="48" on="0"/>
        <pt x="377" y="86" on="0"/>
        <pt x="409" y="122" on="1"/>
        <pt x="409" y="149" on="0"/>
        <pt x="425" y="219" on="0"/>
        <pt x="432" y="247" on="1"/>
        <pt x="499" y="517" on="1"/>
        <pt x="564" y="517" on="1"/>
        <pt x="485" y="197" on="1"/>
        <pt x="479" y="172" on="0"/>
        <pt x="471" y="128" on="0"/>
        <pt x="471" y="108" on="1"/>
        <pt x="471" y="81" on="0"/>
        <pt x="481" y="33" on="0"/>
        <pt x="494" y="4" on="1"/>
        <pt x="427" y="-6" on="1"/>
        <pt x="421" y="6" on="0"/>
        <pt x="412" y="37" on="0"/>
        <pt x="410" y="53" on="1"/>
        <pt x="375" y="19" on="0"/>
        <pt x="296" y="-12" on="0"/>
      </contour>
    </TTGlyph>
    <TTGlyph name="afii61289" xMin="72" yMin="-16" xMax="463" yMax="776">
      <contour>
        <pt x="72" y="174" on="1"/>
        <pt x="179" y="250" on="1"/>
        <pt x="179" y="477" on="1"/>
        <pt x="179" y="572" on="0"/>
        <pt x="198" y="689" on="0"/>
        <pt x="235" y="754" on="0"/>
        <pt x="292" y="776" on="0"/>
        <pt x="330" y="776" on="1"/>
        <pt x="373" y="776" on="0"/>
        <pt x="421" y="743" on="0"/>
        <pt x="445" y="694" on="0"/>
        <pt x="451" y="637" on="0"/>
        <pt x="451" y="613" on="1"/>
        <pt x="451" y="500" on="0"/>
        <pt x="339" y="318" on="0"/>
        <pt x="248" y="246" on="1"/>
        <pt x="248" y="197" on="1"/>
        <pt x="248" y="117" on="0"/>
        <pt x="297" y="43" on="0"/>
        <pt x="353" y="43" on="1"/>
        <pt x="386" y="43" on="0"/>
        <pt x="424" y="65" on="0"/>
        <pt x="438" y="76" on="1"/>
        <pt x="463" y="20" on="1"/>
        <pt x="445" y="6" on="0"/>
        <pt x="386" y="-16" on="0"/>
        <pt x="344" y="-16" on="1"/>
        <pt x="288" y="-16" on="0"/>
        <pt x="220" y="21" on="0"/>
        <pt x="185" y="80" on="0"/>
        <pt x="175" y="151" on="0"/>
        <pt x="178" y="185" on="1"/>
        <pt x="102" y="131" on="1"/>
      </contour>
      <contour>
        <pt x="248" y="304" on="1"/>
        <pt x="317" y="363" on="0"/>
        <pt x="394" y="509" on="0"/>
        <pt x="394" y="612" on="1"/>
        <pt x="394" y="628" on="0"/>
        <pt x="390" y="664" on="0"/>
        <pt x="376" y="694" on="0"/>
        <pt x="351" y="714" on="0"/>
        <pt x="329" y="714" on="1"/>
        <pt x="313" y="714" on="0"/>
        <pt x="284" y="703" on="0"/>
        <pt x="261" y="671" on="0"/>
        <pt x="248" y="611" on="0"/>
        <pt x="248" y="562" on="1"/>
      </contour>
    </TTGlyph>
    <TTGlyph name="afii61352" xMin="83" yMin="0" xMax="1133" yMax="705">
      <contour>
        <pt x="745" y="221" on="1"/>
        <pt x="1046" y="221" on="1"/>
        <pt x="1030" y="156" on="1"/>
        <pt x="729" y="156" on="1"/>
      </contour>
      <contour>
        <pt x="249" y="693" on="1"/>
        <pt x="314" y="693" on="1"/>
        <pt x="351" y="629" on="0"/>
        <pt x="419" y="472" on="0"/>
        <pt x="476" y="313" on="0"/>
        <pt x="519" y="164" on="0"/>
        <pt x="531" y="109" on="1"/>
        <pt x="667" y="693" on="1"/>
        <pt x="732" y="693" on="1"/>
        <pt x="568" y="0" on="1"/>
        <pt x="503" y="0" on="1"/>
        <pt x="485" y="61" on="0"/>
        <pt x="436" y="222" on="0"/>
        <pt x="380" y="388" on="0"/>
        <pt x="320" y="544" on="0"/>
        <pt x="292" y="601" on="1"/>
        <pt x="148" y="0" on="1"/>
        <pt x="83" y="0" on="1"/>
      </contour>
      <contour>
        <pt x="1004" y="656" on="1"/>
        <pt x="971" y="656" on="0"/>
        <pt x="917" y="621" on="0"/>
        <pt x="879" y="567" on="0"/>
        <pt x="858" y="501" on="0"/>
        <pt x="858" y="469" on="1"/>
        <pt x="858" y="380" on="0"/>
        <pt x="929" y="380" on="1"/>
        <pt x="962" y="380" on="0"/>
        <pt x="1016" y="415" on="0"/>
        <pt x="1054" y="469" on="0"/>
        <pt x="1075" y="535" on="0"/>
        <pt x="1075" y="567" on="1"/>
        <pt x="1075" y="656" on="0"/>
      </contour>
      <contour>
        <pt x="915" y="331" on="1"/>
        <pt x="885" y="331" on="0"/>
        <pt x="842" y="352" on="0"/>
        <pt x="813" y="388" on="0"/>
        <pt x="800" y="434" on="0"/>
        <pt x="800" y="460" on="1"/>
        <pt x="800" y="504" on="0"/>
        <pt x="829" y="591" on="0"/>
        <pt x="884" y="661" on="0"/>
        <pt x="965" y="705" on="0"/>
        <pt x="1018" y="705" on="1"/>
        <pt x="1048" y="705" on="0"/>
        <pt x="1091" y="684" on="0"/>
        <pt x="1120" y="648" on="0"/>
        <pt x="1133" y="601" on="0"/>
        <pt x="1133" y="576" on="1"/>
        <pt x="1133" y="532" on="0"/>
        <pt x="1104" y="445" on="0"/>
        <pt x="1049" y="375" on="0"/>
        <pt x="967" y="331" on="0"/>
      </contour>
    </TTGlyph>
    <TTGlyph name="agrave" xMin="98" yMin="-13" xMax="564" yMax="773">
      <component glyphName="a" x="0" y="0" flags="0x204"/>
      <component glyphName="grave" x="97" y="0" flags="0x4"/>
    </TTGlyph>
</ttFont>
